<?xml version="1.0" encoding="utf-8"?>
<!-- Generator: Adobe Illustrator 26.5.0, SVG Export Plug-In . SVG Version: 6.00 Build 0)  -->
<svg version="1.1" xmlns="http://www.w3.org/2000/svg" xmlns:xlink="http://www.w3.org/1999/xlink" x="0px" y="0px"
	 viewBox="0 0 116.68 115.81" style="enable-background:new 0 0 116.68 115.81;" xml:space="preserve">
<style type="text/css">
	.st0{fill:#E0E0E0;}
	.st1{fill:#FFFFFF;}
	.st2{fill:none;stroke:#D4D4D4;stroke-miterlimit:10;}
	.st3{fill:#BDBDBD;}
	.st4{fill:#757575;}
	.st5{fill:none;stroke:#F0F0F0;stroke-miterlimit:10;}
	.st6{fill:#BBBBBB;}
	.st7{fill:none;stroke:#FFFFFF;stroke-miterlimit:10;}
	.st8{display:none;}
	.st9{display:inline;}
	.st10{opacity:0.85;fill:none;stroke:#B77B49;stroke-width:5;stroke-miterlimit:10;}
	.st11{fill:#333333;}
	.st12{clip-path:url(#SVGID_00000065772728505837915580000007337803591696655543_);}
	.st13{clip-path:url(#SVGID_00000164495296336426604940000007098892721631022766_);}
	.st14{clip-path:url(#SVGID_00000003793660092207349800000011359226450117475764_);}
	.st15{clip-path:url(#SVGID_00000063619686874890137870000012586384128305823897_);}
	.st16{clip-path:url(#SVGID_00000010274752820789220300000000616353917030723995_);}
	.st17{clip-path:url(#SVGID_00000183223418142542707470000007157153776438933423_);}
	.st18{fill:#414042;}
	.st19{fill:#606060;}
	.st20{fill:#595757;}
	.st21{fill:none;stroke:#595757;stroke-width:1.5;stroke-linecap:round;stroke-linejoin:round;stroke-miterlimit:10;}
	.st22{fill:#C9CACA;}
	.st23{fill:none;stroke:#C9CACA;stroke-width:1.5;stroke-linecap:round;stroke-linejoin:round;stroke-miterlimit:10;}
	.st24{fill:#EA5504;}
	.st25{fill:none;stroke:#EA5504;stroke-width:1.5;stroke-linecap:round;stroke-linejoin:round;stroke-miterlimit:10;}
	.st26{fill:#00B9EF;}
	.st27{fill:none;stroke:#00B9EF;stroke-width:1.5;stroke-linecap:round;stroke-linejoin:round;stroke-miterlimit:10;}
	.st28{fill:#FFF100;}
	.st29{fill:none;stroke:#FFF100;stroke-width:1.5;stroke-linecap:round;stroke-linejoin:round;stroke-miterlimit:10;}
	.st30{fill:#D0121B;}
	.st31{fill:none;stroke:#D0121B;stroke-width:1.5;stroke-linecap:round;stroke-linejoin:round;stroke-miterlimit:10;}
	.st32{fill:#C9CACA;stroke:#7F7F7F;stroke-width:0.6;stroke-miterlimit:10;}
	.st33{fill:#7F7F7F;}
	.st34{opacity:0.15;}
	.st35{clip-path:url(#SVGID_00000001635240872301440340000014973684359657318314_);}
	.st36{clip-path:url(#SVGID_00000013186795198135242260000018172259072090551451_);}
	.st37{clip-path:url(#SVGID_00000042738912191521673660000000642689411958792078_);}
	.st38{clip-path:url(#SVGID_00000085944899539802060690000001580658958377139887_);}
	.st39{clip-path:url(#SVGID_00000072983326040081601430000003652663761436646064_);}
	.st40{clip-path:url(#SVGID_00000068647254980317540020000013838168880753656757_);}
	.st41{fill:#C8C8C8;}
	.st42{clip-path:url(#SVGID_00000139996527412827699350000002412680858001628591_);}
	.st43{fill:none;stroke:#787878;stroke-width:0.5;stroke-miterlimit:10;}
	.st44{fill:#121D17;}
	.st45{fill:#878787;}
	.st46{display:inline;fill:#606060;}
	.st47{display:inline;fill:#525252;}
	.st48{fill:none;stroke:#0083F1;stroke-width:5;stroke-linecap:round;stroke-linejoin:round;}
	.st49{fill:none;stroke:#0083F1;stroke-width:5;stroke-linecap:round;stroke-linejoin:round;stroke-dasharray:1.0041,20.0813;}
	.st50{fill:#0083F1;}
</style>
<g id="圖層_1">
</g>
<g id="_x30_3" class="st8">
</g>
<g id="圖層_6">
	<g>
		<g>
			<g>
				<path class="st11" d="M17.37,100.54H8.7v3.22c3.16,1.65,5.56,3.16,7.21,4.54l-1.11,1.53c-1.53-1.32-3.56-2.68-6.1-4.08v9.94
					H6.88v-15.15H0v-1.76h17.37V100.54z"/>
				<path class="st11" d="M37.61,111.75c-0.14,1.18-0.41,2.14-0.79,2.88c-0.39,0.74-0.91,1.1-1.56,1.1c-0.36,0-0.69-0.12-0.99-0.38
					c-0.29-0.25-0.67-0.87-1.12-1.85c-0.87,1.06-1.55,1.82-2.06,2.28l-1.46-1.06c0.21-0.15,0.42-0.33,0.62-0.56h-3.88v1.53H24.7
					v-1.53h-4.52v-1.28h4.52v-1.03h-3.76v-5.51h3.76v-0.92h-4.4v-1.28h4.4v-1.06h-4.72v-1.38h4.72v-1.03h-4.14v-1.36h4.14v-1.06
					h1.68v1.06h4.24v1.36h-4.24v1.03h5.19c-0.02-1.09-0.02-2.25,0-3.48h1.68l0.04,3.48h4.1v1.38h-4.04c0.05,2.56,0.18,4.6,0.4,6.12
					c0.61-1.27,1.12-2.91,1.54-4.92l1.64,0.48c-0.64,2.7-1.51,5.01-2.62,6.94c0.08,0.36,0.24,0.78,0.45,1.26
					c0.22,0.48,0.34,0.74,0.37,0.76c0.03,0.02,0.07,0.03,0.11,0.03c0.28,0,0.53-0.94,0.76-2.82L37.61,111.75z M24.7,108.53v-0.96
					h-2.13v0.96H24.7z M24.7,110.65v-1h-2.13v1H24.7z M32.45,111.47c-0.56-2.13-0.84-4.92-0.84-8.38h-5.23v1.06h4.26v1.28h-4.26
					v0.92h3.78v5.51h-3.78v1.03h4.18v0.98C31.25,113.13,31.88,112.33,32.45,111.47z M28.47,108.51v-0.94h-2.1v0.94H28.47z
					 M28.47,110.65v-1h-2.1v1H28.47z M36.91,100.46l-1.34,0.88c-0.55-0.88-1.14-1.58-1.75-2.1l1.24-0.97
					C35.7,98.79,36.31,99.52,36.91,100.46z"/>
				<path class="st11" d="M45.47,104.37H43.8v4.24c0.25-0.14,0.69-0.42,1.33-0.86l0.27,1.72c-2.35,1.57-4.02,2.58-5.02,3.01
					l-0.56-1.6c1.05-0.49,1.82-0.89,2.29-1.2v-5.3h-1.93v-1.6h1.93v-4.43h1.68v4.43h1.68V104.37z M57.39,107.54h-7.23
					c-0.29,0.45-0.53,0.78-0.7,1h7.54c-0.05,1.46-0.13,2.79-0.22,4c-0.09,1.21-0.19,1.93-0.28,2.15c-0.09,0.22-0.25,0.43-0.46,0.61
					c-0.21,0.18-0.51,0.31-0.87,0.39c-0.37,0.07-1.17,0.11-2.4,0.11l-0.56-1.6c0.36,0.03,0.72,0.04,1.09,0.04
					c0.83,0.01,1.34-0.1,1.52-0.32c0.18-0.22,0.32-1.53,0.4-3.91h-0.54c-1,2.43-2.92,4.37-5.76,5.82l-1.24-1.16
					c2.53-1.17,4.29-2.72,5.29-4.66h-1.26c-1.26,1.78-3.31,3.31-6.15,4.58l-1.14-1.24c2.49-1.02,4.28-2.13,5.36-3.34h-1.72
					c-0.78,0.66-1.51,1.21-2.19,1.64l-1.13-1.22c1.49-0.83,2.67-1.79,3.55-2.88h-3.13v-1.46h12.23V107.54z M56.38,105.06H46.26
					v-6.44h10.12V105.06z M54.68,101.15v-1.03h-6.73v1.03H54.68z M54.68,103.59v-1.05h-6.73v1.05H54.68z"/>
				<path class="st11" d="M67.79,101.38l-0.94,1.42c-0.31-0.38-0.65-0.74-1.03-1.07v1.3h-3.7v-0.78c-0.49,0.44-1.11,0.9-1.85,1.36
					l-0.5-1.78c1.47-0.88,2.79-2.15,3.97-3.82l1.62,0.58c-0.09,0.19-0.19,0.34-0.29,0.44C66.28,99.92,67.18,100.71,67.79,101.38z
					 M67.65,114.49l-1.58,0.82c-0.17-0.56-0.32-0.98-0.46-1.26c-1.77,0.77-3.31,1.31-4.62,1.64l-0.48-1.51
					c0.25-0.19,0.37-0.42,0.37-0.7v-9.58h6.1v6.52h-4.41v3.04c0.68-0.21,1.45-0.51,2.29-0.92c-0.1-0.3-0.3-0.66-0.58-1.08l1.53-0.72
					C66.57,111.9,67.18,113.15,67.65,114.49z M65.35,106.41v-1.01h-2.77v1.01H65.35z M65.35,108.91v-1.22h-2.77v1.22H65.35z
					 M65.65,101.55c-0.45-0.42-0.97-0.86-1.56-1.3c-0.33,0.41-0.74,0.84-1.22,1.3H65.65z M77.25,103.86h-1.12v4.44h-5.5v1.36h6.18
					v5.23h-6.18v0.86h-1.76v-11.89h-0.86v-3.54h3.57c-0.12-0.39-0.39-0.98-0.8-1.76l1.81-0.5c0.34,0.65,0.64,1.4,0.92,2.25h3.74
					V103.86z M75.51,103.38v-1.52h-5.72v1.52H75.51z M74.37,106.74v-1.81h-3.74v1.81H74.37z M75.09,113.33v-2.08h-4.46v2.08H75.09z"
					/>
				<path class="st11" d="M85.96,111.99c-2.13,1.08-3.99,1.9-5.58,2.46l-0.46-1.68c0.71-0.23,1.44-0.51,2.18-0.84v-7.35h-1.91v-1.68
					h1.91v-4.58h1.79v4.58h1.8v1.68h-1.8v6.53c0.66-0.28,1.31-0.59,1.93-0.94L85.96,111.99z M97.51,111.91
					c-0.05,1.32-0.22,2.22-0.51,2.69c-0.29,0.47-0.8,0.75-1.54,0.84c-0.74,0.09-2.04,0.14-3.91,0.14c-1.47,0-2.47-0.03-3.01-0.08
					c-0.53-0.06-0.95-0.25-1.25-0.59c-0.3-0.34-0.45-0.85-0.45-1.53v-6.36l-1.39,0.55l-0.21-1.81l1.6-0.65v-4.48h1.74v3.74
					l2.34-0.92V98.3h1.74v4.41l4.16-1.7c-0.07,3.4-0.35,6.32-0.86,8.74l-1.7-0.52c0.39-1.83,0.63-3.7,0.73-5.6l-2.33,0.95v7.5h-1.74
					v-6.76l-2.34,0.95v6.95c0,0.38,0.14,0.59,0.43,0.63c0.29,0.04,1.2,0.06,2.74,0.06c1.58,0,2.61-0.01,3.09-0.04
					c0.49-0.03,0.77-0.26,0.83-0.7s0.11-1.08,0.13-1.91L97.51,111.91z"/>
				<path class="st11" d="M116.68,115.79h-1.76v-1.04h-12.51v1h-1.72V98.61h15.99V115.79z M114.92,113.19v-13.03h-12.51v13.03
					H114.92z M114.29,105.63h-11.23v-1.22h4.79v-0.67h-3.99v-2.94h9.63v2.94h-3.96v0.67h4.76V105.63z M113.72,112.53h-10.09v-6.24
					h10.09V112.53z M112.04,111.35v-3.86h-6.71v3.86H112.04z M111.75,102.67v-0.8h-6.18v0.8H111.75z M110.99,110.73h-4.62v-2.62
					h4.62V110.73z M109.49,109.77v-0.7h-1.62v0.7H109.49z"/>
			</g>
		</g>
		<g>
			<g>
				<path class="st11" d="M86.28,83.8H38.67l-9.58-50.63h9.64l7.59,40.15l40.23,7.54L86.28,83.8z M41.12,80.84h29.21l-26.55-4.98
					l-7.51-39.73h-3.61L41.12,80.84z"/>
				<g>
					<path class="st11" d="M44.62,18.98h6.49c0.47,0,0.86-0.38,0.86-0.86V0.86c0-0.47,0.38-0.86,0.86-0.86H64.3
						c0.47,0,0.86,0.38,0.86,0.86v17.27c0,0.47,0.38,0.86,0.86,0.86h6.52c0.71,0,1.11,0.81,0.68,1.38
						c-4.67,6.11-9.3,13.62-13.96,19.71c-0.34,0.45-1.02,0.45-1.36,0c-4.65-6.08-9.28-13.59-13.96-19.71
						C43.51,19.79,43.91,18.98,44.62,18.98z"/>
				</g>
				<g>
					<path class="st11" d="M78.53,33.38l-9.77-1.83c-0.06,0.09-0.13,0.19-0.19,0.28c-0.54,0.79-1.09,1.59-1.64,2.39l9.06,1.7
						l8.43,44.54l-38.1-7.14l-8.43-44.54l9.87,1.85c-0.79-1.16-1.59-2.32-2.39-3.46l-11.21-2.1l9.61,50.8l44.35,8.32L78.53,33.38z"
						/>
				</g>
			</g>
		</g>
	</g>
</g>
<g id="圖層_5">
</g>
<g id="note" class="st8">
</g>
<g id="指示線">
</g>
</svg>
