<?xml version="1.0" encoding="utf-8"?>
<!-- Generator: Adobe Illustrator 26.2.1, SVG Export Plug-In . SVG Version: 6.00 Build 0)  -->
<svg version="1.1" xmlns="http://www.w3.org/2000/svg" xmlns:xlink="http://www.w3.org/1999/xlink" x="0px" y="0px"
	 viewBox="0 0 44.06 58.19" style="enable-background:new 0 0 44.06 58.19;" xml:space="preserve">
<style type="text/css">
	.st0{fill:#E0E0E0;}
	.st1{fill:#FFFFFF;}
	.st2{fill:none;stroke:#D4D4D4;stroke-miterlimit:10;}
	.st3{fill:#BDBDBD;}
	.st4{fill:#757575;}
	.st5{fill:none;stroke:#F0F0F0;stroke-miterlimit:10;}
	.st6{fill:#BBBBBB;}
	.st7{fill:none;stroke:#FFFFFF;stroke-miterlimit:10;}
	.st8{display:none;}
	.st9{display:inline;}
	.st10{opacity:0.85;fill:none;stroke:#B77B49;stroke-width:5;stroke-miterlimit:10;}
	.st11{fill:#333333;}
	.st12{clip-path:url(#SVGID_00000108990177587973047380000012877593965589840029_);}
	.st13{clip-path:url(#SVGID_00000000182712768826835480000005098873148711614622_);}
	.st14{clip-path:url(#SVGID_00000086686620743748255210000009346772309756519103_);}
	.st15{clip-path:url(#SVGID_00000065794617749079476000000004192445292089555618_);}
	.st16{clip-path:url(#SVGID_00000016766282640038358250000012521666376200859792_);}
	.st17{clip-path:url(#SVGID_00000047040527494331686040000000841123633820336047_);}
	.st18{clip-path:url(#SVGID_00000109019633771925014630000004873088709623369917_);}
	.st19{clip-path:url(#SVGID_00000163755865305189351360000008739570337476563390_);}
	.st20{clip-path:url(#SVGID_00000088126267359366028700000017186348362468201346_);}
	.st21{clip-path:url(#SVGID_00000072281209752457450780000011169183029371040658_);}
	.st22{clip-path:url(#SVGID_00000108998933367741865780000009331700701128985258_);}
	.st23{clip-path:url(#SVGID_00000018952282742922498520000004165269531600071830_);}
	.st24{fill:#414042;}
	.st25{fill:#606060;}
	.st26{fill:#595757;}
	.st27{fill:none;stroke:#595757;stroke-width:1.5;stroke-linecap:round;stroke-linejoin:round;stroke-miterlimit:10;}
	.st28{fill:#C9CACA;}
	.st29{fill:none;stroke:#C9CACA;stroke-width:1.5;stroke-linecap:round;stroke-linejoin:round;stroke-miterlimit:10;}
	.st30{fill:#EA5504;}
	.st31{fill:none;stroke:#EA5504;stroke-width:1.5;stroke-linecap:round;stroke-linejoin:round;stroke-miterlimit:10;}
	.st32{fill:#00B9EF;}
	.st33{fill:none;stroke:#00B9EF;stroke-width:1.5;stroke-linecap:round;stroke-linejoin:round;stroke-miterlimit:10;}
	.st34{fill:#FFF100;}
	.st35{fill:none;stroke:#FFF100;stroke-width:1.5;stroke-linecap:round;stroke-linejoin:round;stroke-miterlimit:10;}
	.st36{fill:#D0121B;}
	.st37{fill:none;stroke:#D0121B;stroke-width:1.5;stroke-linecap:round;stroke-linejoin:round;stroke-miterlimit:10;}
	.st38{fill:#C9CACA;stroke:#7F7F7F;stroke-width:0.6;stroke-miterlimit:10;}
	.st39{fill:#7F7F7F;}
	.st40{clip-path:url(#SVGID_00000176030693099402037760000004270892271613269936_);}
	.st41{fill:none;stroke:#787878;stroke-width:0.5;stroke-miterlimit:10;}
	.st42{fill:#121D17;}
	.st43{fill:#878787;}
	.st44{display:inline;fill:#606060;}
	.st45{display:inline;fill:#525252;}
	.st46{fill:none;stroke:#0083F1;stroke-width:5;stroke-linecap:round;stroke-linejoin:round;}
	.st47{fill:none;stroke:#0083F1;stroke-width:5;stroke-linecap:round;stroke-linejoin:round;stroke-dasharray:1.0041,20.0813;}
	.st48{fill:#0083F1;}
</style>
<g id="圖層_1">
</g>
<g id="_x30_3" class="st8">
</g>
<g id="圖層_6">
	<g>
		<g>
			<g>
				<path class="st11" d="M8.58,13.98h4.78c0.35,0,0.63-0.28,0.63-0.63V0.63c0-0.35,0.28-0.63,0.63-0.63h8.46
					c0.35,0,0.63,0.28,0.63,0.63v12.72c0,0.35,0.28,0.63,0.63,0.63h4.81c0.52,0,0.82,0.6,0.5,1.02c-3.44,4.5-6.85,10.03-10.28,14.52
					c-0.25,0.33-0.75,0.33-1,0C14.94,25.04,11.53,19.51,8.08,15C7.77,14.58,8.06,13.98,8.58,13.98z"/>
			</g>
			<path class="st11" d="M9.4,58.19L0,23.68l5.82-0.83l7.14,26.18l30.37,0.84l0.73,2.2L9.4,58.19z M2.75,25.49l8.23,30.22L34,51.8
				l-22.72-0.63L4.22,25.28L2.75,25.49z"/>
			<g>
				<path class="st11" d="M33.21,19.79l-0.37-1.07l-3.06-0.22c-0.49,0.68-0.98,1.38-1.47,2.09l2.93,0.21l9.76,29.02l-28.05-0.78
					l-8.2-30.1l3.68,0.26c-0.56-0.79-1.12-1.56-1.68-2.31l-4.91-0.35l9.43,34.63l32.78,0.91L33.21,19.79z"/>
			</g>
		</g>
	</g>
</g>
<g id="圖層_5">
</g>
<g id="note" class="st8">
</g>
<g id="指示線" class="st8">
</g>
</svg>
