<?xml version="1.0" encoding="utf-8"?>
<!-- Generator: Adobe Illustrator 26.2.1, SVG Export Plug-In . SVG Version: 6.00 Build 0)  -->
<svg version="1.1" xmlns="http://www.w3.org/2000/svg" xmlns:xlink="http://www.w3.org/1999/xlink" x="0px" y="0px"
	 viewBox="0 0 75.94 61.05" style="enable-background:new 0 0 75.94 61.05;" xml:space="preserve">
<style type="text/css">
	.st0{fill:#E0E0E0;}
	.st1{fill:#FFFFFF;}
	.st2{fill:none;stroke:#D4D4D4;stroke-miterlimit:10;}
	.st3{fill:#BDBDBD;}
	.st4{fill:#757575;}
	.st5{fill:none;stroke:#F0F0F0;stroke-miterlimit:10;}
	.st6{fill:#BBBBBB;}
	.st7{fill:none;stroke:#FFFFFF;stroke-miterlimit:10;}
	.st8{display:none;}
	.st9{display:inline;}
	.st10{opacity:0.85;fill:none;stroke:#B77B49;stroke-width:5;stroke-miterlimit:10;}
	.st11{fill:#333333;}
	.st12{clip-path:url(#SVGID_00000121278969175837725730000009455734175818129799_);}
	.st13{clip-path:url(#SVGID_00000087376527539429168460000012282343546501946242_);}
	.st14{clip-path:url(#SVGID_00000038382671203794889600000001519429980043085203_);}
	.st15{clip-path:url(#SVGID_00000008143818014484979100000015763785476944867758_);}
	.st16{clip-path:url(#SVGID_00000036962617938337573950000005607140132564720564_);}
	.st17{clip-path:url(#SVGID_00000049921817938945868400000017169553024954419351_);}
	.st18{clip-path:url(#SVGID_00000122678830772347277650000000168018086629938603_);}
	.st19{clip-path:url(#SVGID_00000055678439647499902770000010680901379075991207_);}
	.st20{clip-path:url(#SVGID_00000008148243300264988710000011745954947845106082_);}
	.st21{clip-path:url(#SVGID_00000103256540585533278280000003914468142727542426_);}
	.st22{clip-path:url(#SVGID_00000163039565012682180950000016128325206392817835_);}
	.st23{clip-path:url(#SVGID_00000085928773837285671010000004726252717904513170_);}
	.st24{fill:#414042;}
	.st25{fill:#606060;}
	.st26{fill:#595757;}
	.st27{fill:none;stroke:#595757;stroke-width:1.5;stroke-linecap:round;stroke-linejoin:round;stroke-miterlimit:10;}
	.st28{fill:#C9CACA;}
	.st29{fill:none;stroke:#C9CACA;stroke-width:1.5;stroke-linecap:round;stroke-linejoin:round;stroke-miterlimit:10;}
	.st30{fill:#EA5504;}
	.st31{fill:none;stroke:#EA5504;stroke-width:1.5;stroke-linecap:round;stroke-linejoin:round;stroke-miterlimit:10;}
	.st32{fill:#00B9EF;}
	.st33{fill:none;stroke:#00B9EF;stroke-width:1.5;stroke-linecap:round;stroke-linejoin:round;stroke-miterlimit:10;}
	.st34{fill:#FFF100;}
	.st35{fill:none;stroke:#FFF100;stroke-width:1.5;stroke-linecap:round;stroke-linejoin:round;stroke-miterlimit:10;}
	.st36{fill:#D0121B;}
	.st37{fill:none;stroke:#D0121B;stroke-width:1.5;stroke-linecap:round;stroke-linejoin:round;stroke-miterlimit:10;}
	.st38{fill:#C9CACA;stroke:#7F7F7F;stroke-width:0.6;stroke-miterlimit:10;}
	.st39{fill:#7F7F7F;}
	.st40{clip-path:url(#SVGID_00000066477989459695263200000011144094109440319893_);}
	.st41{fill:none;stroke:#787878;stroke-width:0.5;stroke-miterlimit:10;}
	.st42{fill:#121D17;}
	.st43{fill:#878787;}
	.st44{display:inline;fill:#606060;}
	.st45{display:inline;fill:#525252;}
	.st46{fill:none;stroke:#0083F1;stroke-width:5;stroke-linecap:round;stroke-linejoin:round;}
	.st47{fill:none;stroke:#0083F1;stroke-width:5;stroke-linecap:round;stroke-linejoin:round;stroke-dasharray:1.0041,20.0813;}
	.st48{fill:#0083F1;}
</style>
<g id="圖層_1">
</g>
<g id="_x30_3" class="st8">
</g>
<g id="圖層_6">
	<g>
		<g>
			<g>
				<path class="st11" d="M10.04,13.98h4.78c0.35,0,0.63-0.28,0.63-0.63V0.63c0-0.35,0.28-0.63,0.63-0.63h8.46
					c0.35,0,0.63,0.28,0.63,0.63v12.72c0,0.35,0.28,0.63,0.63,0.63h4.81c0.52,0,0.82,0.6,0.5,1.02c-3.44,4.5-6.85,10.03-10.28,14.52
					c-0.25,0.33-0.75,0.33-1,0C16.4,25.04,12.98,19.51,9.54,15C9.22,14.58,9.52,13.98,10.04,13.98z"/>
			</g>
			<g>
				<g>
					<path class="st11" d="M26.28,44.73l-0.42-1.6c0.69-0.39,1.37-0.87,2.04-1.43l1.14,1.13C28.15,43.59,27.23,44.23,26.28,44.73z"
						/>
					<path class="st11" d="M15.65,45.21c-0.9-0.16-1.81-0.35-2.7-0.55l0.52-1.53c0.85,0.19,1.71,0.37,2.57,0.52L15.65,45.21z"/>
					<path class="st11" d="M49.7,20.33l-0.14,1.64c-0.83,0.12-1.6,0.34-2.32,0.68c-0.03,0.02-0.07,0.03-0.1,0.05l-0.86-1.36
						c0.09-0.05,0.18-0.09,0.27-0.13C47.54,20.75,48.58,20.46,49.7,20.33z"/>
					<path class="st11" d="M31.72,40.16l-1.14-1.13c0.64-0.73,1.28-1.52,1.91-2.33l1.15,1.14C33.01,38.65,32.37,39.42,31.72,40.16z"
						/>
					<path class="st11" d="M43.17,23.48l0.87,1.37c-0.65,0.58-1.29,1.22-1.92,1.91l-1.03-1.25C41.76,24.79,42.46,24.1,43.17,23.48z"
						/>
					<path class="st11" d="M56.64,21.36l-0.77,1.45c-0.88-0.3-1.72-0.53-2.53-0.68l0.14-1.63C54.49,20.68,55.54,20.97,56.64,21.36z"
						/>
					<path class="st11" d="M22.23,44.19l0.41,1.58c-0.37,0.03-0.76,0.04-1.17,0.04c-0.64,0-1.33-0.03-2.05-0.09l0.39-1.58
						C20.69,44.21,21.51,44.23,22.23,44.19z"/>
					<path class="st11" d="M62.72,24.27l-0.81,1.4c-0.87-0.51-1.72-0.98-2.54-1.38l0.75-1.43C60.97,23.28,61.83,23.75,62.72,24.27z"
						/>
				</g>
				<path class="st11" d="M61.27,10.17L44.54,9.48l-11.23,9.4h0l-2.22-0.32c-0.49,0.68-0.97,1.37-1.46,2.07l3.2,0.47l3.44,10.48
					c-0.29,0.4-0.59,0.81-0.88,1.21c-0.21,0.29-0.42,0.57-0.62,0.86l1.15,1.14c0.26-0.36,0.51-0.71,0.77-1.07
					c0.07-0.09,0.13-0.18,0.2-0.27l5.57,16.96l-16.6-0.84L12.2,57.6L7.84,43.23c0.46,0.16,0.95,0.31,1.45,0.47l0.52-1.52
					C8.86,41.89,8,41.6,7.26,41.32L2.7,26.3l8.52-5.38c-0.44-0.63-0.88-1.26-1.32-1.88L0,25.3l10.85,35.75l15.58-9.17l18.03,0.92
					l11.99-11l19.48-1.38L61.27,10.17z M55.58,39.55L44.61,49.62l-6.06-18.45c0.36-0.49,0.73-0.97,1.1-1.45l-1.05-1.27
					c-0.22,0.28-0.44,0.57-0.66,0.86l-2.88-8.78l10.3-8.61l14.36,0.34l7.17,14.72c-0.33-0.23-0.65-0.46-0.97-0.67l-0.81,1.4
					c1.06,0.72,2.16,1.51,3.29,2.37l4.03,8.26L55.58,39.55z"/>
			</g>
		</g>
	</g>
</g>
<g id="圖層_5">
</g>
<g id="note" class="st8">
</g>
<g id="指示線" class="st8">
</g>
</svg>
