<?xml version="1.0" encoding="utf-8"?>
<!-- Generator: Adobe Illustrator 26.2.1, SVG Export Plug-In . SVG Version: 6.00 Build 0)  -->
<svg version="1.1" xmlns="http://www.w3.org/2000/svg" xmlns:xlink="http://www.w3.org/1999/xlink" x="0px" y="0px"
	 viewBox="0 0 23.26 201.08" style="enable-background:new 0 0 23.26 201.08;" xml:space="preserve">
<style type="text/css">
	.st0{fill:#E0E0E0;}
	.st1{fill:#FFFFFF;}
	.st2{fill:none;stroke:#D4D4D4;stroke-miterlimit:10;}
	.st3{fill:#BDBDBD;}
	.st4{fill:#757575;}
	.st5{fill:none;stroke:#F0F0F0;stroke-miterlimit:10;}
	.st6{fill:#BBBBBB;}
	.st7{fill:none;stroke:#FFFFFF;stroke-miterlimit:10;}
	.st8{display:none;}
	.st9{display:inline;}
	.st10{opacity:0.85;fill:none;stroke:#B77B49;stroke-width:5;stroke-miterlimit:10;}
	.st11{fill:#333333;}
	.st12{clip-path:url(#SVGID_00000096780204816486949090000004475165220355538621_);}
	.st13{clip-path:url(#SVGID_00000029014545699492641050000007739509309400502703_);}
	.st14{clip-path:url(#SVGID_00000023961831857513769470000009478701434931368325_);}
	.st15{clip-path:url(#SVGID_00000172398694217426215210000014804859812635751092_);}
	.st16{clip-path:url(#SVGID_00000073000095750183959400000002027072738327988916_);}
	.st17{clip-path:url(#SVGID_00000102516015725427966900000000797664994764422061_);}
	.st18{clip-path:url(#SVGID_00000145017748434247807590000018208494916611213206_);}
	.st19{clip-path:url(#SVGID_00000054245931103967827060000018094561959881114272_);}
	.st20{clip-path:url(#SVGID_00000019661085643364616370000015410699773049446561_);}
	.st21{clip-path:url(#SVGID_00000183250572096231952280000013063207852654399633_);}
	.st22{clip-path:url(#SVGID_00000165937720787917958110000016296669770035844282_);}
	.st23{clip-path:url(#SVGID_00000145745972081062869200000007804182581147398020_);}
	.st24{fill:#414042;}
	.st25{fill:#606060;}
	.st26{fill:#595757;}
	.st27{fill:none;stroke:#595757;stroke-width:1.5;stroke-linecap:round;stroke-linejoin:round;stroke-miterlimit:10;}
	.st28{fill:#C9CACA;}
	.st29{fill:none;stroke:#C9CACA;stroke-width:1.5;stroke-linecap:round;stroke-linejoin:round;stroke-miterlimit:10;}
	.st30{fill:#EA5504;}
	.st31{fill:none;stroke:#EA5504;stroke-width:1.5;stroke-linecap:round;stroke-linejoin:round;stroke-miterlimit:10;}
	.st32{fill:#00B9EF;}
	.st33{fill:none;stroke:#00B9EF;stroke-width:1.5;stroke-linecap:round;stroke-linejoin:round;stroke-miterlimit:10;}
	.st34{fill:#FFF100;}
	.st35{fill:none;stroke:#FFF100;stroke-width:1.5;stroke-linecap:round;stroke-linejoin:round;stroke-miterlimit:10;}
	.st36{fill:#D0121B;}
	.st37{fill:none;stroke:#D0121B;stroke-width:1.5;stroke-linecap:round;stroke-linejoin:round;stroke-miterlimit:10;}
	.st38{fill:#C9CACA;stroke:#7F7F7F;stroke-width:0.6;stroke-miterlimit:10;}
	.st39{fill:#7F7F7F;}
	.st40{clip-path:url(#SVGID_00000036949094166509174990000001989521666328614282_);}
	.st41{fill:none;stroke:#787878;stroke-width:0.5;stroke-miterlimit:10;}
	.st42{fill:#121D17;}
	.st43{fill:#878787;}
	.st44{display:inline;fill:#606060;}
	.st45{display:inline;fill:#525252;}
	.st46{fill:none;stroke:#0083F1;stroke-width:5;stroke-linecap:round;stroke-linejoin:round;}
	.st47{fill:none;stroke:#0083F1;stroke-width:5;stroke-linecap:round;stroke-linejoin:round;stroke-dasharray:1.0041,20.0813;}
	.st48{fill:#0083F1;}
</style>
<g id="圖層_1">
</g>
<g id="_x30_3" class="st8">
</g>
<g id="圖層_6">
	<g>
		<g>
			<g>
				<path class="st11" d="M21.82,8.74H1.46V6.8h5.51C6.58,5.9,6.08,5,5.5,4.11H2.28V2.17h8.16C10.2,1.68,9.86,1.12,9.4,0.49L11.65,0
					c0.42,0.68,0.83,1.41,1.24,2.17h8.17v1.94H17.4c-0.32,0.81-0.73,1.71-1.24,2.69h5.66V8.74z M18.83,20.75h-2.16v-1.07H6.58v1.07
					H4.43v-10.4h14.4V20.75z M16.67,14.05V12.2H6.58v1.85H16.67z M16.67,17.8v-1.92H6.58v1.92H16.67z M15.09,4.11H7.91
					C8.46,5.04,8.92,5.93,9.29,6.8h4.51C14.38,5.73,14.81,4.83,15.09,4.11z"/>
				<path class="st11" d="M9.31,54.25c-1.78,1.45-4.03,2.67-6.73,3.68l-1.12-1.76c2.53-0.91,4.62-1.99,6.27-3.26L9.31,54.25z
					 M21.84,52.4h-9.07v5.84h-2.12V52.4H1.48v-1.91h9.16v-1.06h2.12v1.06h9.07V52.4z M8.35,40.81c-1.38,2.7-2.78,4.74-4.18,6.12
					c0.7-0.03,1.31-0.11,1.84-0.23c-0.05-0.27-0.14-0.61-0.27-1l1.54-0.49c0.42,1.2,0.75,2.45,0.98,3.75L6.7,49.51
					c-0.03-0.27-0.1-0.66-0.22-1.15C4.73,48.67,3.24,48.86,2,48.94l-0.34-1.61c0.96-0.94,1.84-2.04,2.66-3.32
					c-0.18,0-0.95,0.06-2.29,0.19l-0.3-1.67c1-1.3,1.87-2.96,2.59-4.98l1.94,0.47c-0.53,1.44-1.3,2.85-2.32,4.23
					c0.43-0.02,0.92-0.06,1.47-0.13c0.43-0.71,0.78-1.41,1.05-2.08L8.35,40.81z M14.66,48.94H8.8v-9.42h1.47
					c0.27-0.47,0.55-1.12,0.82-1.94L13.17,38c-0.24,0.58-0.48,1.08-0.72,1.52h2.21V48.94z M12.79,43.31v-1.96h-2.15v1.96H12.79z
					 M12.79,47.12v-2.11h-2.15v2.11H12.79z M21.98,56.23l-1.1,1.76c-1.64-1.09-3.89-2.17-6.76-3.25l1.03-1.72
					C17.79,53.98,20.07,55.05,21.98,56.23z M21.98,48.89l-1.61,0.71c-0.14-0.61-0.22-0.96-0.26-1.05c-1.5,0.23-3.05,0.39-4.67,0.49
					l-0.33-1.58c0.97-0.91,1.89-2.1,2.76-3.55l-2.41,0.26l-0.4-1.55c0.99-1.26,1.86-2.94,2.61-5.02l1.87,0.49
					c-0.49,1.39-1.2,2.76-2.15,4.1c0.37,0,0.89-0.06,1.56-0.19c0.42-0.76,0.73-1.38,0.94-1.87l1.85,0.64
					c-1.07,2.34-2.39,4.44-3.95,6.29c0.61,0,1.18-0.07,1.72-0.22c-0.09-0.27-0.22-0.59-0.4-0.98l1.55-0.7
					C21.26,46.39,21.69,47.64,21.98,48.89z"/>
				<path class="st11" d="M21.82,78.16H4.43v7.71c0,4.39-0.46,7.75-1.38,10.08L1.3,94.64c0.34-0.91,0.61-1.97,0.82-3.18
					c0.2-1.21,0.3-3.08,0.3-5.63v-9.28h8.34c-0.11-0.3-0.32-0.67-0.63-1.12l2.15-0.35c0.29,0.43,0.56,0.92,0.82,1.47h8.72V78.16z
					 M8.97,89.5c-0.29,0.11-0.74,0.23-1.36,0.34v1.18h1.12v1.36H7.61v0.91c0.33-0.06,0.72-0.15,1.19-0.26v1.52
					c-1.16,0.32-2.58,0.59-4.26,0.8l-0.3-1.52l1.7-0.24v-1.21H4.69v-1.36h1.25v-0.84l-0.83,0.07l-0.47-1.45
					c1.58-0.13,2.89-0.36,3.93-0.7L8.97,89.5z M11.72,80.59h-0.63v15.08H9.33v-8.24c-1.83,0.24-3.28,0.39-4.33,0.43l-0.37-1.52
					c0.31,0.03,0.6,0.02,0.86-0.05v-5.71H4.96v-1.52h6.76V80.59z M9.33,81.52v-0.94H7.3v0.94H9.33z M9.33,83.68v-0.89H7.3v0.89H9.33
					z M9.33,85.8v-0.79H7.3v1.12C8.29,86,8.97,85.89,9.33,85.8z M13.8,91.29c-0.15,1.37-0.54,2.74-1.16,4.12l-1.38-0.78
					c0.53-1.16,0.91-2.47,1.13-3.9L13.8,91.29z M21.8,89.28h-9.88v-1.61h9.88V89.28z M21.47,81.36h-3.79v0.98h3.58v4.44h-9.14v-4.44
					h3.67v-0.98h-3.65v-1.63h3.65v-1h1.88v1h3.79V81.36z M14.78,85.36v-1.63h-0.95v1.63H14.78z M19.57,93
					c0,0.46-0.08,0.93-0.23,1.39s-0.38,0.77-0.66,0.92s-0.92,0.22-1.91,0.22c-1.12,0-1.83-0.12-2.14-0.37
					c-0.31-0.24-0.46-0.64-0.46-1.19v-3.23h1.78v2.79c0,0.27,0.29,0.41,0.88,0.41c0.39,0,0.67-0.05,0.83-0.16
					c0.17-0.11,0.27-0.57,0.32-1.39L19.57,93z M18.59,91.82L17,92.4c-0.23-0.65-0.62-1.4-1.19-2.27l1.54-0.56
					C17.83,90.15,18.24,90.9,18.59,91.82z M17.21,85.36v-1.63h-1.03v1.63H17.21z M19.59,85.36v-1.63h-0.98v1.63H19.59z M22.05,94.08
					l-1.54,0.8c-0.32-1.38-0.87-2.83-1.66-4.33l1.52-0.58C21.25,91.57,21.8,92.94,22.05,94.08z"/>
			</g>
		</g>
		<path class="st34" d="M22.3,165.28c-1.86-4.55-5.9-6.93-10.05-7.15v-40.21c0-0.35-0.28-0.63-0.63-0.63S11,117.58,11,117.93v40.21
			c-4.15,0.22-8.19,2.6-10.05,7.15c-1.27,3.11-1.27,6.59,0,9.7l10.68,26.11l10.68-26.11C23.57,171.87,23.57,168.39,22.3,165.28z
			 M11.63,176.26c-3.34,0-6.05-2.71-6.05-6.05c0-3.34,2.71-6.05,6.05-6.05c3.34,0,6.05,2.71,6.05,6.05
			C17.68,173.54,14.97,176.26,11.63,176.26z"/>
	</g>
</g>
<g id="圖層_5">
</g>
<g id="note" class="st8">
</g>
<g id="指示線" class="st8">
</g>
</svg>
