<?xml version="1.0" encoding="utf-8"?>
<!-- Generator: Adobe Illustrator 26.2.1, SVG Export Plug-In . SVG Version: 6.00 Build 0)  -->
<svg version="1.1" xmlns="http://www.w3.org/2000/svg" xmlns:xlink="http://www.w3.org/1999/xlink" x="0px" y="0px"
	 viewBox="0 0 23.26 200.79" style="enable-background:new 0 0 23.26 200.79;" xml:space="preserve">
<style type="text/css">
	.st0{fill:#E0E0E0;}
	.st1{fill:#FFFFFF;}
	.st2{fill:none;stroke:#D4D4D4;stroke-miterlimit:10;}
	.st3{fill:#BDBDBD;}
	.st4{fill:#757575;}
	.st5{fill:none;stroke:#F0F0F0;stroke-miterlimit:10;}
	.st6{fill:#BBBBBB;}
	.st7{fill:none;stroke:#FFFFFF;stroke-miterlimit:10;}
	.st8{display:none;}
	.st9{display:inline;}
	.st10{opacity:0.85;fill:none;stroke:#B77B49;stroke-width:5;stroke-miterlimit:10;}
	.st11{fill:#333333;}
	.st12{clip-path:url(#SVGID_00000169548596643651761410000017346273802626045880_);}
	.st13{clip-path:url(#SVGID_00000173859798684225825000000008422067241204340656_);}
	.st14{clip-path:url(#SVGID_00000119808270771458540830000013337730446309282220_);}
	.st15{clip-path:url(#SVGID_00000146487620064304622300000013822434068031664545_);}
	.st16{clip-path:url(#SVGID_00000017481717915909127230000017923819370550962111_);}
	.st17{clip-path:url(#SVGID_00000132063277173319315580000014084670439933880704_);}
	.st18{clip-path:url(#SVGID_00000123406132605776743350000017542789657637720219_);}
	.st19{clip-path:url(#SVGID_00000092430655766204599680000014847491585986075838_);}
	.st20{clip-path:url(#SVGID_00000116236762355229570390000007246474821067422119_);}
	.st21{clip-path:url(#SVGID_00000047029128510019363030000014054676727041938602_);}
	.st22{clip-path:url(#SVGID_00000011722853967739036160000002954363556008310156_);}
	.st23{clip-path:url(#SVGID_00000042002530143848869470000014564363999910497164_);}
	.st24{fill:#414042;}
	.st25{fill:#606060;}
	.st26{fill:#595757;}
	.st27{fill:none;stroke:#595757;stroke-width:1.5;stroke-linecap:round;stroke-linejoin:round;stroke-miterlimit:10;}
	.st28{fill:#C9CACA;}
	.st29{fill:none;stroke:#C9CACA;stroke-width:1.5;stroke-linecap:round;stroke-linejoin:round;stroke-miterlimit:10;}
	.st30{fill:#EA5504;}
	.st31{fill:none;stroke:#EA5504;stroke-width:1.5;stroke-linecap:round;stroke-linejoin:round;stroke-miterlimit:10;}
	.st32{fill:#00B9EF;}
	.st33{fill:none;stroke:#00B9EF;stroke-width:1.5;stroke-linecap:round;stroke-linejoin:round;stroke-miterlimit:10;}
	.st34{fill:#FFF100;}
	.st35{fill:none;stroke:#FFF100;stroke-width:1.5;stroke-linecap:round;stroke-linejoin:round;stroke-miterlimit:10;}
	.st36{fill:#D0121B;}
	.st37{fill:none;stroke:#D0121B;stroke-width:1.5;stroke-linecap:round;stroke-linejoin:round;stroke-miterlimit:10;}
	.st38{fill:#C9CACA;stroke:#7F7F7F;stroke-width:0.6;stroke-miterlimit:10;}
	.st39{fill:#7F7F7F;}
	.st40{clip-path:url(#SVGID_00000049906236166093917180000012296219502403824042_);}
	.st41{fill:none;stroke:#787878;stroke-width:0.5;stroke-miterlimit:10;}
	.st42{fill:#121D17;}
	.st43{fill:#878787;}
	.st44{display:inline;fill:#606060;}
	.st45{display:inline;fill:#525252;}
	.st46{fill:none;stroke:#0083F1;stroke-width:5;stroke-linecap:round;stroke-linejoin:round;}
	.st47{fill:none;stroke:#0083F1;stroke-width:5;stroke-linecap:round;stroke-linejoin:round;stroke-dasharray:1.0041,20.0813;}
	.st48{fill:#0083F1;}
</style>
<g id="圖層_1">
</g>
<g id="_x30_3" class="st8">
</g>
<g id="圖層_6">
	<g>
		<g>
			<g>
				<path class="st11" d="M7.95,9.87l-1.28,1.4c-0.36-0.99-0.64-1.7-0.84-2.13v11.31H3.91v-9.97c-0.35,1.41-0.87,2.84-1.56,4.3
					L1.3,12.51c1.06-1.95,1.87-4.08,2.41-6.4H1.57V4.14h2.34v-4.1h1.92v4.1h1.45v1.96H5.83v0.23C6.67,7.57,7.38,8.75,7.95,9.87z
					 M16.09,18.47c-3.6,1.01-6.54,1.65-8.81,1.92l-0.42-1.85c0.99-0.11,1.82-0.23,2.5-0.37c-0.08-0.94-0.36-2.14-0.83-3.58
					l1.32-0.74H8.24V8.3h6.71v5.55h-1.47l1.3,0.63c-0.17,0.69-0.46,1.56-0.86,2.61c0.14-0.01,0.86-0.19,2.15-0.54L16.09,18.47z
					 M15.64,3.67h-3.1v1.59h2.57v1.8H7.95v-1.8h2.6V3.67H7.39V1.85h3.16v-1.8h1.99v1.8h3.1V3.67z M13.03,12v-1.92h-2.85V12H13.03z
					 M12.92,13.84h-2.6c0.46,1.53,0.73,2.85,0.8,3.95c0.37-0.08,0.57-0.13,0.6-0.16C12.35,16.1,12.75,14.84,12.92,13.84z
					 M18.5,13.71l-1.83,0.74c-0.25-1.99-0.65-3.94-1.19-5.84l1.7-0.72C17.88,10.28,18.32,12.22,18.5,13.71z M21.89,6.11h-1.05v12.25
					c0,1.37-0.66,2.05-1.99,2.05c-0.75,0-1.25-0.01-1.52-0.02l-0.62-1.96h1.78c0.08,0,0.16-0.05,0.25-0.15
					c0.09-0.1,0.13-0.19,0.13-0.27V6.11h-2.97V4.1h2.97V0h1.96v4.1h1.05V6.11z"/>
				<path class="st11" d="M21.98,41c-0.08,1.64-0.35,2.75-0.81,3.33c-0.46,0.58-1.1,0.89-1.93,0.96s-2.65,0.1-5.44,0.1
					c-1.22,0-2.32-0.01-3.29-0.03c-0.98-0.02-1.63-0.26-1.95-0.71c-0.32-0.45-0.48-1.06-0.48-1.84v-6.83H6.32
					c0,2.69-0.3,4.75-0.91,6.18s-1.51,2.6-2.71,3.52l-1.33-1.62c2-1.5,2.94-4.19,2.83-8.08H1.81v-1.87h9.91v1.87h-1.63v6.85
					c0,0.25,0.1,0.41,0.3,0.49c0.2,0.08,1.8,0.11,4.79,0.11c2.17,0,3.41-0.03,3.72-0.1c0.31-0.07,0.54-0.23,0.7-0.47
					s0.28-1.09,0.38-2.53L21.98,41z M21.4,30.39h-2.08v-2.88H4.15v2.58h6.58v1.84H3.62v-1.54H2.06v-4.75H21.4V30.39z M21.68,33.57
					h-3.05v6.78c0,0.67-0.22,1.19-0.66,1.55s-1.52,0.51-3.25,0.43l-0.74-2.01c0.38-0.01,1.14-0.02,2.27-0.02
					c0.07,0,0.14-0.04,0.21-0.13c0.07-0.09,0.11-0.17,0.11-0.25v-6.36h-4.65V31.7h4.65v-2.61h2.05v2.61h3.05V33.57z M16.11,38.1
					l-1.77,1.07c-0.48-1.1-1.22-2.35-2.23-3.73l1.63-1.13C14.62,35.28,15.41,36.54,16.11,38.1z"/>
				<path class="st11" d="M22,69.21l-1.26,1.69c-4.62-2.94-7.62-6.86-9-11.76c-1.45,4.7-4.49,8.56-9.11,11.58l-1.24-1.81
					c4.77-3.11,7.68-6.92,8.72-11.44H1.88l-0.02-2.1h8.53c0.17-1.64,0.26-3.3,0.29-5h2.1c-0.02,2.03-0.09,3.7-0.21,5h9.14v2.1h-8.47
					C14.38,62.5,17.3,66.41,22,69.21z"/>
				<path class="st11" d="M21.82,78.35H4.43v7.71c0,4.39-0.46,7.75-1.38,10.08L1.3,94.83c0.34-0.91,0.61-1.97,0.82-3.18
					c0.2-1.21,0.3-3.08,0.3-5.63v-9.28h8.34c-0.11-0.3-0.32-0.67-0.63-1.12l2.15-0.35c0.29,0.43,0.56,0.92,0.82,1.47h8.72V78.35z
					 M8.97,89.69c-0.29,0.11-0.74,0.23-1.36,0.34v1.18h1.12v1.36H7.61v0.91c0.33-0.06,0.72-0.15,1.19-0.26v1.52
					c-1.16,0.32-2.58,0.59-4.26,0.8l-0.3-1.52l1.7-0.24v-1.21H4.69v-1.36h1.25v-0.84l-0.83,0.07l-0.47-1.45
					c1.58-0.13,2.89-0.36,3.93-0.7L8.97,89.69z M11.72,80.78h-0.63v15.08H9.33v-8.24C7.5,87.86,6.06,88,5.01,88.05l-0.37-1.52
					c0.31,0.03,0.6,0.02,0.86-0.05v-5.71H4.96v-1.52h6.76V80.78z M9.33,81.72v-0.94H7.3v0.94H9.33z M9.33,83.87v-0.89H7.3v0.89H9.33
					z M9.33,86v-0.79H7.3v1.12C8.29,86.19,8.97,86.08,9.33,86z M13.8,91.49c-0.15,1.37-0.54,2.74-1.16,4.12l-1.38-0.78
					c0.53-1.16,0.91-2.47,1.13-3.9L13.8,91.49z M21.8,89.48h-9.88v-1.61h9.88V89.48z M21.47,81.56h-3.79v0.98h3.58v4.44h-9.14v-4.44
					h3.67v-0.98h-3.65v-1.63h3.65v-1h1.88v1h3.79V81.56z M14.78,85.55v-1.63h-0.95v1.63H14.78z M19.57,93.2
					c0,0.46-0.08,0.93-0.23,1.39s-0.38,0.77-0.66,0.92s-0.92,0.22-1.91,0.22c-1.12,0-1.83-0.12-2.14-0.37
					c-0.31-0.24-0.46-0.64-0.46-1.19v-3.23h1.78v2.79c0,0.27,0.29,0.41,0.88,0.41c0.39,0,0.67-0.05,0.83-0.16
					c0.17-0.11,0.27-0.57,0.32-1.39L19.57,93.2z M18.59,92.01L17,92.59c-0.23-0.65-0.62-1.4-1.19-2.27l1.54-0.56
					C17.83,90.34,18.24,91.09,18.59,92.01z M17.21,85.55v-1.63h-1.03v1.63H17.21z M19.59,85.55v-1.63h-0.98v1.63H19.59z
					 M22.05,94.27l-1.54,0.8c-0.32-1.38-0.87-2.83-1.66-4.33l1.52-0.58C21.24,91.77,21.8,93.14,22.05,94.27z"/>
			</g>
		</g>
		<path class="st26" d="M22.3,164.98c-1.86-4.55-5.9-6.93-10.05-7.15v-40.21c0-0.35-0.28-0.63-0.63-0.63S11,117.28,11,117.63v40.21
			c-4.15,0.22-8.19,2.6-10.05,7.15c-1.27,3.11-1.27,6.59,0,9.7l10.68,26.11l10.67-26.11C23.57,171.57,23.57,168.09,22.3,164.98z
			 M11.63,175.96c-3.34,0-6.05-2.71-6.05-6.05c0-3.34,2.71-6.05,6.05-6.05s6.05,2.71,6.05,6.05
			C17.68,173.25,14.97,175.96,11.63,175.96z"/>
	</g>
</g>
<g id="圖層_5">
</g>
<g id="note" class="st8">
</g>
<g id="指示線" class="st8">
</g>
</svg>
