<?xml version="1.0" encoding="utf-8"?>
<!-- Generator: Adobe Illustrator 26.2.1, SVG Export Plug-In . SVG Version: 6.00 Build 0)  -->
<svg version="1.1" xmlns="http://www.w3.org/2000/svg" xmlns:xlink="http://www.w3.org/1999/xlink" x="0px" y="0px"
	 viewBox="0 0 23.26 200.68" style="enable-background:new 0 0 23.26 200.68;" xml:space="preserve">
<style type="text/css">
	.st0{fill:#E0E0E0;}
	.st1{fill:#FFFFFF;}
	.st2{fill:none;stroke:#D4D4D4;stroke-miterlimit:10;}
	.st3{fill:#BDBDBD;}
	.st4{fill:#757575;}
	.st5{fill:none;stroke:#F0F0F0;stroke-miterlimit:10;}
	.st6{fill:#BBBBBB;}
	.st7{fill:none;stroke:#FFFFFF;stroke-miterlimit:10;}
	.st8{display:none;}
	.st9{display:inline;}
	.st10{opacity:0.85;fill:none;stroke:#B77B49;stroke-width:5;stroke-miterlimit:10;}
	.st11{fill:#333333;}
	.st12{clip-path:url(#SVGID_00000128454813557944377800000014961346384820312220_);}
	.st13{clip-path:url(#SVGID_00000056425980930540219630000010874316113178340746_);}
	.st14{clip-path:url(#SVGID_00000170982595158936204860000000337210233359333765_);}
	.st15{clip-path:url(#SVGID_00000026863857233727077430000000398026932850960521_);}
	.st16{clip-path:url(#SVGID_00000158720616616811885560000005472678689588973719_);}
	.st17{clip-path:url(#SVGID_00000178885009094302242720000015594640424508542103_);}
	.st18{clip-path:url(#SVGID_00000178915836672420526120000018251672991609646212_);}
	.st19{clip-path:url(#SVGID_00000034056222009022735210000013225492292285475974_);}
	.st20{clip-path:url(#SVGID_00000040562168750883084470000013234143025647212172_);}
	.st21{clip-path:url(#SVGID_00000005238598766041330910000013935182067640660376_);}
	.st22{clip-path:url(#SVGID_00000124864635845349517460000006460794165003878800_);}
	.st23{clip-path:url(#SVGID_00000066497322908897040540000012247144541237493421_);}
	.st24{fill:#414042;}
	.st25{fill:#606060;}
	.st26{fill:#595757;}
	.st27{fill:none;stroke:#595757;stroke-width:1.5;stroke-linecap:round;stroke-linejoin:round;stroke-miterlimit:10;}
	.st28{fill:#C9CACA;}
	.st29{fill:none;stroke:#C9CACA;stroke-width:1.5;stroke-linecap:round;stroke-linejoin:round;stroke-miterlimit:10;}
	.st30{fill:#EA5504;}
	.st31{fill:none;stroke:#EA5504;stroke-width:1.5;stroke-linecap:round;stroke-linejoin:round;stroke-miterlimit:10;}
	.st32{fill:#00B9EF;}
	.st33{fill:none;stroke:#00B9EF;stroke-width:1.5;stroke-linecap:round;stroke-linejoin:round;stroke-miterlimit:10;}
	.st34{fill:#FFF100;}
	.st35{fill:none;stroke:#FFF100;stroke-width:1.5;stroke-linecap:round;stroke-linejoin:round;stroke-miterlimit:10;}
	.st36{fill:#D0121B;}
	.st37{fill:none;stroke:#D0121B;stroke-width:1.5;stroke-linecap:round;stroke-linejoin:round;stroke-miterlimit:10;}
	.st38{fill:#C9CACA;stroke:#7F7F7F;stroke-width:0.6;stroke-miterlimit:10;}
	.st39{fill:#7F7F7F;}
	.st40{clip-path:url(#SVGID_00000155847414008346410300000014606875699893427337_);}
	.st41{fill:none;stroke:#787878;stroke-width:0.5;stroke-miterlimit:10;}
	.st42{fill:#121D17;}
	.st43{fill:#878787;}
	.st44{display:inline;fill:#606060;}
	.st45{display:inline;fill:#525252;}
	.st46{fill:none;stroke:#0083F1;stroke-width:5;stroke-linecap:round;stroke-linejoin:round;}
	.st47{fill:none;stroke:#0083F1;stroke-width:5;stroke-linecap:round;stroke-linejoin:round;stroke-dasharray:1.0041,20.0813;}
	.st48{fill:#0083F1;}
</style>
<g id="圖層_1">
</g>
<g id="_x30_3" class="st8">
</g>
<g id="圖層_6">
	<g>
		<g>
			<g>
				<path class="st11" d="M21.87,8.79l-0.02,2.01H11.54c-0.82,0.94-1.53,1.66-2.11,2.15v4.95c1.64-0.3,3.17-0.68,4.59-1.14v2.17
					c-2.2,0.69-4.44,1.21-6.73,1.55l-0.63-1.89c0.43-0.3,0.65-0.73,0.65-1.29v-2.66c-1.61,1.09-3.29,1.97-5.04,2.64l-1.07-2.05
					c3.16-1.04,5.64-2.51,7.45-4.42H1.46V8.79h9.21V7.12h-7.6V5.23h7.6V3.57H2.04V1.61h8.63V0h2.17v1.61h8.51v1.96h-8.51v1.66h7.51
					v1.89h-7.51v1.67H21.87z M22.17,18.63L21,20.61c-2.44-0.85-4.35-1.96-5.72-3.32c-1.37-1.36-2.45-3.19-3.23-5.49l2.12-0.31
					c0.49,1.23,1,2.22,1.54,2.97c1.35-0.8,2.52-1.77,3.52-2.92l1.88,1.2c-1.14,1.25-2.46,2.38-3.95,3.39
					C18.4,17.21,20.07,18.05,22.17,18.63z"/>
				<path class="st11" d="M6.14,50.27c-0.86,3.17-1.85,5.75-2.97,7.74l-1.8-1.52c1.21-2.08,2.21-4.57,3.01-7.49L6.14,50.27z
					 M6.58,46.44l-1.55,1.63c-0.96-1.15-2.16-2.22-3.59-3.22l1.43-1.54C4.26,44.19,5.5,45.23,6.58,46.44z M6.34,40.83l-1.77,1.28
					c-0.59-1.05-1.5-2.2-2.72-3.44l1.72-1.36C4.65,38.37,5.57,39.54,6.34,40.83z M12.45,55.54c-1.26,0.94-3.1,1.75-5.52,2.43
					l-1.3-1.89c2.12-0.43,3.93-1.12,5.44-2.05L12.45,55.54z M21.56,42.7h-2.03v-1.77H8.77v1.77H6.7v-3.66h6.24
					c-0.04-0.19-0.19-0.58-0.45-1.18l2.17-0.56c0.27,0.68,0.45,1.26,0.51,1.74h6.38V42.7z M20.84,53.78H7.5v-8.3h5.65v-1.45H9.57
					v-1.8h9.19v1.8h-3.61v1.45h5.68V53.78z M13.15,48.64v-1.4H9.5v1.4H13.15z M13.15,51.97v-1.61H9.5v1.61H13.15z M18.81,48.64v-1.4
					h-3.65v1.4H18.81z M18.81,51.97v-1.61h-3.65v1.61H18.81z M22.1,56.3l-1.15,1.78c-1.88-1.03-3.74-1.81-5.58-2.36l1.3-1.63
					C18.78,54.76,20.59,55.5,22.1,56.3z"/>
				<path class="st11" d="M21.82,77.76H4.43v7.71c0,4.39-0.46,7.75-1.38,10.08L1.3,94.24c0.34-0.91,0.61-1.97,0.82-3.18
					c0.2-1.21,0.3-3.08,0.3-5.63v-9.28h8.34c-0.11-0.3-0.32-0.67-0.63-1.12l2.15-0.35c0.29,0.43,0.56,0.92,0.82,1.47h8.72V77.76z
					 M8.97,89.1c-0.29,0.11-0.74,0.23-1.36,0.34v1.18h1.12v1.36H7.61v0.91c0.33-0.06,0.72-0.15,1.19-0.26v1.52
					c-1.16,0.32-2.58,0.59-4.26,0.8l-0.3-1.52l1.7-0.24v-1.21H4.69v-1.36h1.25v-0.84l-0.83,0.07l-0.47-1.45
					c1.58-0.13,2.89-0.36,3.93-0.7L8.97,89.1z M11.72,80.19h-0.63v15.08H9.33v-8.24c-1.83,0.24-3.28,0.39-4.33,0.43l-0.37-1.52
					c0.31,0.03,0.6,0.02,0.86-0.05v-5.71H4.96v-1.52h6.76V80.19z M9.33,81.12v-0.94H7.3v0.94H9.33z M9.33,83.28v-0.89H7.3v0.89H9.33
					z M9.33,85.4v-0.79H7.3v1.12C8.29,85.6,8.97,85.49,9.33,85.4z M13.8,90.89c-0.15,1.37-0.54,2.74-1.16,4.12l-1.38-0.78
					c0.53-1.16,0.91-2.47,1.13-3.9L13.8,90.89z M21.8,88.88h-9.88v-1.61h9.88V88.88z M21.47,80.96h-3.79v0.98h3.58v4.44h-9.14v-4.44
					h3.67v-0.98h-3.65v-1.63h3.65v-1h1.88v1h3.79V80.96z M14.78,84.96v-1.63h-0.95v1.63H14.78z M19.57,92.6
					c0,0.46-0.08,0.93-0.23,1.39s-0.38,0.77-0.66,0.92s-0.92,0.22-1.91,0.22c-1.12,0-1.83-0.12-2.14-0.37
					c-0.31-0.24-0.46-0.64-0.46-1.19v-3.23h1.78v2.79c0,0.27,0.29,0.41,0.88,0.41c0.39,0,0.67-0.05,0.83-0.16
					c0.17-0.11,0.27-0.57,0.32-1.39L19.57,92.6z M18.59,91.42L17,92c-0.23-0.65-0.62-1.4-1.19-2.27l1.54-0.56
					C17.83,89.75,18.24,90.5,18.59,91.42z M17.21,84.96v-1.63h-1.03v1.63H17.21z M19.59,84.96v-1.63h-0.98v1.63H19.59z M22.05,93.68
					l-1.54,0.8c-0.32-1.38-0.87-2.83-1.66-4.33l1.52-0.58C21.25,91.17,21.8,92.54,22.05,93.68z"/>
			</g>
		</g>
		<path class="st30" d="M22.3,164.88c-1.86-4.55-5.9-6.93-10.05-7.15v-40.21c0-0.35-0.28-0.63-0.63-0.63S11,117.18,11,117.53v40.21
			c-4.15,0.22-8.19,2.6-10.05,7.15c-1.27,3.11-1.27,6.59,0,9.7l10.68,26.11l10.67-26.11C23.57,171.47,23.57,167.99,22.3,164.88z
			 M11.63,175.86c-3.34,0-6.05-2.71-6.05-6.05c0-3.34,2.71-6.05,6.05-6.05s6.05,2.71,6.05,6.05
			C17.68,173.15,14.97,175.86,11.63,175.86z"/>
	</g>
</g>
<g id="圖層_5">
</g>
<g id="note" class="st8">
</g>
<g id="指示線" class="st8">
</g>
</svg>
