<?xml version="1.0" encoding="utf-8"?>
<!-- Generator: Adobe Illustrator 26.2.1, SVG Export Plug-In . SVG Version: 6.00 Build 0)  -->
<svg version="1.1" xmlns="http://www.w3.org/2000/svg" xmlns:xlink="http://www.w3.org/1999/xlink" x="0px" y="0px"
	 viewBox="0 0 24.01 201.87" style="enable-background:new 0 0 24.01 201.87;" xml:space="preserve">
<style type="text/css">
	.st0{fill:#E0E0E0;}
	.st1{fill:#FFFFFF;}
	.st2{fill:none;stroke:#D4D4D4;stroke-miterlimit:10;}
	.st3{fill:#BDBDBD;}
	.st4{fill:#757575;}
	.st5{fill:none;stroke:#F0F0F0;stroke-miterlimit:10;}
	.st6{fill:#BBBBBB;}
	.st7{fill:none;stroke:#FFFFFF;stroke-miterlimit:10;}
	.st8{display:none;}
	.st9{display:inline;}
	.st10{opacity:0.85;fill:none;stroke:#B77B49;stroke-width:5;stroke-miterlimit:10;}
	.st11{fill:#333333;}
	.st12{clip-path:url(#SVGID_00000139283398860338039420000011212564109880703928_);}
	.st13{clip-path:url(#SVGID_00000133512657095557070690000013623874436282573993_);}
	.st14{clip-path:url(#SVGID_00000178897494320325140580000006208638212930112701_);}
	.st15{clip-path:url(#SVGID_00000090292600200045012920000004987923404363963546_);}
	.st16{clip-path:url(#SVGID_00000065039774576708916490000014284701735419713416_);}
	.st17{clip-path:url(#SVGID_00000085942485075650082050000005375376781415697319_);}
	.st18{clip-path:url(#SVGID_00000008843278780713042970000000520056771067863191_);}
	.st19{clip-path:url(#SVGID_00000007395413441000579280000007273523785788180149_);}
	.st20{clip-path:url(#SVGID_00000114072039733305721080000013428167152467132042_);}
	.st21{clip-path:url(#SVGID_00000028313848215368371090000006667172723500089479_);}
	.st22{clip-path:url(#SVGID_00000085220205311319867160000015868120079235447478_);}
	.st23{clip-path:url(#SVGID_00000165914259756604078250000011247265424054068878_);}
	.st24{fill:#414042;}
	.st25{fill:#606060;}
	.st26{fill:#595757;}
	.st27{fill:none;stroke:#595757;stroke-width:1.5;stroke-linecap:round;stroke-linejoin:round;stroke-miterlimit:10;}
	.st28{fill:#C9CACA;}
	.st29{fill:none;stroke:#C9CACA;stroke-width:1.5;stroke-linecap:round;stroke-linejoin:round;stroke-miterlimit:10;}
	.st30{fill:#EA5504;}
	.st31{fill:none;stroke:#EA5504;stroke-width:1.5;stroke-linecap:round;stroke-linejoin:round;stroke-miterlimit:10;}
	.st32{fill:#00B9EF;}
	.st33{fill:none;stroke:#00B9EF;stroke-width:1.5;stroke-linecap:round;stroke-linejoin:round;stroke-miterlimit:10;}
	.st34{fill:#FFF100;}
	.st35{fill:none;stroke:#FFF100;stroke-width:1.5;stroke-linecap:round;stroke-linejoin:round;stroke-miterlimit:10;}
	.st36{fill:#D0121B;}
	.st37{fill:none;stroke:#D0121B;stroke-width:1.5;stroke-linecap:round;stroke-linejoin:round;stroke-miterlimit:10;}
	.st38{fill:#C9CACA;stroke:#7F7F7F;stroke-width:0.6;stroke-miterlimit:10;}
	.st39{fill:#7F7F7F;}
	.st40{clip-path:url(#SVGID_00000012460901409376862770000001288412626651372982_);}
	.st41{fill:none;stroke:#787878;stroke-width:0.5;stroke-miterlimit:10;}
	.st42{fill:#121D17;}
	.st43{fill:#878787;}
	.st44{display:inline;fill:#606060;}
	.st45{display:inline;fill:#525252;}
	.st46{fill:none;stroke:#0083F1;stroke-width:5;stroke-linecap:round;stroke-linejoin:round;}
	.st47{fill:none;stroke:#0083F1;stroke-width:5;stroke-linecap:round;stroke-linejoin:round;stroke-dasharray:1.0041,20.0813;}
	.st48{fill:#0083F1;}
</style>
<g id="圖層_1">
</g>
<g id="_x30_3" class="st8">
</g>
<g id="圖層_6">
	<g>
		<g>
			<g>
				<path class="st11" d="M9.19,10.03l-1.47,1.45c-0.37-0.78-0.68-1.35-0.94-1.71v10.85H4.8v-9.92c-0.53,1.48-1.18,2.8-1.96,3.97
					l-1.1-2.33c1.25-1.8,2.15-3.89,2.71-6.29H1.92V4.17H4.8V0.19h1.99v3.97h2.03v1.89H6.79v0.39C7.75,7.66,8.56,8.85,9.19,10.03z
					 M22.5,13.05l-1.04,1.78c-0.4-0.21-0.81-0.46-1.23-0.75v6.52h-2.1v-1.14h-5.26v1.14h-2.08v-6.68c-0.8,0.51-1.27,0.81-1.4,0.89
					l-1.13-1.71c1.36-0.74,2.7-1.75,4.02-3.04c1.32-1.29,2.23-2.56,2.74-3.83l1.8,0.89c-0.04,0.15-0.16,0.37-0.35,0.67
					C17.89,9.74,19.9,11.49,22.5,13.05z M14.83,4.86C13.74,6.52,12.31,8,10.53,9.3L8.99,7.88c1.69-1.1,3.08-2.46,4.18-4.06
					L14.83,4.86z M21.75,5.38h-2.03V3.41h-8.27v1.96H9.46V1.56h4.84c-0.05-0.29-0.18-0.68-0.4-1.17L16.02,0
					c0.21,0.46,0.38,0.98,0.51,1.56h5.22V5.38z M18.31,12.65c-0.9-0.74-1.87-1.8-2.92-3.17c-0.69,0.98-1.69,2.04-2.99,3.17H18.31z
					 M18.13,17.46v-2.83h-5.26v2.83H18.13z M22.01,8.3l-1.6,1.33c-1.1-1.61-2.49-3.2-4.18-4.75l1.61-1.12
					C19.53,5.35,20.92,6.86,22.01,8.3z"/>
				<path class="st11" d="M8.33,35.09l-1.28,1.4c-0.36-0.99-0.64-1.7-0.84-2.13v11.31H4.29V35.7C3.94,37.1,3.42,38.54,2.72,40
					l-1.05-2.27c1.06-1.95,1.87-4.08,2.41-6.4H1.95v-1.96h2.34v-4.1H6.2v4.1h1.45v1.96H6.2v0.23C7.05,32.79,7.76,33.96,8.33,35.09z
					 M16.46,43.69c-3.6,1.01-6.54,1.65-8.81,1.92l-0.42-1.85c0.99-0.11,1.82-0.23,2.5-0.37c-0.08-0.94-0.36-2.14-0.83-3.58
					l1.32-0.74H8.61v-5.55h6.71v5.55h-1.47l1.3,0.63c-0.17,0.69-0.46,1.56-0.86,2.61c0.14-0.01,0.86-0.19,2.15-0.54L16.46,43.69z
					 M16.02,28.89h-3.1v1.59h2.57v1.8H8.33v-1.8h2.6v-1.59H7.77v-1.83h3.16v-1.8h1.99v1.8h3.1V28.89z M13.41,37.21V35.3h-2.85v1.92
					H13.41z M13.29,39.06h-2.6c0.46,1.53,0.73,2.85,0.8,3.95c0.37-0.08,0.57-0.13,0.6-0.16C12.73,41.32,13.12,40.06,13.29,39.06z
					 M18.87,38.93l-1.83,0.74c-0.25-1.99-0.65-3.94-1.19-5.84l1.7-0.72C18.25,35.49,18.69,37.43,18.87,38.93z M22.26,31.32h-1.05
					v12.25c0,1.37-0.66,2.05-1.99,2.05c-0.75,0-1.25-0.01-1.52-0.02l-0.62-1.96h1.78c0.08,0,0.16-0.05,0.25-0.15
					c0.09-0.1,0.13-0.19,0.13-0.27V31.32h-2.97v-2.01h2.97v-4.1h1.96v4.1h1.05V31.32z"/>
				<path class="st11" d="M22.33,60.98H5.18c-0.05,4.57-0.64,7.84-1.78,9.84L1.81,69.3c0.59-1.21,0.97-2.46,1.14-3.74
					c0.16-1.28,0.25-2.9,0.25-4.86v-9.05h7.99c-0.17-0.46-0.37-0.84-0.58-1.14l2.34-0.42c0.39,0.78,0.63,1.3,0.72,1.56h8.63v1.78
					H5.15v5.82h17.18V60.98z M12.68,69.7c-2.75,0.66-5.08,1.09-6.96,1.29l-0.84-1.78c2.41-0.19,4.7-0.55,6.87-1.07L12.68,69.7z
					 M21.73,56.23h-2.69v2.25H8.92v-2.25H5.85v-1.52h3.07v-0.74h1.94v0.74h6.19v-0.74h1.99v0.74h2.69V56.23z M21,67.96H7v-6.22H21
					V67.96z M13.05,64.17v-0.98H8.94v0.98H13.05z M13.05,66.48v-0.94H8.94v0.94H13.05z M17.05,57.01v-0.78h-6.19v0.78H17.05z
					 M22.24,69.43l-0.82,1.7c-2.35-0.66-4.57-1.13-6.65-1.4l0.79-1.59C17.92,68.41,20.15,68.83,22.24,69.43z M19.09,64.17v-0.98
					h-4.12v0.98H19.09z M19.09,66.48v-0.94h-4.12v0.94H19.09z"/>
				<path class="st11" d="M8.33,82.65H6.36v4.95c0.29-0.16,0.81-0.49,1.55-1l0.32,2.01c-2.75,1.84-4.7,3.01-5.87,3.51l-0.65-1.87
					c1.23-0.57,2.13-1.04,2.68-1.4v-6.2H2.14v-1.87H4.4V75.6h1.96v5.18h1.96V82.65z M22.26,86.35h-8.46
					c-0.34,0.52-0.62,0.91-0.82,1.16h8.81c-0.06,1.7-0.15,3.26-0.26,4.68c-0.11,1.42-0.22,2.25-0.33,2.52
					c-0.11,0.26-0.29,0.5-0.54,0.71s-0.59,0.36-1.02,0.45c-0.43,0.09-1.36,0.13-2.8,0.13l-0.65-1.87c0.42,0.03,0.84,0.05,1.28,0.05
					c0.97,0.01,1.57-0.12,1.78-0.38c0.21-0.26,0.37-1.78,0.47-4.58h-0.63c-1.17,2.84-3.42,5.11-6.73,6.8l-1.45-1.36
					c2.95-1.36,5.01-3.18,6.19-5.44h-1.47c-1.48,2.08-3.87,3.87-7.19,5.35l-1.33-1.45c2.91-1.19,5-2.49,6.27-3.9h-2.01
					c-0.91,0.78-1.76,1.42-2.56,1.92l-1.32-1.43c1.74-0.97,3.13-2.09,4.15-3.37H7.96v-1.71h14.3V86.35z M21.08,83.45H9.24v-7.53
					h11.84V83.45z M19.09,78.89v-1.21h-7.86v1.21H19.09z M19.09,81.74v-1.23h-7.86v1.23H19.09z"/>
			</g>
		</g>
		<g>
			<path class="st28" d="M1.67,174.63c-1.24-3.04-1.24-6.38,0-9.41c1.68-4.1,5.31-6.68,9.72-6.91l0.36-0.02v-40.57
				c0-0.14,0.11-0.25,0.25-0.25s0.25,0.11,0.25,0.25v40.57l0.36,0.02c4.41,0.23,8.04,2.82,9.72,6.91c1.24,3.03,1.24,6.38,0,9.41
				L12,199.89L1.67,174.63z M12,163.57c-3.54,0-6.43,2.88-6.43,6.43s2.88,6.43,6.43,6.43c3.54,0,6.43-2.88,6.43-6.43
				S15.55,163.57,12,163.57z"/>
			<path class="st39" d="M12,158.65l0.59,0.03c4.26,0.22,7.77,2.72,9.39,6.68c1.2,2.94,1.2,6.18,0,9.13L12,198.9l-9.98-24.41
				c-1.2-2.94-1.2-6.18,0-9.13c1.62-3.96,5.13-6.46,9.39-6.68L12,158.65 M12,176.8c3.75,0,6.8-3.05,6.8-6.8s-3.05-6.8-6.8-6.8
				s-6.8,3.05-6.8,6.8S8.25,176.8,12,176.8 M12,117.09c-0.35,0-0.63,0.28-0.63,0.63v40.21c-4.15,0.22-8.19,2.6-10.05,7.15
				c-1.27,3.11-1.27,6.59,0,9.7L12,200.88l10.68-26.11c1.27-3.11,1.27-6.59,0-9.7c-1.86-4.55-5.9-6.93-10.05-7.15v-40.21
				C12.63,117.38,12.35,117.09,12,117.09L12,117.09z M12,176.05c-3.34,0-6.05-2.71-6.05-6.05c0-3.34,2.71-6.05,6.05-6.05
				s6.05,2.71,6.05,6.05C18.06,173.34,15.35,176.05,12,176.05L12,176.05z"/>
		</g>
	</g>
</g>
<g id="圖層_5">
</g>
<g id="note" class="st8">
</g>
<g id="指示線" class="st8">
</g>
</svg>
