<?xml version="1.0" encoding="utf-8"?>
<!-- Generator: Adobe Illustrator 26.2.1, SVG Export Plug-In . SVG Version: 6.00 Build 0)  -->
<svg version="1.1" xmlns="http://www.w3.org/2000/svg" xmlns:xlink="http://www.w3.org/1999/xlink" x="0px" y="0px"
	 viewBox="0 0 23.26 200.74" style="enable-background:new 0 0 23.26 200.74;" xml:space="preserve">
<style type="text/css">
	.st0{fill:#E0E0E0;}
	.st1{fill:#FFFFFF;}
	.st2{fill:none;stroke:#D4D4D4;stroke-miterlimit:10;}
	.st3{fill:#BDBDBD;}
	.st4{fill:#757575;}
	.st5{fill:none;stroke:#F0F0F0;stroke-miterlimit:10;}
	.st6{fill:#BBBBBB;}
	.st7{fill:none;stroke:#FFFFFF;stroke-miterlimit:10;}
	.st8{display:none;}
	.st9{display:inline;}
	.st10{opacity:0.85;fill:none;stroke:#B77B49;stroke-width:5;stroke-miterlimit:10;}
	.st11{fill:#333333;}
	.st12{clip-path:url(#SVGID_00000026879655489483744490000003737884444112328369_);}
	.st13{clip-path:url(#SVGID_00000081632379754655262430000014253245225013808262_);}
	.st14{clip-path:url(#SVGID_00000183948177414419709390000008492034349072171185_);}
	.st15{clip-path:url(#SVGID_00000165225292737435244780000017066471736865194416_);}
	.st16{clip-path:url(#SVGID_00000108276252373518472260000011889661826756966806_);}
	.st17{clip-path:url(#SVGID_00000091728930013420006790000002281169337563745725_);}
	.st18{clip-path:url(#SVGID_00000010309019877701361350000011311637870282470327_);}
	.st19{clip-path:url(#SVGID_00000147909835979777177180000014847549327080252602_);}
	.st20{clip-path:url(#SVGID_00000041291800422466172240000017401488624308455344_);}
	.st21{clip-path:url(#SVGID_00000103959675689721171320000005758685532926186416_);}
	.st22{clip-path:url(#SVGID_00000060027408481867776900000005077726851691942572_);}
	.st23{clip-path:url(#SVGID_00000033354765506904018900000015297346808710949005_);}
	.st24{fill:#414042;}
	.st25{fill:#606060;}
	.st26{fill:#595757;}
	.st27{fill:none;stroke:#595757;stroke-width:1.5;stroke-linecap:round;stroke-linejoin:round;stroke-miterlimit:10;}
	.st28{fill:#C9CACA;}
	.st29{fill:none;stroke:#C9CACA;stroke-width:1.5;stroke-linecap:round;stroke-linejoin:round;stroke-miterlimit:10;}
	.st30{fill:#EA5504;}
	.st31{fill:none;stroke:#EA5504;stroke-width:1.5;stroke-linecap:round;stroke-linejoin:round;stroke-miterlimit:10;}
	.st32{fill:#00B9EF;}
	.st33{fill:none;stroke:#00B9EF;stroke-width:1.5;stroke-linecap:round;stroke-linejoin:round;stroke-miterlimit:10;}
	.st34{fill:#FFF100;}
	.st35{fill:none;stroke:#FFF100;stroke-width:1.5;stroke-linecap:round;stroke-linejoin:round;stroke-miterlimit:10;}
	.st36{fill:#D0121B;}
	.st37{fill:none;stroke:#D0121B;stroke-width:1.5;stroke-linecap:round;stroke-linejoin:round;stroke-miterlimit:10;}
	.st38{fill:#C9CACA;stroke:#7F7F7F;stroke-width:0.6;stroke-miterlimit:10;}
	.st39{fill:#7F7F7F;}
	.st40{clip-path:url(#SVGID_00000138552322433890865430000007099113777204460467_);}
	.st41{fill:none;stroke:#787878;stroke-width:0.5;stroke-miterlimit:10;}
	.st42{fill:#121D17;}
	.st43{fill:#878787;}
	.st44{display:inline;fill:#606060;}
	.st45{display:inline;fill:#525252;}
	.st46{fill:none;stroke:#0083F1;stroke-width:5;stroke-linecap:round;stroke-linejoin:round;}
	.st47{fill:none;stroke:#0083F1;stroke-width:5;stroke-linecap:round;stroke-linejoin:round;stroke-dasharray:1.0041,20.0813;}
	.st48{fill:#0083F1;}
</style>
<g id="圖層_1">
</g>
<g id="_x30_3" class="st8">
</g>
<g id="圖層_6">
	<g>
		<g>
			<g>
				<path class="st11" d="M13.99,3.21c-0.16,1.07-0.39,2.19-0.68,3.34L11.3,6.17c0.19-0.54,0.31-0.98,0.35-1.31H8.73v0.91l1.96-0.16
					l0.05,1.33L8.73,7.11v0.24c0,0.27,0.13,0.41,0.38,0.41h3.71v1.43H8.17c-0.33,0-0.63-0.11-0.9-0.34S6.88,8.32,6.88,7.93V7.22
					L5.29,7.35L5.22,5.99l1.66-0.11V4.86H4.76v7.16c0,3.52-0.6,6.41-1.8,8.67l-1.47-1.61c0.8-1.86,1.2-4.15,1.2-6.87v-9h3.99V0.06
					h2.03v0.7h4.6v1.54h-4.6v0.91H13.99z M13.99,18.66c-2.77,0.69-5.87,1.27-9.3,1.72L4.4,18.73c0.58-0.06,1.41-0.18,2.5-0.35
					c-0.1-0.5-0.31-1.07-0.63-1.72l1.36-0.64H5.67v-3.69h7.71v3.69h-2.16l1.27,0.59c-0.08,0.25-0.22,0.5-0.4,0.74
					c0.65-0.11,1.26-0.24,1.85-0.4L13.99,18.66z M13.85,11.48H5.32V9.94h8.54V11.48z M11.45,14.61v-0.88H7.61v0.88H11.45z
					 M10.71,16.01H8.12c0.22,0.49,0.44,1.17,0.67,2.02c0.16-0.02,0.47-0.08,0.94-0.17C10.09,17.37,10.42,16.76,10.71,16.01z
					 M22.26,16.25c-0.35,2.79-1.18,4.19-2.49,4.19c-0.79,0-1.6-0.67-2.42-2.02c-0.53,0.72-1.11,1.41-1.73,2.07l-1.68-1.11
					c0.91-0.97,1.73-2.02,2.48-3.15c-0.43-1.97-0.71-4.48-0.84-7.53L13.8,8.96L13.59,7l1.92-0.33C15.4,3.79,15.35,1.57,15.35,0
					l2.05,0.03c0,2.92,0.03,5.03,0.09,6.31l4.19-0.66l0.16,1.94l-4.21,0.71c0.01,1.25,0.14,2.88,0.38,4.91
					c0.51-1.01,1.05-2.51,1.61-4.5l1.92,0.49c-0.65,2.56-1.61,4.96-2.88,7.2c0.55,1.1,0.91,1.64,1.07,1.64c0.14,0,0.29-0.3,0.42-0.9
					c0.14-0.6,0.23-1.21,0.29-1.82L22.26,16.25z M21.77,4.1l-1.71,0.98c-0.4-0.96-1.08-2.02-2.03-3.18l1.64-0.96
					C20.51,1.87,21.21,2.93,21.77,4.1z"/>
				<path class="st11" d="M14.84,40.72c-0.26,1.76-0.5,3.01-0.73,3.77l-1.78-0.33c0.24-0.9,0.38-1.5,0.42-1.79H9.08v0.83l2.73-0.25
					l0.12,1.5l-2.85,0.21v0.22c0,0.33,0.13,0.49,0.4,0.49h4.35v1.61H8.4c-0.28,0-0.55-0.16-0.8-0.47c-0.25-0.31-0.38-0.6-0.38-0.87
					v-0.79l-2.2,0.18l-0.11-1.5l2.32-0.18v-0.98H4.43v7.76c0,3.06-0.5,5.62-1.5,7.68l-1.61-1.32c0.78-1.56,1.16-3.49,1.16-5.8v-9.96
					h4.59v-3.28h2.01v0.73h4.75v1.54H9.08v1H14.84z M15.46,55.12l-0.98,1.59c-0.71-0.65-1.5-1.28-2.36-1.87
					c-0.04,0.93-0.24,1.67-0.59,2.22s-1.11,0.83-2.25,0.83c-0.27,0-0.58-0.02-0.92-0.06l-0.49-1.68c-1.1,0.55-2,0.93-2.68,1.12
					l-0.8-1.28c2.46-0.86,4.36-1.84,5.71-2.94c-0.04-0.14-0.1-0.34-0.19-0.62c-1.42,1-2.92,1.8-4.49,2.41l-0.76-1.28
					c1.73-0.56,3.23-1.32,4.51-2.29C9,51.14,8.86,51.01,8.73,50.89c-1.11,0.59-2.2,1.11-3.25,1.54L4.69,51
					c1.41-0.44,2.67-0.99,3.79-1.63H5.03v-1.61h9.9v1.61h-4.21c-0.26,0.25-0.45,0.41-0.56,0.49c0.51,0.46,0.92,0.95,1.24,1.47
					c0.68-0.25,1.45-0.71,2.31-1.38l1.17,1.38c-1,0.66-1.99,1.2-2.94,1.61C13.28,53.62,14.46,54.35,15.46,55.12z M10.16,54.72
					c-0.78,0.59-1.45,1.02-2.03,1.31c0.31,0.03,0.6,0.05,0.87,0.05c0.57,0,0.93-0.12,1.07-0.35C10.2,55.49,10.23,55.16,10.16,54.72z
					 M17.76,53.54h-1.94V39.07h1.94V53.54z M21.33,55.87c0,0.4-0.11,0.76-0.34,1.08c-0.22,0.32-0.52,0.54-0.89,0.66
					c-0.37,0.12-1.06,0.19-2.07,0.19c-0.37,0-0.72-0.01-1.07-0.03l-0.78-2.03c0.66,0.07,1.26,0.1,1.8,0.1
					c0.64,0,1.03-0.04,1.16-0.12c0.13-0.08,0.2-0.23,0.2-0.45V37.5h1.99V55.87z"/>
				<path class="st11" d="M6.92,82.14c1.25,1.84,1.87,3.52,1.87,5.04c0,1-0.21,1.77-0.63,2.33c-0.42,0.56-1.26,0.83-2.53,0.83
					c-0.2,0-0.4-0.01-0.61-0.02l-0.58-1.99c0.26,0.04,0.51,0.06,0.76,0.06c0.72,0,1.15-0.09,1.31-0.27
					c0.16-0.18,0.24-0.42,0.24-0.72c0-1.64-0.67-3.29-2.01-4.95c0.71-1.79,1.27-3.55,1.7-5.28H4.2v18.07H2.17V75.18h6.38v1.89
					C8.06,78.86,7.52,80.55,6.92,82.14z M21.98,90.7c0,1.83-0.23,3.02-0.68,3.6c-0.45,0.57-1.34,0.86-2.67,0.86
					c-0.97,0-1.64-0.15-2.01-0.44c-0.37-0.29-0.56-0.8-0.56-1.54v-6.24h-1.99c0,4.12-1.9,6.96-5.71,8.51L7.1,93.73
					c3.3-1.25,4.95-3.25,4.95-6c0-0.26-0.02-0.53-0.05-0.8H9.31v-1.94h12.33v1.94h-3.49v5.8c0,0.27,0.14,0.4,0.42,0.4
					c0.64,0,1.03-0.12,1.18-0.35c0.15-0.23,0.22-1.12,0.22-2.67L21.98,90.7z M21.44,81.93h-2.01v-2.88h-8.07v2.88H9.36v-4.88h4.82
					c-0.08-0.42-0.37-1.07-0.87-1.96l2.13-0.33c0.34,0.6,0.65,1.37,0.94,2.29h5.07V81.93z M18.76,82.96h-6.69v-1.99h6.69V82.96z"/>
			</g>
		</g>
		<path class="st32" d="M22.3,164.94c-1.86-4.55-5.9-6.93-10.05-7.15v-40.21c0-0.35-0.28-0.63-0.63-0.63S11,117.24,11,117.58v40.21
			c-4.15,0.22-8.19,2.6-10.05,7.15h0c-1.27,3.11-1.27,6.59,0,9.7l10.68,26.11l10.67-26.11C23.57,171.53,23.57,168.05,22.3,164.94z
			 M11.63,175.91c-3.34,0-6.05-2.71-6.05-6.05c0-3.34,2.71-6.05,6.05-6.05c3.34,0,6.05,2.71,6.05,6.05
			C17.68,173.2,14.97,175.91,11.63,175.91z"/>
	</g>
</g>
<g id="圖層_5">
</g>
<g id="note" class="st8">
</g>
<g id="指示線" class="st8">
</g>
</svg>
