<?xml version="1.0" encoding="utf-8"?>
<!-- Generator: Adobe Illustrator 26.2.1, SVG Export Plug-In . SVG Version: 6.00 Build 0)  -->
<svg version="1.1" xmlns="http://www.w3.org/2000/svg" xmlns:xlink="http://www.w3.org/1999/xlink" x="0px" y="0px"
	 viewBox="0 0 23.26 200.97" style="enable-background:new 0 0 23.26 200.97;" xml:space="preserve">
<style type="text/css">
	.st0{fill:#E0E0E0;}
	.st1{fill:#FFFFFF;}
	.st2{fill:none;stroke:#D4D4D4;stroke-miterlimit:10;}
	.st3{fill:#BDBDBD;}
	.st4{fill:#757575;}
	.st5{fill:none;stroke:#F0F0F0;stroke-miterlimit:10;}
	.st6{fill:#BBBBBB;}
	.st7{fill:none;stroke:#FFFFFF;stroke-miterlimit:10;}
	.st8{display:none;}
	.st9{display:inline;}
	.st10{opacity:0.85;fill:none;stroke:#B77B49;stroke-width:5;stroke-miterlimit:10;}
	.st11{fill:#333333;}
	.st12{clip-path:url(#SVGID_00000121259719144044664460000013378789551397189302_);}
	.st13{clip-path:url(#SVGID_00000139256543979371688820000003925715559851854721_);}
	.st14{clip-path:url(#SVGID_00000095319455997344706250000004422176303622709692_);}
	.st15{clip-path:url(#SVGID_00000164502394857103493550000004795772002382996609_);}
	.st16{clip-path:url(#SVGID_00000139988422477793686910000001756816935102319263_);}
	.st17{clip-path:url(#SVGID_00000034799612779194506970000013357481338831811500_);}
	.st18{clip-path:url(#SVGID_00000148663285314057948350000009786908393020737931_);}
	.st19{clip-path:url(#SVGID_00000031889951931698939590000010284870119501796273_);}
	.st20{clip-path:url(#SVGID_00000102525071884374534040000015829205188616796335_);}
	.st21{clip-path:url(#SVGID_00000150802667258797705800000015773039786066457252_);}
	.st22{clip-path:url(#SVGID_00000058586136092852114150000000889314407976997536_);}
	.st23{clip-path:url(#SVGID_00000041982577786234060120000006053278243484794295_);}
	.st24{fill:#414042;}
	.st25{fill:#606060;}
	.st26{fill:#595757;}
	.st27{fill:none;stroke:#595757;stroke-width:1.5;stroke-linecap:round;stroke-linejoin:round;stroke-miterlimit:10;}
	.st28{fill:#C9CACA;}
	.st29{fill:none;stroke:#C9CACA;stroke-width:1.5;stroke-linecap:round;stroke-linejoin:round;stroke-miterlimit:10;}
	.st30{fill:#EA5504;}
	.st31{fill:none;stroke:#EA5504;stroke-width:1.5;stroke-linecap:round;stroke-linejoin:round;stroke-miterlimit:10;}
	.st32{fill:#00B9EF;}
	.st33{fill:none;stroke:#00B9EF;stroke-width:1.5;stroke-linecap:round;stroke-linejoin:round;stroke-miterlimit:10;}
	.st34{fill:#FFF100;}
	.st35{fill:none;stroke:#FFF100;stroke-width:1.5;stroke-linecap:round;stroke-linejoin:round;stroke-miterlimit:10;}
	.st36{fill:#D0121B;}
	.st37{fill:none;stroke:#D0121B;stroke-width:1.5;stroke-linecap:round;stroke-linejoin:round;stroke-miterlimit:10;}
	.st38{fill:#C9CACA;stroke:#7F7F7F;stroke-width:0.6;stroke-miterlimit:10;}
	.st39{fill:#7F7F7F;}
	.st40{clip-path:url(#SVGID_00000020356651768528871920000010588954129557296785_);}
	.st41{fill:none;stroke:#787878;stroke-width:0.5;stroke-miterlimit:10;}
	.st42{fill:#121D17;}
	.st43{fill:#878787;}
	.st44{display:inline;fill:#606060;}
	.st45{display:inline;fill:#525252;}
	.st46{fill:none;stroke:#0083F1;stroke-width:5;stroke-linecap:round;stroke-linejoin:round;}
	.st47{fill:none;stroke:#0083F1;stroke-width:5;stroke-linecap:round;stroke-linejoin:round;stroke-dasharray:1.0041,20.0813;}
	.st48{fill:#0083F1;}
</style>
<g id="圖層_1">
</g>
<g id="_x30_3" class="st8">
</g>
<g id="圖層_6">
	<g>
		<g>
			<g>
				<path class="st11" d="M13.26,11.36h-1.45v6.87c0,0.77-0.14,1.33-0.41,1.68c-0.27,0.35-0.61,0.56-1.03,0.62
					c-0.42,0.06-1.28,0.09-2.61,0.09l-0.6-1.96c0.45-0.02,1.24-0.02,2.38-0.02c0.18,0,0.27-0.12,0.27-0.37v-6.9H1.48V9.59h8.34V2.36
					H1.7V0.6h11.47v1.76h-1.36v7.22h1.45V11.36z M8.55,8.27H2.63V3.59h5.91V8.27z M8.59,17.67H2.63v-4.98h5.96V17.67z M6.67,6.6
					V5.26H4.52V6.6H6.67z M6.7,16.01V14.4H4.54v1.61H6.7z M22.15,19.14l-1.31,1.67c-1.74-1.73-3.02-3.91-3.83-6.53
					c-0.77,2.84-1.94,4.98-3.53,6.44l-1.31-1.6c0.98-0.97,1.76-2.12,2.34-3.46c0.58-1.34,0.95-2.57,1.11-3.7
					c0.16-1.13,0.25-2.82,0.25-5.09l1.99,0.04C17.83,7.27,17.81,7.64,17.81,8C17.81,12.6,19.26,16.32,22.15,19.14z M21.77,3.3
					c-0.12,2.61-0.52,5.08-1.2,7.41l-1.86-0.8c0.41-1.4,0.7-2.96,0.88-4.67h-3.88c-0.75,1.65-1.44,2.95-2.08,3.88L12.21,7.6
					c1.29-2.15,2.35-4.69,3.16-7.6l2.03,0.35c-0.27,1.03-0.57,2.01-0.91,2.94H21.77z"/>
				<path class="st11" d="M14.83,40.95c-0.26,1.76-0.5,3.01-0.73,3.77l-1.78-0.33c0.24-0.9,0.38-1.5,0.42-1.79H9.08v0.83l2.73-0.25
					l0.12,1.5l-2.85,0.21v0.22c0,0.33,0.13,0.49,0.4,0.49h4.35v1.61H8.4c-0.28,0-0.55-0.16-0.8-0.47c-0.25-0.31-0.38-0.6-0.38-0.87
					v-0.79l-2.2,0.18l-0.11-1.5l2.32-0.18v-0.98H4.43v7.76c0,3.06-0.5,5.62-1.5,7.68l-1.61-1.32c0.78-1.56,1.16-3.49,1.16-5.8v-9.96
					h4.59v-3.28h2.01v0.73h4.75v1.54H9.08v1H14.83z M15.46,55.35l-0.98,1.59c-0.71-0.65-1.5-1.28-2.36-1.87
					c-0.04,0.93-0.24,1.67-0.59,2.22s-1.11,0.83-2.25,0.83c-0.27,0-0.58-0.02-0.92-0.06l-0.49-1.68c-1.1,0.55-2,0.93-2.68,1.12
					l-0.8-1.28c2.46-0.86,4.36-1.84,5.71-2.94c-0.04-0.14-0.1-0.34-0.19-0.62c-1.42,1-2.92,1.8-4.49,2.41l-0.76-1.28
					c1.73-0.56,3.23-1.32,4.51-2.29C9,51.37,8.86,51.24,8.73,51.12c-1.11,0.59-2.2,1.11-3.25,1.54l-0.79-1.43
					c1.41-0.44,2.67-0.99,3.79-1.63H5.03v-1.61h9.9v1.61h-4.21c-0.26,0.25-0.45,0.41-0.56,0.49c0.51,0.46,0.92,0.95,1.24,1.47
					c0.68-0.25,1.45-0.71,2.31-1.38l1.17,1.38c-1,0.66-1.99,1.2-2.94,1.61C13.28,53.85,14.46,54.58,15.46,55.35z M10.16,54.95
					c-0.78,0.59-1.45,1.02-2.03,1.31c0.31,0.03,0.6,0.05,0.87,0.05c0.57,0,0.93-0.12,1.07-0.35C10.2,55.72,10.23,55.39,10.16,54.95z
					 M17.76,53.77h-1.94V39.29h1.94V53.77z M21.33,56.09c0,0.4-0.11,0.76-0.34,1.08c-0.22,0.32-0.52,0.54-0.89,0.66
					c-0.37,0.12-1.06,0.19-2.07,0.19c-0.37,0-0.72-0.01-1.07-0.03l-0.78-2.03c0.66,0.07,1.26,0.1,1.8,0.1
					c0.64,0,1.03-0.04,1.16-0.12c0.13-0.08,0.2-0.23,0.2-0.45V37.73h1.99V56.09z"/>
				<path class="st11" d="M6.92,82.37c1.25,1.84,1.87,3.52,1.87,5.04c0,1-0.21,1.77-0.63,2.33c-0.42,0.56-1.26,0.83-2.53,0.83
					c-0.2,0-0.4-0.01-0.61-0.02l-0.58-1.99c0.26,0.04,0.51,0.06,0.76,0.06c0.72,0,1.15-0.09,1.31-0.27
					c0.16-0.18,0.24-0.42,0.24-0.72c0-1.64-0.67-3.29-2.01-4.95c0.71-1.79,1.27-3.55,1.7-5.28H4.2v18.07H2.17V75.4h6.38v1.89
					C8.06,79.09,7.52,80.78,6.92,82.37z M21.98,90.93c0,1.83-0.23,3.02-0.68,3.6c-0.45,0.57-1.34,0.86-2.67,0.86
					c-0.97,0-1.64-0.15-2.01-0.44c-0.37-0.29-0.56-0.8-0.56-1.54v-6.24h-1.99c0,4.12-1.9,6.96-5.71,8.51L7.1,93.96
					c3.3-1.25,4.95-3.25,4.95-6c0-0.26-0.02-0.53-0.05-0.8H9.31v-1.94h12.33v1.94h-3.49v5.8c0,0.27,0.14,0.4,0.42,0.4
					c0.64,0,1.03-0.12,1.18-0.35c0.15-0.23,0.22-1.12,0.22-2.67L21.98,90.93z M21.44,82.16h-2.01v-2.88h-8.07v2.88H9.36v-4.88h4.82
					c-0.08-0.42-0.37-1.07-0.87-1.96l2.13-0.33c0.34,0.6,0.65,1.37,0.94,2.29h5.07V82.16z M18.76,83.19h-6.69V81.2h6.69V83.19z"/>
			</g>
		</g>
		<path class="st36" d="M22.3,165.17c-1.86-4.55-5.9-6.93-10.05-7.15v-40.21c0-0.35-0.28-0.63-0.63-0.63
			c-0.35,0-0.63,0.28-0.63,0.63v40.21c-4.15,0.22-8.19,2.6-10.05,7.15c-1.27,3.11-1.27,6.59,0,9.7l10.68,26.11l10.67-26.11
			C23.57,171.76,23.57,168.27,22.3,165.17z M11.63,176.14c-3.34,0-6.05-2.71-6.05-6.05c0-3.34,2.71-6.05,6.05-6.05
			c3.34,0,6.05,2.71,6.05,6.05C17.68,173.43,14.97,176.14,11.63,176.14z"/>
	</g>
</g>
<g id="圖層_5">
</g>
<g id="note" class="st8">
</g>
<g id="指示線" class="st8">
</g>
</svg>
