<?xml version="1.0" encoding="utf-8"?>
<!-- Generator: Adobe Illustrator 26.2.1, SVG Export Plug-In . SVG Version: 6.00 Build 0)  -->
<svg version="1.1" xmlns="http://www.w3.org/2000/svg" xmlns:xlink="http://www.w3.org/1999/xlink" x="0px" y="0px"
	 viewBox="0 0 213.99 67.92" style="enable-background:new 0 0 213.99 67.92;" xml:space="preserve">
<style type="text/css">
	.st0{display:none;}
	.st1{opacity:0.5;fill:#231815;}
	.st2{opacity:0.5;fill:url(#SVGID_00000038414190173122439350000003539112061192285617_);}
	.st3{opacity:0.25;fill:#CCC8C7;}
	.st4{opacity:0.6;fill:url(#SVGID_00000121253255468963459400000006668141705902514103_);}
	.st5{opacity:0.6;fill:url(#SVGID_00000014621727428489618600000010985505141014809492_);}
	.st6{opacity:0.6;fill:url(#SVGID_00000149348813418115827360000005733927886147562173_);}
	.st7{opacity:0.6;fill:url(#SVGID_00000130638873644384897910000018132180489276812983_);}
	.st8{clip-path:url(#SVGID_00000119816358195682278980000010173644531341653907_);}
	.st9{clip-path:url(#SVGID_00000054254246830047082590000006758737269459099307_);}
	.st10{clip-path:url(#SVGID_00000075124843605872302360000012431138875973869980_);}
	.st11{clip-path:url(#SVGID_00000169531075000641599420000001770238348808291505_);}
	.st12{clip-path:url(#SVGID_00000083076586085456005250000012125125884147528607_);}
	.st13{clip-path:url(#SVGID_00000183247954497337344060000016521130786062647476_);}
	
		.st14{clip-path:url(#SVGID_00000127727182359920503940000009237235605827256483_);fill:url(#SVGID_00000076564411939148918610000003261007961126151608_);}
	.st15{opacity:0.85;fill:none;stroke:#B77B49;stroke-width:5;stroke-miterlimit:10;}
	
		.st16{clip-path:url(#SVGID_00000016049704796152620330000015747010889839092388_);fill:url(#SVGID_00000015345744821535062680000007013415272905189811_);}
	.st17{opacity:0.85;clip-path:url(#SVGID_00000000220335092352388680000004883239701727015864_);fill:#B93322;}
	.st18{opacity:0.85;clip-path:url(#SVGID_00000003790097608760544160000005847264550522410415_);fill:#B18448;}
	.st19{fill:#FFFFFF;}
	.st20{fill:none;stroke:#FFFFFF;stroke-width:2;stroke-linecap:round;stroke-linejoin:round;stroke-miterlimit:10;}
	.st21{fill:none;stroke:#FFFFFF;stroke-width:3;stroke-miterlimit:10;}
	.st22{fill:url(#SVGID_00000066477465081418407480000008858901023170072448_);}
	.st23{fill:none;stroke:#FFFFFF;stroke-width:0.7;stroke-miterlimit:10;}
	.st24{opacity:0.85;clip-path:url(#SVGID_00000156577212358660031610000004969634094569172910_);fill:#A2A67E;}
	.st25{fill:url(#SVGID_00000049182919509309315480000001118430253605280442_);}
	.st26{opacity:0.85;clip-path:url(#SVGID_00000109012215990930447250000015529571637208244151_);fill:#C6741E;}
	.st27{opacity:0.89;fill:#DEAD5E;}
	.st28{fill:none;stroke:#FFFFFF;stroke-width:2;stroke-miterlimit:10;}
	.st29{fill:url(#SVGID_00000042713314356912577410000016359426201616070825_);}
	.st30{fill:url(#SVGID_00000085932026836335066550000010284053325011423934_);}
	.st31{opacity:0.85;clip-path:url(#SVGID_00000052797696836267940430000006940576804460282004_);fill:#8B9697;}
	.st32{opacity:0.85;fill:#174354;}
	.st33{fill:url(#SVGID_00000137812675706475324150000013919219553278178179_);}
	.st34{opacity:0.85;clip-path:url(#SVGID_00000103948149011272941520000010042213303067668114_);fill:#174354;}
	.st35{fill:#9E9E9F;}
	.st36{fill:url(#SVGID_00000061432704439830179240000009702929316568061354_);}
	.st37{fill:url(#SVGID_00000119827175253592231400000004154103899337531268_);}
	.st38{fill:url(#SVGID_00000141420696361212418370000016005759211806459814_);}
	.st39{fill-rule:evenodd;clip-rule:evenodd;fill:#FFFFFF;}
	.st40{fill:url(#SVGID_00000070841247420197321920000016000759286426322057_);}
	.st41{fill:url(#SVGID_00000118372710269431188270000005896678882215323037_);}
	.st42{fill:url(#SVGID_00000105422252453249098210000006813226946777520824_);}
	.st43{fill:url(#SVGID_00000117674734261088146320000003405975560581692603_);}
	.st44{fill:#434343;}
	.st45{fill:url(#SVGID_00000179640580962306344100000016750654924987443623_);}
	.st46{opacity:0.6;}
	.st47{clip-path:url(#SVGID_00000054225359468704768490000008932829447184266928_);fill:#FFFFFF;}
	.st48{clip-path:url(#SVGID_00000042000652641327665380000018251301731673042365_);fill:#FFFFFF;}
	.st49{fill:url(#SVGID_00000150060607452735235210000003205620765461268648_);}
	.st50{clip-path:url(#SVGID_00000162337098338228012070000006704374097288641177_);fill:#FFFFFF;}
	.st51{fill:none;stroke:#FFFFFF;stroke-miterlimit:10;}
	.st52{fill:url(#SVGID_00000009569701875975220760000006720525642044561595_);}
	.st53{fill:url(#SVGID_00000104695396677682677330000001972677645782830212_);}
	.st54{fill:url(#SVGID_00000052068727338878186470000003266697929184774540_);}
	.st55{fill:url(#SVGID_00000052787198913294815640000006045854011833418167_);}
	.st56{fill:#D0121B;}
	.st57{fill:#C9CACA;}
	.st58{fill:#595757;}
	.st59{fill:#FFF100;}
	.st60{fill:#00B9EF;}
	.st61{fill:#EA5504;}
	.st62{fill:url(#SVGID_00000087397824530836893390000003094168517954542725_);}
	.st63{fill:url(#SVGID_00000010312932145817119600000002824637396352542347_);}
	.st64{fill:url(#SVGID_00000055693203477821555700000001052330787190626692_);}
	.st65{fill:url(#SVGID_00000075122731085062314010000014528993372625625490_);}
	.st66{fill:url(#SVGID_00000162339629643113664090000004397640644500445060_);}
	.st67{fill:url(#SVGID_00000066486030387776663960000004681776763827958173_);}
	.st68{opacity:0.75;fill:#666666;}
	.st69{opacity:0.5;clip-path:url(#SVGID_00000162316916957440446100000015539421224034017921_);fill:#231815;}
	
		.st70{clip-path:url(#SVGID_00000162316916957440446100000015539421224034017921_);fill:url(#SVGID_00000144325681318777777130000017947682891044349617_);}
	.st71{clip-path:url(#SVGID_00000162316916957440446100000015539421224034017921_);}
	.st72{opacity:0.85;clip-path:url(#SVGID_00000036951354384291230190000007207475126726942108_);fill:#C6741E;}
	.st73{clip-path:url(#SVGID_00000060032366547813679960000017970485390248536469_);}
	.st74{clip-path:url(#SVGID_00000093872526773202517030000010902713335655226241_);}
	.st75{opacity:0.85;fill:#B77B49;}
	.st76{clip-path:url(#SVGID_00000134933693269987302760000005225712059179483815_);}
	.st77{clip-path:url(#SVGID_00000171719023030445728690000005121101036447271825_);}
	.st78{clip-path:url(#SVGID_00000034784955213552668930000010116269888205775015_);}
	.st79{clip-path:url(#SVGID_00000014636288380931184280000002831798924031530388_);}
	.st80{clip-path:url(#SVGID_00000140711034783685933920000010767384321573152690_);}
	.st81{clip-path:url(#SVGID_00000051348494262887525530000009491718189354276749_);}
	.st82{clip-path:url(#SVGID_00000132775211968218560850000002302724861162140589_);}
	.st83{clip-path:url(#SVGID_00000096041030850940702820000016666859717993899919_);}
	.st84{clip-path:url(#SVGID_00000050661035384544542580000006770711849581524143_);}
	.st85{clip-path:url(#SVGID_00000135673638800845900910000011600251304636196261_);}
	.st86{clip-path:url(#SVGID_00000136372722676219114910000003950328428248604332_);}
	.st87{clip-path:url(#SVGID_00000103233611534601572190000004522218279427037576_);}
	.st88{clip-path:url(#SVGID_00000157284026820415780840000001216904977083457417_);}
	.st89{clip-path:url(#SVGID_00000024701600612934421740000012904716398296363189_);}
	.st90{clip-path:url(#SVGID_00000098936236733258433880000016113322017989942463_);}
	.st91{clip-path:url(#SVGID_00000163044158016600508250000018367823659660121736_);}
	.st92{clip-path:url(#SVGID_00000177452120018666032470000004484751105417724827_);}
	.st93{clip-path:url(#SVGID_00000060716308342494740110000013506551850308937379_);}
	.st94{clip-path:url(#SVGID_00000050657637260677404520000001983162228563815045_);}
	.st95{clip-path:url(#SVGID_00000009556971281888059000000003727108839549110919_);}
	.st96{clip-path:url(#SVGID_00000136400956480651186680000010568281077434801083_);}
	.st97{clip-path:url(#SVGID_00000143593151464941802640000015700829553426894263_);}
	.st98{clip-path:url(#SVGID_00000160883831658180064790000012578561155835098034_);}
	.st99{fill:none;stroke:#B77B49;stroke-miterlimit:10;}
	.st100{clip-path:url(#SVGID_00000100367976751069996590000002938644685641651596_);}
	.st101{clip-path:url(#SVGID_00000103267227967470956100000002508212948041947311_);}
	.st102{clip-path:url(#SVGID_00000147213732230293772320000009906402739591731080_);}
	.st103{clip-path:url(#SVGID_00000038411795724521747430000007402925664502537912_);}
	.st104{clip-path:url(#SVGID_00000150066234728775392730000010625259901828979101_);}
	.st105{fill:#0F2C35;}
	.st106{fill:#AF3F36;}
	.st107{fill:#B27848;}
	.st108{fill:#FFFFFF;stroke:#231815;stroke-miterlimit:10;}
	.st109{fill:#B18448;}
	.st110{fill:#C6741E;}
	.st111{fill:#A2A67E;}
	.st112{fill:#8B9697;}
	.st113{fill:#174354;}
	.st114{clip-path:url(#SVGID_00000011744179767435855720000000910967262839465372_);}
	.st115{clip-path:url(#SVGID_00000082346067062880469300000010287496909042215850_);fill:#595757;}
	.st116{clip-path:url(#SVGID_00000103973637293692227530000007823572058957529487_);}
	.st117{clip-path:url(#SVGID_00000005964640838634748980000002016831476244610471_);}
	.st118{clip-path:url(#SVGID_00000000221717834452869540000009398838541016727224_);}
	.st119{clip-path:url(#SVGID_00000013900145045269939280000007246966147081709749_);}
	.st120{clip-path:url(#SVGID_00000114038833983440943050000006930883453158786194_);}
	.st121{clip-path:url(#SVGID_00000064338636010346269210000016098896804471529361_);}
	.st122{clip-path:url(#SVGID_00000016066730466426528430000003761346612999794332_);}
	.st123{clip-path:url(#SVGID_00000046298123671332412490000015618240873398665366_);}
	.st124{clip-path:url(#SVGID_00000126293753018842051220000012626550457796065446_);}
	.st125{clip-path:url(#SVGID_00000109747639280115677190000012685760272392519614_);}
	.st126{clip-path:url(#SVGID_00000016066980006806541510000003772484561566978482_);}
	.st127{clip-path:url(#SVGID_00000054963359658478097230000016199824913759439268_);}
	.st128{clip-path:url(#SVGID_00000183251218766934634120000006315966149618122415_);}
	.st129{clip-path:url(#SVGID_00000137110095298026250260000002326078098962166158_);}
	.st130{clip-path:url(#SVGID_00000017489813568340751180000017490043766526683051_);}
	.st131{clip-path:url(#SVGID_00000072993851595429123750000017541981499748851844_);}
	.st132{clip-path:url(#SVGID_00000054243314170285253900000000048416358962601115_);}
	.st133{clip-path:url(#SVGID_00000089562815936700143800000016091636523503840154_);}
	
		.st134{clip-path:url(#SVGID_00000128480571798699288170000016740368056824276645_);fill:url(#SVGID_00000152248917656280747920000013524270985434669742_);}
	.st135{clip-path:url(#SVGID_00000041266801983724746970000012651183344477382053_);}
	.st136{clip-path:url(#SVGID_00000119083952546307953780000008236455514662831513_);fill:#D0121B;}
	.st137{clip-path:url(#SVGID_00000147214760060951611430000000943020806848577679_);}
	.st138{clip-path:url(#SVGID_00000123437892456017789740000004645569947443263631_);fill:#C9CACA;}
	.st139{clip-path:url(#SVGID_00000170984289995417339140000012282419196738622358_);}
	.st140{clip-path:url(#SVGID_00000123440808095238028050000016825142060963247547_);fill:#EA5504;}
	.st141{clip-path:url(#SVGID_00000157268691343006116070000011884727501010662074_);}
	.st142{clip-path:url(#SVGID_00000175313272161958338770000018232401762074170280_);fill:#FFF100;}
	.st143{clip-path:url(#SVGID_00000073697911263654688720000014509094916902846887_);}
	.st144{clip-path:url(#SVGID_00000119106830558656481260000005874043610776252328_);fill:#00B9EF;}
</style>
<g id="圖層_6" class="st0">
</g>
<g id="底屠">
</g>
<g id="物件">
	<g>
		<defs>
			<rect id="SVGID_00000053541431534229518640000009166037273078727823_" width="213.99" height="67.92"/>
		</defs>
		<clipPath id="SVGID_00000137820113267802919550000000671219987366110655_">
			<use xlink:href="#SVGID_00000053541431534229518640000009166037273078727823_"  style="overflow:visible;"/>
		</clipPath>
		<g style="clip-path:url(#SVGID_00000137820113267802919550000000671219987366110655_);">
			<g>
				<path class="st19" d="M42.54,4.03c-0.03,0.87-0.06,1.68-0.11,2.49h5.26c0.7,0,1.43-0.06,2.1-0.2l2.44,1.18
					c-0.08,0.48-0.2,1.18-0.2,1.48c-0.11,3.02-0.45,10.86-1.65,13.72c-0.62,1.4-1.68,2.16-3.61,2.16c-1.6,0-3.28-0.14-4.62-0.25
					l-0.45-3.72c1.37,0.22,2.83,0.36,3.92,0.36c0.9,0,1.29-0.28,1.6-0.98c0.81-1.76,1.18-7.36,1.18-10.39h-6.3
					c-1.04,7.42-3.7,11.79-8.71,15.34l-3.25-2.63c1.15-0.64,2.55-1.6,3.67-2.72c2.6-2.58,4-5.74,4.62-10h-3.7
					c-0.95,0-2.49,0.03-3.7,0.14v-3.7c1.18,0.14,2.63,0.2,3.7,0.2h4c0.03-0.78,0.06-1.6,0.06-2.44c0-0.62-0.08-1.9-0.2-2.58h4.12
					C42.63,2.18,42.57,3.36,42.54,4.03z M52.12,5.1l-2.24,0.98c-0.59-1.15-1.43-2.8-2.18-3.89l2.21-0.92
					C50.61,2.3,51.59,4.06,52.12,5.1z M55.48,3.81l-2.24,0.98c-0.56-1.18-1.46-2.8-2.24-3.86L53.21,0
					C53.94,1.06,54.97,2.83,55.48,3.81z"/>
				<path class="st19" d="M65.67,11.98l-2.04,3.14c-1.6-1.12-4.51-3-6.38-4l2.02-3.08C61.16,9.04,64.24,10.98,65.67,11.98z
					 M67.91,18.37c4.76-2.66,8.68-6.5,10.89-10.5l2.16,3.81c-2.58,3.89-6.55,7.42-11.12,10.08c-2.86,1.6-6.89,3-9.35,3.44l-2.1-3.67
					C61.53,21,64.89,20.05,67.91,18.37z M69.95,5.66l-2.07,3.08c-1.57-1.09-4.48-2.97-6.33-4l2.02-3.08
					C65.42,2.66,68.5,4.62,69.95,5.66z M78.3,6.52l-2.44,1.04c-0.81-1.76-1.46-2.97-2.46-4.4l2.35-0.98
					C76.53,3.36,77.65,5.24,78.3,6.52z M82.22,5.01l-2.38,1.06c-0.9-1.76-1.6-2.86-2.63-4.26l2.38-0.98
					C80.45,1.96,81.55,3.78,82.22,5.01z"/>
				<path class="st19" d="M99.8,11.51c-0.22,1.65-0.95,6.47-1.37,9.13h1.79c0.73,0,2.02-0.03,2.74-0.11v3.61
					c-0.56-0.03-1.93-0.08-2.69-0.08H85.55c-1.01,0-1.71,0.03-2.77,0.08V20.5c0.76,0.08,1.79,0.14,2.77,0.14h9.07
					c0.39-2.38,1.01-6.36,1.09-7.92h-7.56c-0.9,0-1.99,0.08-2.8,0.14v-3.7c0.73,0.08,2.02,0.17,2.77,0.17h7.17
					c0.59,0,1.74-0.11,2.07-0.31l2.72,1.32C99.94,10.7,99.86,11.23,99.8,11.51z"/>
				<path class="st19" d="M129.09,7.22c-2.02,3.28-5.6,7.76-9.55,10.95c1.6,1.6,3.25,3.42,4.34,4.73l-3.28,2.6
					c-1.18-1.57-3.53-4.2-5.35-6.05c-1.62-1.65-4.48-4.17-6.16-5.38l2.97-2.38c1.12,0.84,2.97,2.35,4.73,3.89
					c3.16-2.52,5.8-5.77,7.11-8.06H109.1c-1.12,0-2.63,0.14-3.22,0.2V3.81c0.73,0.11,2.27,0.25,3.22,0.25h15.54
					c1.06,0,2.02-0.11,2.6-0.31l2.8,2.3C129.65,6.5,129.31,6.86,129.09,7.22z"/>
				<path class="st19" d="M136.17,15.96c0.78-2.41,0.81-7.7,0.81-11.09c0-1.12-0.08-1.88-0.25-2.58h4.12
					c-0.03,0.14-0.2,1.37-0.2,2.55c0,3.3-0.08,9.21-0.84,12.04c-0.84,3.16-2.6,5.91-4.98,8.04l-3.42-2.27
					C133.88,20.92,135.39,18.34,136.17,15.96z M144.6,21V4.68c0-1.26-0.2-2.32-0.22-2.41h4.17c-0.03,0.08-0.2,1.18-0.2,2.44v14.64
					c2.27-0.98,5.04-3.19,6.92-5.91l2.16,3.08c-2.32,3.02-6.36,6.05-9.49,7.64c-0.62,0.34-0.95,0.62-1.2,0.84l-2.35-1.93
					C144.49,22.54,144.6,21.76,144.6,21z"/>
				<path class="st19" d="M164.59,10.58c0,4.42-0.45,11.26-3.08,15.48c-0.62-0.56-2.07-1.54-2.86-1.85c2.41-3.95,2.6-9.69,2.6-13.64
					V3.53h9.86V0h3.47v3.53h10.11v3.19h-20.1V10.58z M181.87,26.18c-0.22-0.73-0.53-1.54-0.95-2.41
					c-5.91,0.48-12.18,0.92-16.52,1.18l-0.31-3.44c0.98-0.03,2.07-0.08,3.28-0.11c1.4-3.75,2.91-9.13,3.67-13.36l3.81,0.76
					c-1.09,4.23-2.55,8.9-3.89,12.43c2.66-0.11,5.6-0.25,8.48-0.42c-0.98-1.79-2.16-3.61-3.28-5.18l3.11-1.34
					c2.41,3.19,5.04,7.42,6.05,10.36L181.87,26.18z"/>
				<path class="st19" d="M201.92,14c-0.22,0.45-0.5,0.9-0.78,1.34h11.37c0,0-0.03,0.76-0.06,1.15c-0.39,5.46-0.84,7.7-1.6,8.51
					c-0.53,0.64-1.15,0.87-1.85,0.95c-0.64,0.08-1.71,0.11-2.83,0.06c-0.06-0.78-0.34-1.9-0.76-2.6c0.9,0.08,1.62,0.08,1.99,0.08
					c0.39,0,0.62-0.06,0.84-0.31c0.39-0.42,0.73-1.85,1.04-5.24h-1.09c-1.15,3.14-3.33,6.52-5.6,8.29c-0.56-0.64-1.51-1.4-2.35-1.85
					c2.13-1.34,4-3.84,5.21-6.44h-1.65c-1.51,2.69-4.12,5.49-6.55,7.03c-0.53-0.64-1.4-1.48-2.18-1.96c2.07-1.04,4.23-3,5.71-5.07
					h-1.65c-1.04,1.09-2.13,2.02-3.28,2.74c-0.42-0.53-1.48-1.51-2.18-1.96c-2.02,1.01-4.03,2.02-5.74,2.86l-1.23-3.36
					c0.95-0.36,2.13-0.84,3.44-1.37v-7.9h-2.8V5.82h2.8V0.31h3.08v5.52h2.63v3.14h-2.63v6.61l2.24-0.98l0.59,2.38
					c1.01-0.87,1.88-1.88,2.58-2.97h-3.16v-2.8h17.61V14H201.92z M211.16,10.14h-13.24V0.67h13.24V10.14z M208.08,2.97h-7.22v1.34
					h7.22V2.97z M208.08,6.5h-7.22v1.34h7.22V6.5z"/>
				<path class="st19" d="M42.39,60.69v-21.5h6.01c1.79,0,3.23,0.45,4.32,1.35c1.09,0.9,1.64,2.09,1.64,3.57
					c0,1.2-0.32,2.26-0.96,3.17c-0.64,0.91-1.55,1.56-2.73,1.96v0.06c1.43,0.14,2.59,0.68,3.46,1.61s1.31,2.15,1.31,3.64
					c0,1.82-0.65,3.31-1.96,4.45c-1.31,1.14-2.96,1.71-4.96,1.71H42.39z M44.75,41.38v7.07h2.61c1.42,0,2.54-0.34,3.33-1.02
					c0.8-0.68,1.19-1.63,1.19-2.85c0-2.13-1.39-3.19-4.16-3.19H44.75z M44.75,50.62v7.87h3.49c1.48,0,2.64-0.35,3.48-1.06
					c0.84-0.71,1.26-1.69,1.26-2.94c0-2.58-1.77-3.87-5.3-3.87H44.75z"/>
				<path class="st19" d="M59.88,46.43c1.51-0.97,3.23-1.46,5.18-1.46c3.56,0,5.34,1.89,5.34,5.68v10.04h-2.32v-2.42H68
					c-1.06,1.85-2.64,2.78-4.72,2.78c-1.52,0-2.71-0.41-3.59-1.21c-0.87-0.81-1.31-1.88-1.31-3.21c0-2.84,1.68-4.5,5.05-4.98
					l4.64-0.67c0-2.67-1.06-4-3.19-4c-1.86,0-3.53,0.63-5,1.9V46.43z M64.31,53.4c-1.31,0.18-2.23,0.49-2.74,0.95
					c-0.51,0.46-0.77,1.16-0.77,2.12c0,0.77,0.27,1.39,0.83,1.87c0.55,0.48,1.27,0.72,2.16,0.72c1.23,0,2.25-0.44,3.07-1.32
					c0.81-0.88,1.22-1.98,1.22-3.29V52.9L64.31,53.4z"/>
				<path class="st19" d="M87.7,60.69h-2.32v-8.77c0-3.31-1.21-4.97-3.64-4.97c-1.27,0-2.31,0.47-3.12,1.42
					c-0.81,0.95-1.22,2.14-1.22,3.56v8.76h-2.32V45.33h2.32v2.57h0.07c1.15-1.95,2.83-2.93,5.04-2.93c1.68,0,2.97,0.54,3.86,1.62
					c0.89,1.08,1.33,2.65,1.33,4.71V60.69z"/>
				<path class="st19" d="M104.44,45.33l-7.11,17.89c-1.24,3.13-2.98,4.69-5.22,4.69c-0.56,0-1.07-0.06-1.51-0.18v-2.11
					c0.52,0.17,0.99,0.25,1.42,0.25c1.25,0,2.18-0.75,2.8-2.25l1.25-2.97l-5.98-15.33h2.57l4.23,11.98c0.06,0.17,0.16,0.53,0.32,1.1
					h0.08c0.04-0.19,0.13-0.55,0.29-1.07l4.46-12.01H104.44z"/>
				<path class="st19" d="M107.48,46.43c1.51-0.97,3.23-1.46,5.18-1.46c3.56,0,5.34,1.89,5.34,5.68v10.04h-2.32v-2.42h-0.08
					c-1.06,1.85-2.64,2.78-4.72,2.78c-1.52,0-2.71-0.41-3.59-1.21c-0.87-0.81-1.31-1.88-1.31-3.21c0-2.84,1.68-4.5,5.05-4.98
					l4.64-0.67c0-2.67-1.06-4-3.19-4c-1.86,0-3.53,0.63-5,1.9V46.43z M111.91,53.4c-1.31,0.18-2.23,0.49-2.74,0.95
					c-0.51,0.46-0.77,1.16-0.77,2.12c0,0.77,0.27,1.39,0.83,1.87c0.55,0.48,1.27,0.72,2.16,0.72c1.23,0,2.25-0.44,3.07-1.32
					c0.81-0.88,1.22-1.98,1.22-3.29V52.9L111.91,53.4z"/>
				<path class="st19" d="M135.3,60.69h-2.32v-8.77c0-3.31-1.21-4.97-3.64-4.97c-1.27,0-2.31,0.47-3.12,1.42S125,50.5,125,51.93
					v8.76h-2.32V45.33H125v2.57h0.07c1.15-1.95,2.83-2.93,5.04-2.93c1.68,0,2.97,0.54,3.86,1.62c0.89,1.08,1.33,2.65,1.33,4.71
					V60.69z"/>
				<path class="st19" d="M149.78,52.52v8.16h-2.36v-21.5h5.8c2.25,0,4.01,0.56,5.28,1.68c1.27,1.12,1.9,2.69,1.9,4.72
					c0,2.11-0.75,3.81-2.23,5.11c-1.49,1.3-3.33,1.91-5.51,1.83H149.78z M149.78,41.36v8.95h2.69c1.77,0,3.12-0.4,4.05-1.2
					c0.93-0.8,1.4-1.94,1.4-3.42c0-2.89-1.7-4.33-5.11-4.33H149.78z"/>
				<path class="st19" d="M164.19,60.69V37.96h2.3v22.72H164.19z"/>
				<path class="st19" d="M171.91,46.43c1.51-0.97,3.23-1.46,5.18-1.46c3.56,0,5.34,1.89,5.34,5.68v10.04h-2.32v-2.42h-0.08
					c-1.06,1.85-2.64,2.78-4.72,2.78c-1.52,0-2.71-0.41-3.59-1.21c-0.88-0.81-1.31-1.88-1.31-3.21c0-2.84,1.68-4.5,5.05-4.98
					l4.64-0.67c0-2.67-1.06-4-3.19-4c-1.86,0-3.53,0.63-5,1.9V46.43z M176.34,53.4c-1.31,0.18-2.23,0.49-2.74,0.95
					s-0.77,1.16-0.77,2.12c0,0.77,0.28,1.39,0.83,1.87c0.55,0.48,1.27,0.72,2.16,0.72c1.23,0,2.25-0.44,3.07-1.32
					c0.81-0.88,1.22-1.98,1.22-3.29V52.9L176.34,53.4z"/>
				<path class="st19" d="M197.63,60.69h-12.52v-0.68l9.16-12.67h-8.32v-2h11.77v0.6l-9.2,12.76h9.11V60.69z"/>
				<path class="st19" d="M201.3,46.43c1.51-0.97,3.23-1.46,5.18-1.46c3.56,0,5.34,1.89,5.34,5.68v10.04h-2.32v-2.42h-0.08
					c-1.06,1.85-2.64,2.78-4.72,2.78c-1.52,0-2.71-0.41-3.59-1.21c-0.87-0.81-1.31-1.88-1.31-3.21c0-2.84,1.68-4.5,5.05-4.98
					l4.64-0.67c0-2.67-1.06-4-3.19-4c-1.86,0-3.53,0.63-5,1.9V46.43z M205.73,53.4c-1.31,0.18-2.23,0.49-2.74,0.95
					c-0.51,0.46-0.77,1.16-0.77,2.12c0,0.77,0.27,1.39,0.83,1.87c0.55,0.48,1.27,0.72,2.16,0.72c1.23,0,2.25-0.44,3.07-1.32
					c0.81-0.88,1.22-1.98,1.22-3.29V52.9L205.73,53.4z"/>
			</g>
		</g>
	</g>
</g>
<g id="瀏海">
</g>
<g id="圖層_3" class="st0">
</g>
<g id="圖層_4">
</g>
<g id="分">
</g>
</svg>
