<?xml version="1.0" encoding="utf-8"?>
<!-- Generator: Adobe Illustrator 26.2.1, SVG Export Plug-In . SVG Version: 6.00 Build 0)  -->
<svg version="1.1" xmlns="http://www.w3.org/2000/svg" xmlns:xlink="http://www.w3.org/1999/xlink" x="0px" y="0px"
	 viewBox="0 0 213.99 67.92" style="enable-background:new 0 0 213.99 67.92;" xml:space="preserve">
<style type="text/css">
	.st0{display:none;}
	.st1{opacity:0.5;fill:#231815;}
	.st2{opacity:0.5;fill:url(#SVGID_00000072251552977763508420000015054123607521912503_);}
	.st3{opacity:0.25;fill:#CCC8C7;}
	.st4{opacity:0.6;fill:url(#SVGID_00000096037974333725263730000016161022248880632721_);}
	.st5{opacity:0.6;fill:url(#SVGID_00000089563191962734268070000000214189984298909075_);}
	.st6{opacity:0.6;fill:url(#SVGID_00000034063638742685846430000011439974145658491802_);}
	.st7{opacity:0.6;fill:url(#SVGID_00000022527583059631505510000018232166534503631014_);}
	.st8{clip-path:url(#SVGID_00000183215131688265764500000015083395156423893661_);}
	.st9{clip-path:url(#SVGID_00000157298282148310978050000004440832263525136298_);}
	.st10{clip-path:url(#SVGID_00000030448863418752834520000012243205911420602793_);}
	.st11{clip-path:url(#SVGID_00000115477637526273676620000008547703406670734492_);}
	.st12{clip-path:url(#SVGID_00000107576029437442433260000018233819692086841526_);}
	.st13{clip-path:url(#SVGID_00000012457003493745236430000007722384572953517708_);}
	
		.st14{clip-path:url(#SVGID_00000065065390147957448990000009496765162020560053_);fill:url(#SVGID_00000009578849809230265750000006301373797028358806_);}
	.st15{opacity:0.85;fill:none;stroke:#B77B49;stroke-width:5;stroke-miterlimit:10;}
	
		.st16{clip-path:url(#SVGID_00000041987421573421642260000005726096763391901079_);fill:url(#SVGID_00000180363908799632587230000009979091102064890264_);}
	.st17{opacity:0.85;clip-path:url(#SVGID_00000128480059008167054910000016515262945604019603_);fill:#B93322;}
	.st18{opacity:0.85;clip-path:url(#SVGID_00000121265432597362015230000016206657922271189686_);fill:#B18448;}
	.st19{fill:#FFFFFF;}
	.st20{fill:none;stroke:#FFFFFF;stroke-width:2;stroke-linecap:round;stroke-linejoin:round;stroke-miterlimit:10;}
	.st21{fill:none;stroke:#FFFFFF;stroke-width:3;stroke-miterlimit:10;}
	.st22{fill:url(#SVGID_00000181070233597555659000000004367994685037949873_);}
	.st23{fill:none;stroke:#FFFFFF;stroke-width:0.7;stroke-miterlimit:10;}
	.st24{opacity:0.85;clip-path:url(#SVGID_00000027587548469856707200000016897169316642510515_);fill:#A2A67E;}
	.st25{fill:url(#SVGID_00000026886249178062779410000005759704276682771601_);}
	.st26{opacity:0.85;clip-path:url(#SVGID_00000090997415644974252200000018282843801214471589_);fill:#C6741E;}
	.st27{opacity:0.89;fill:#DEAD5E;}
	.st28{fill:none;stroke:#FFFFFF;stroke-width:2;stroke-miterlimit:10;}
	.st29{fill:url(#SVGID_00000175282015411280577090000017068456237654022547_);}
	.st30{fill:url(#SVGID_00000169516634963298165260000011709833650806273668_);}
	.st31{opacity:0.85;clip-path:url(#SVGID_00000127044023910994485940000002202843718500435646_);fill:#8B9697;}
	.st32{opacity:0.85;fill:#174354;}
	.st33{fill:url(#SVGID_00000036220033575370554040000003208587792007702937_);}
	.st34{opacity:0.85;clip-path:url(#SVGID_00000104668665561446530960000013567597871176969348_);fill:#174354;}
	.st35{fill:#9E9E9F;}
	.st36{fill:url(#SVGID_00000032611045599271644950000008342396676187844788_);}
	.st37{fill:url(#SVGID_00000163780208710110659700000006181930335248281788_);}
	.st38{fill:url(#SVGID_00000093150923011261620970000008062759288235388579_);}
	.st39{fill-rule:evenodd;clip-rule:evenodd;fill:#FFFFFF;}
	.st40{fill:url(#SVGID_00000168096152419235965420000005644914729645119887_);}
	.st41{fill:url(#SVGID_00000116201689677450956410000017953622300689010066_);}
	.st42{fill:url(#SVGID_00000052786717197605526850000004346150785755348371_);}
	.st43{fill:url(#SVGID_00000165920313672141311010000001124299466684636835_);}
	.st44{fill:#434343;}
	.st45{fill:url(#SVGID_00000160889616607386367580000004130033819635117957_);}
	.st46{opacity:0.6;}
	.st47{clip-path:url(#SVGID_00000142172120601806898020000005877660681269802924_);fill:#FFFFFF;}
	.st48{clip-path:url(#SVGID_00000168079627573098655080000016281981327863145119_);fill:#FFFFFF;}
	.st49{fill:url(#SVGID_00000007427346421715617270000012272112809182220985_);}
	.st50{clip-path:url(#SVGID_00000164508761629844716400000011112715998232146619_);fill:#FFFFFF;}
	.st51{fill:none;stroke:#FFFFFF;stroke-miterlimit:10;}
	.st52{fill:url(#SVGID_00000101104124057347799660000017406911737992365448_);}
	.st53{fill:url(#SVGID_00000164472752549524055430000005867827923973711289_);}
	.st54{fill:url(#SVGID_00000111171488719729925400000011056513949299031440_);}
	.st55{fill:url(#SVGID_00000080914185511392351750000001178456932471340421_);}
	.st56{fill:#D0121B;}
	.st57{fill:#C9CACA;}
	.st58{fill:#595757;}
	.st59{fill:#FFF100;}
	.st60{fill:#00B9EF;}
	.st61{fill:#EA5504;}
	.st62{fill:url(#SVGID_00000096766149071823282390000003381034926903401400_);}
	.st63{fill:url(#SVGID_00000119822466535558600990000000896715434089507712_);}
	.st64{fill:url(#SVGID_00000119089512101975084870000011127975370117285523_);}
	.st65{fill:url(#SVGID_00000078021689307882186360000003082885568005617585_);}
	.st66{fill:url(#SVGID_00000158729887885592433420000014230310763511313839_);}
	.st67{fill:url(#SVGID_00000072974437976178905070000010488625332728006820_);}
	.st68{opacity:0.75;fill:#666666;}
	.st69{opacity:0.5;clip-path:url(#SVGID_00000031891424538288142710000011660516468453669522_);fill:#231815;}
	
		.st70{clip-path:url(#SVGID_00000031891424538288142710000011660516468453669522_);fill:url(#SVGID_00000060748522852025649170000001486985488396493991_);}
	.st71{clip-path:url(#SVGID_00000031891424538288142710000011660516468453669522_);}
	.st72{opacity:0.85;clip-path:url(#SVGID_00000124854323539771891960000014935050676583088278_);fill:#C6741E;}
	.st73{clip-path:url(#SVGID_00000090991344897676623150000011105343057220539540_);}
	.st74{clip-path:url(#SVGID_00000116207815679576660700000003851808019756650372_);}
	.st75{opacity:0.85;fill:#B77B49;}
	.st76{clip-path:url(#SVGID_00000004514046651066501670000012102092236922018717_);}
	.st77{clip-path:url(#SVGID_00000152241662207837139290000007195024473728237489_);}
	.st78{clip-path:url(#SVGID_00000002362156113070183640000014976624364480597143_);}
	.st79{clip-path:url(#SVGID_00000011725294006078443980000002391566379674667149_);}
	.st80{clip-path:url(#SVGID_00000043416454211495041610000004349269592477685166_);}
	.st81{clip-path:url(#SVGID_00000139998701055748556920000005093421319716536501_);}
	.st82{clip-path:url(#SVGID_00000127020188058277288620000009103410037624084914_);}
	.st83{clip-path:url(#SVGID_00000070116446312219215770000008199710212413604763_);}
	.st84{clip-path:url(#SVGID_00000093865337459294403320000014060807422675638685_);}
	.st85{clip-path:url(#SVGID_00000050657180092603139210000012456630099859858102_);}
	.st86{clip-path:url(#SVGID_00000123443564452432627660000002375456661519230112_);}
	.st87{clip-path:url(#SVGID_00000170237444777298881390000009066741008792839049_);}
	.st88{clip-path:url(#SVGID_00000058565942495901763040000011317657893102056874_);}
	.st89{clip-path:url(#SVGID_00000096042272073379620000000005989570351847438492_);}
	.st90{clip-path:url(#SVGID_00000105413779875417889400000005198641277279022731_);}
	.st91{clip-path:url(#SVGID_00000119822393844422940120000008721099972181398660_);}
	.st92{clip-path:url(#SVGID_00000170263310053843899620000010563985055429077433_);}
	.st93{clip-path:url(#SVGID_00000049212828720558791720000014571946924501686423_);}
	.st94{clip-path:url(#SVGID_00000003798932583383850360000001204384645238671536_);}
	.st95{clip-path:url(#SVGID_00000154416760030926974030000010310975624854781590_);}
	.st96{clip-path:url(#SVGID_00000011751616495191068260000002263851990338772355_);}
	.st97{clip-path:url(#SVGID_00000101793861900413662570000012250349565663963545_);}
	.st98{clip-path:url(#SVGID_00000117660310712337793550000002755288431580597646_);}
	.st99{fill:none;stroke:#B77B49;stroke-miterlimit:10;}
	.st100{clip-path:url(#SVGID_00000156550838671048165880000004264273307432526476_);}
	.st101{clip-path:url(#SVGID_00000110443811757167727770000001335022956242202274_);}
	.st102{clip-path:url(#SVGID_00000164488723348526021990000014489632398264218513_);}
	.st103{clip-path:url(#SVGID_00000157992116551826585090000013394350195239609769_);}
	.st104{clip-path:url(#SVGID_00000145047792347575709260000003098063493631927462_);}
	.st105{fill:#0F2C35;}
	.st106{fill:#AF3F36;}
	.st107{fill:#B27848;}
	.st108{fill:#FFFFFF;stroke:#231815;stroke-miterlimit:10;}
	.st109{fill:#B18448;}
	.st110{fill:#C6741E;}
	.st111{fill:#A2A67E;}
	.st112{fill:#8B9697;}
	.st113{fill:#174354;}
	.st114{clip-path:url(#SVGID_00000033345610721787771730000017881826695291985280_);}
	.st115{clip-path:url(#SVGID_00000029039324689610249940000004590284560217971124_);fill:#595757;}
	.st116{clip-path:url(#SVGID_00000131336496982630864730000003073613792017982353_);}
	.st117{clip-path:url(#SVGID_00000180344541599007876870000014370977973926128302_);}
	.st118{clip-path:url(#SVGID_00000160156913523206892170000008029509786717222321_);}
	.st119{clip-path:url(#SVGID_00000119075726609487046370000002781253354865610384_);}
	.st120{clip-path:url(#SVGID_00000030446719427184281370000003072519654266545827_);}
	.st121{clip-path:url(#SVGID_00000036219156827577806150000004167049776478297512_);}
	.st122{clip-path:url(#SVGID_00000052810770207363070170000001403477119512516994_);}
	.st123{clip-path:url(#SVGID_00000005251277950862389220000000753494786122343066_);}
	.st124{clip-path:url(#SVGID_00000057836139346603798310000010026718377330401190_);}
	.st125{clip-path:url(#SVGID_00000028308812675816781330000010909501334712403889_);}
	.st126{clip-path:url(#SVGID_00000031179073897807086080000015545793269427272868_);}
	.st127{clip-path:url(#SVGID_00000114760074848448831020000018330208134091466884_);}
	.st128{clip-path:url(#SVGID_00000067235143955631713700000000899455996835938723_);}
	.st129{clip-path:url(#SVGID_00000138531074956397987100000007026599378499941782_);}
	.st130{clip-path:url(#SVGID_00000098923711846353627870000014010315821081968789_);}
	.st131{clip-path:url(#SVGID_00000080201349168939365010000018164493993907326348_);}
	.st132{clip-path:url(#SVGID_00000172414308351293695030000018344936332351650944_);}
	.st133{clip-path:url(#SVGID_00000070112540439938132940000009974967619125327507_);}
	
		.st134{clip-path:url(#SVGID_00000104706161303692033140000015362051682004518042_);fill:url(#SVGID_00000113336574562650676820000007497578422131275702_);}
	.st135{clip-path:url(#SVGID_00000090974312234436021200000003323825529851553982_);}
	.st136{clip-path:url(#SVGID_00000085970629294885093950000015033715472473282193_);fill:#D0121B;}
	.st137{clip-path:url(#SVGID_00000041269190936737910610000013159643011528935585_);}
	.st138{clip-path:url(#SVGID_00000077309390368341025270000001748742160459244165_);fill:#C9CACA;}
	.st139{clip-path:url(#SVGID_00000114049348826570304120000014293272439030184124_);}
	.st140{clip-path:url(#SVGID_00000126307769246189789940000000915885441103488696_);fill:#EA5504;}
	.st141{clip-path:url(#SVGID_00000139291758119759979790000012689489537158785685_);}
	.st142{clip-path:url(#SVGID_00000124851337399620223120000005707822880446167201_);fill:#FFF100;}
	.st143{clip-path:url(#SVGID_00000031193095782808589030000011604269027767205032_);}
	.st144{clip-path:url(#SVGID_00000147919011185691755010000015976219025066160559_);fill:#00B9EF;}
</style>
<g id="圖層_6" class="st0">
</g>
<g id="底屠">
</g>
<g id="物件">
	<g>
		<defs>
			<rect id="SVGID_00000139286089532980980070000017172127411453793970_" width="213.99" height="67.92"/>
		</defs>
		<clipPath id="SVGID_00000045610709736102284600000005704386563633696666_">
			<use xlink:href="#SVGID_00000139286089532980980070000017172127411453793970_"  style="overflow:visible;"/>
		</clipPath>
		<g style="clip-path:url(#SVGID_00000045610709736102284600000005704386563633696666_);">
			<g>
				<path class="st19" d="M8.41,2.72h14.11c0.81,0,1.99-0.03,2.46-0.06C24.96,3.3,24.9,4.42,24.9,5.24v14.5
					c0,0.98,0.06,2.46,0.11,3.3h-4.06c0.03-0.45,0.03-0.92,0.03-1.46H8.21c-1.09,0-2.69,0.08-3.61,0.17v-4
					c0.98,0.08,2.24,0.17,3.5,0.17h12.91V6.33H8.44c-1.18,0-2.69,0.06-3.47,0.11V2.55C6,2.66,7.46,2.72,8.41,2.72z"/>
				<path class="st19" d="M41.42,16.13c4.79-2.83,8.43-7.11,10.19-10.89l2.18,3.95c-2.13,3.78-5.85,7.64-10.36,10.36
					c-2.83,1.71-6.44,3.28-10.39,3.95l-2.35-3.7C35.07,19.18,38.71,17.75,41.42,16.13z M41.42,7.08L38.57,10
					c-1.46-1.57-4.96-4.62-7-6.05l2.63-2.8C36.16,2.46,39.8,5.38,41.42,7.08z"/>
				<path class="st19" d="M66.59,24.19l-3-2.83c5.4-1.88,7.78-4.28,7.78-11.17V9.13h-6.64v3.81c0,1.23,0.08,2.38,0.11,2.94h-3.92
					c0.08-0.56,0.17-1.68,0.17-2.94V9.13h-2.38c-1.4,0-2.41,0.06-3.02,0.11V5.43c0.48,0.08,1.62,0.25,3.02,0.25h2.38V2.91
					c0-0.81-0.08-1.68-0.17-2.52h3.98c-0.08,0.53-0.17,1.43-0.17,2.52v2.77h6.64V2.74c0-1.12-0.08-2.04-0.17-2.6h4
					c-0.08,0.56-0.2,1.48-0.2,2.6v2.94h2.07c1.48,0,2.32-0.06,3.08-0.2v3.72c-0.62-0.06-1.6-0.08-3.08-0.08h-2.07v0.92
					C75.02,17,73.34,21.22,66.59,24.19z"/>
				<path class="st19" d="M87.71,9.63h15.04c1.32,0,2.55-0.11,3.28-0.17v4.4c-0.67-0.03-2.1-0.14-3.28-0.14H87.71
					c-1.6,0-3.47,0.06-4.51,0.14v-4.4C84.21,9.55,86.25,9.63,87.71,9.63z"/>
				<path class="st19" d="M113.91,3.64c0-0.98-0.08-2.38-0.28-3.36H118c-0.11,0.98-0.25,2.21-0.25,3.36v4.14
					c3.75,1.09,9.13,3.08,11.7,4.34l-1.6,3.86c-2.88-1.51-7.08-3.14-10.11-4.17v7.92c0,0.81,0.14,2.77,0.25,3.92h-4.37
					c0.17-1.12,0.28-2.8,0.28-3.92V3.64z"/>
				<path class="st19" d="M136.12,19.85l-3.05-2.07c1.88-1.76,4.12-4.84,5.26-7.22l3.19,1.48C140.23,14.53,137.63,18.2,136.12,19.85
					z M147.85,2.44v2.24h6.5c0.81,0,2.02-0.08,2.77-0.2v3.67c-0.87-0.06-1.96-0.08-2.74-0.08h-6.52v13.02
					c0,1.62-0.95,2.63-2.94,2.63c-1.48,0-3.14-0.06-4.54-0.25l-0.36-3.47c1.2,0.22,2.44,0.34,3.14,0.34c0.73,0,0.98-0.28,1.01-1.01
					c0.03-1.04,0.03-9.91,0.03-11.23V8.06h-7.11c-0.84,0-1.9,0.03-2.69,0.11v-3.7c0.84,0.08,1.82,0.2,2.69,0.2h7.11V2.44
					c0-0.73-0.14-1.96-0.22-2.44h4.14C148.02,0.39,147.85,1.74,147.85,2.44z M158.32,17.84l-3.28,1.79c-1.2-2.38-3.19-5.77-4.56-7.5
					l3.05-1.65C154.96,12.26,157.2,15.79,158.32,17.84z"/>
				<path class="st19" d="M166.25,9.63h15.04c1.32,0,2.55-0.11,3.28-0.17v4.4c-0.67-0.03-2.1-0.14-3.28-0.14h-15.04
					c-1.6,0-3.47,0.06-4.51,0.14v-4.4C162.75,9.55,164.79,9.63,166.25,9.63z"/>
				<path class="st19" d="M192.17,14.7c0.78-2.41,0.81-7.7,0.81-11.09c0-1.12-0.08-1.88-0.25-2.58h4.12
					c-0.03,0.14-0.2,1.37-0.2,2.55c0,3.3-0.08,9.21-0.84,12.04c-0.84,3.16-2.6,5.91-4.98,8.04l-3.42-2.27
					C189.88,19.66,191.39,17.08,192.17,14.7z M200.6,19.74V3.42c0-1.26-0.2-2.32-0.22-2.41h4.17c-0.03,0.08-0.2,1.18-0.2,2.44v14.64
					c2.27-0.98,5.04-3.19,6.92-5.91l2.16,3.08c-2.32,3.02-6.36,6.05-9.49,7.64c-0.62,0.34-0.95,0.62-1.2,0.84l-2.35-1.93
					C200.49,21.28,200.6,20.5,200.6,19.74z"/>
				<path class="st19" d="M66.14,58.51c-1.58,0.85-3.56,1.28-5.93,1.28c-3.02,0-5.45-1-7.3-2.99c-1.85-1.99-2.77-4.56-2.77-7.72
					c0-3.31,1.01-6.06,3.04-8.25c2.03-2.18,4.66-3.28,7.9-3.28c2.04,0,3.72,0.3,5.05,0.89v2.55c-1.54-0.85-3.25-1.28-5.11-1.28
					c-2.55,0-4.59,0.86-6.12,2.58c-1.52,1.72-2.28,3.93-2.28,6.63c0,2.56,0.71,4.66,2.14,6.28c1.42,1.62,3.34,2.43,5.73,2.43
					c2.17,0,4.04-0.48,5.64-1.44V58.51z"/>
				<path class="st19" d="M69.18,51.95c0-2.55,0.7-4.56,2.09-6.03c1.39-1.47,3.29-2.2,5.68-2.2c2.26,0,4.03,0.71,5.31,2.12
					c1.28,1.42,1.92,3.37,1.92,5.87c0,2.42-0.69,4.38-2.08,5.86c-1.39,1.48-3.23,2.22-5.51,2.22c-2.21,0-4-0.71-5.37-2.14
					C69.86,56.23,69.18,54.32,69.18,51.95z M71.54,51.85c0,1.81,0.47,3.26,1.42,4.35c0.95,1.08,2.21,1.62,3.8,1.62
					c1.61,0,2.86-0.53,3.74-1.58c0.88-1.05,1.33-2.54,1.33-4.44c0-1.95-0.44-3.46-1.31-4.52c-0.87-1.06-2.13-1.59-3.75-1.59
					c-1.59,0-2.86,0.55-3.8,1.64S71.54,49.93,71.54,51.85z"/>
				<path class="st19" d="M100.78,59.43h-2.32v-8.77c0-3.31-1.21-4.97-3.64-4.97c-1.27,0-2.31,0.47-3.12,1.42
					c-0.81,0.95-1.22,2.14-1.22,3.56v8.76h-2.32V44.07h2.32v2.57h0.07c1.15-1.95,2.83-2.93,5.04-2.93c1.68,0,2.97,0.54,3.86,1.62
					c0.89,1.08,1.33,2.65,1.33,4.71V59.43z"/>
				<path class="st19" d="M115.85,58.71c-1.19,0.72-2.58,1.08-4.16,1.08c-2.17,0-3.93-0.71-5.27-2.13
					c-1.34-1.42-2.01-3.27-2.01-5.55c0-2.55,0.72-4.58,2.17-6.11c1.44-1.53,3.36-2.29,5.76-2.29c1.32,0,2.5,0.25,3.54,0.75v2.43
					c-1.15-0.81-2.37-1.21-3.68-1.21c-1.57,0-2.87,0.57-3.89,1.7c-1.02,1.13-1.53,2.64-1.53,4.52c0,1.83,0.48,3.28,1.43,4.33
					c0.95,1.06,2.24,1.58,3.84,1.58c1.36,0,2.63-0.45,3.8-1.35V58.71z"/>
				<path class="st19" d="M131.85,52.32h-10.88c0.05,1.77,0.51,3.12,1.4,4.07c0.89,0.94,2.1,1.42,3.65,1.42
					c1.73,0,3.33-0.58,4.79-1.74v2.22c-1.34,1-3.12,1.5-5.33,1.5c-2.14,0-3.83-0.7-5.06-2.1s-1.85-3.36-1.85-5.9
					c0-2.33,0.67-4.26,2.01-5.79c1.34-1.53,3.01-2.29,5.02-2.29c1.97,0,3.51,0.65,4.61,1.94c1.1,1.3,1.65,3.1,1.65,5.41V52.32z
					 M129.46,50.28c-0.01-1.44-0.36-2.57-1.04-3.37c-0.68-0.8-1.64-1.2-2.87-1.2c-1.12,0-2.1,0.4-2.95,1.21s-1.38,1.92-1.6,3.36
					H129.46z"/>
				<path class="st19" d="M143.51,46.45c-0.43-0.32-1.04-0.49-1.85-0.49c-1.08,0-1.97,0.52-2.67,1.55c-0.7,1.03-1.05,2.39-1.05,4.06
					v7.86h-2.32V44.07h2.32v3.18h0.07c0.35-1.09,0.89-1.94,1.61-2.54s1.52-0.9,2.39-0.9c0.66,0,1.16,0.07,1.5,0.21V46.45z"/>
				<path class="st19" d="M154.07,59.28c-0.56,0.32-1.31,0.49-2.24,0.49c-2.64,0-3.96-1.49-3.96-4.46v-9.23h-2.67v-2h2.67V40.3
					l2.3-0.75v4.53h3.89v2h-3.89v8.82c0,1.05,0.18,1.79,0.53,2.23s0.94,0.67,1.76,0.67c0.64,0,1.17-0.17,1.6-0.51V59.28z"/>
				<path class="st19" d="M180.84,59.43h-2.36v-9.87H167.2v9.87h-2.36v-21.5h2.36v9.5h11.27v-9.5h2.36V59.43z"/>
				<path class="st19" d="M186.56,45.17c1.51-0.97,3.23-1.46,5.18-1.46c3.56,0,5.34,1.89,5.34,5.68v10.04h-2.32v-2.42h-0.08
					c-1.06,1.85-2.64,2.78-4.72,2.78c-1.52,0-2.71-0.41-3.59-1.21c-0.88-0.81-1.31-1.88-1.31-3.21c0-2.84,1.68-4.5,5.05-4.98
					l4.64-0.67c0-2.67-1.06-4-3.19-4c-1.86,0-3.53,0.63-5,1.9V45.17z M190.98,52.14c-1.31,0.18-2.23,0.49-2.74,0.95
					s-0.77,1.16-0.77,2.12c0,0.77,0.28,1.39,0.83,1.87c0.55,0.48,1.27,0.72,2.16,0.72c1.23,0,2.25-0.44,3.07-1.32
					c0.81-0.88,1.22-1.98,1.22-3.29v-1.55L190.98,52.14z"/>
				<path class="st19" d="M201.77,59.43V36.7h2.3v22.72H201.77z"/>
				<path class="st19" d="M209.14,59.43V36.7h2.3v22.72H209.14z"/>
			</g>
		</g>
	</g>
</g>
<g id="瀏海">
</g>
<g id="圖層_3" class="st0">
</g>
<g id="圖層_4">
</g>
<g id="分">
</g>
</svg>
