<?xml version="1.0" encoding="utf-8"?>
<!-- Generator: Adobe Illustrator 26.2.1, SVG Export Plug-In . SVG Version: 6.00 Build 0)  -->
<svg version="1.1" xmlns="http://www.w3.org/2000/svg" xmlns:xlink="http://www.w3.org/1999/xlink" x="0px" y="0px"
	 viewBox="0 0 208.83 67.92" style="enable-background:new 0 0 208.83 67.92;" xml:space="preserve">
<style type="text/css">
	.st0{display:none;}
	.st1{opacity:0.5;fill:#231815;}
	.st2{opacity:0.5;fill:url(#SVGID_00000108290220929115093800000013443524459400199342_);}
	.st3{opacity:0.25;fill:#CCC8C7;}
	.st4{opacity:0.6;fill:url(#SVGID_00000080912632707705544270000013016857446399728566_);}
	.st5{opacity:0.6;fill:url(#SVGID_00000084524790814336901830000000071935885823766167_);}
	.st6{opacity:0.6;fill:url(#SVGID_00000046340879747659465350000017616750032139979177_);}
	.st7{opacity:0.6;fill:url(#SVGID_00000141440560538610813920000007700714289725059981_);}
	.st8{clip-path:url(#SVGID_00000140008139573562902330000015865206625130711729_);}
	.st9{clip-path:url(#SVGID_00000182497426180838442470000001346566334436635813_);}
	.st10{clip-path:url(#SVGID_00000044899038081162099780000010690947165182988969_);}
	.st11{clip-path:url(#SVGID_00000181785842749670428070000003892193908814870934_);}
	.st12{clip-path:url(#SVGID_00000142170772915948675880000005526460630768959416_);}
	.st13{clip-path:url(#SVGID_00000137091186958379950980000011159994209242913471_);}
	
		.st14{clip-path:url(#SVGID_00000153675537375962723800000007367295728173692059_);fill:url(#SVGID_00000062892383874776850820000005251697321426331030_);}
	.st15{opacity:0.85;fill:none;stroke:#B77B49;stroke-width:5;stroke-miterlimit:10;}
	
		.st16{clip-path:url(#SVGID_00000178886748185281200080000013772596188767991214_);fill:url(#SVGID_00000040544625200048245050000006862989110095973505_);}
	.st17{opacity:0.85;clip-path:url(#SVGID_00000082342270464002583910000001092897725870998691_);fill:#B93322;}
	.st18{opacity:0.85;clip-path:url(#SVGID_00000145753956284164173210000004062032382081596818_);fill:#B18448;}
	.st19{fill:#FFFFFF;}
	.st20{fill:none;stroke:#FFFFFF;stroke-width:2;stroke-linecap:round;stroke-linejoin:round;stroke-miterlimit:10;}
	.st21{fill:none;stroke:#FFFFFF;stroke-width:3;stroke-miterlimit:10;}
	.st22{fill:url(#SVGID_00000047765891736637638600000015746334127566617986_);}
	.st23{fill:none;stroke:#FFFFFF;stroke-width:0.7;stroke-miterlimit:10;}
	.st24{opacity:0.85;clip-path:url(#SVGID_00000106865271846752555190000012238704200314729902_);fill:#A2A67E;}
	.st25{fill:url(#SVGID_00000009565725809975335900000011038421564883467415_);}
	.st26{opacity:0.85;clip-path:url(#SVGID_00000165957275166418052120000012514555397777270428_);fill:#C6741E;}
	.st27{opacity:0.89;fill:#DEAD5E;}
	.st28{fill:none;stroke:#FFFFFF;stroke-width:2;stroke-miterlimit:10;}
	.st29{fill:url(#SVGID_00000074429691960709052360000017564250787163377317_);}
	.st30{fill:url(#SVGID_00000144328468407831983640000001787792632091468687_);}
	.st31{opacity:0.85;clip-path:url(#SVGID_00000183225452531934271180000012637567926913076366_);fill:#8B9697;}
	.st32{opacity:0.85;fill:#174354;}
	.st33{fill:url(#SVGID_00000127730924319962147710000000234552565647139257_);}
	.st34{opacity:0.85;clip-path:url(#SVGID_00000098907042256919151970000000480408741208842686_);fill:#174354;}
	.st35{fill:#9E9E9F;}
	.st36{fill:url(#SVGID_00000130644017103710247370000005686158822426276754_);}
	.st37{fill:url(#SVGID_00000076599276195111247020000012785165324046292361_);}
	.st38{fill:url(#SVGID_00000057113682410575240680000000355121013955417230_);}
	.st39{fill-rule:evenodd;clip-rule:evenodd;fill:#FFFFFF;}
	.st40{fill:url(#SVGID_00000116219689972630987310000002124318120527449491_);}
	.st41{fill:url(#SVGID_00000013188631272533691500000006158785362528754093_);}
	.st42{fill:url(#SVGID_00000017481374331293627610000011050923024437361814_);}
	.st43{fill:url(#SVGID_00000145764621968004922290000018378804305892942783_);}
	.st44{fill:#434343;}
	.st45{fill:url(#SVGID_00000081607668752559044340000016125336943083001237_);}
	.st46{opacity:0.6;}
	.st47{clip-path:url(#SVGID_00000137852819700589619240000000052434916421998978_);fill:#FFFFFF;}
	.st48{clip-path:url(#SVGID_00000154393076305039020930000015965294481975040442_);fill:#FFFFFF;}
	.st49{fill:url(#SVGID_00000005964655815030416990000002042737241504277931_);}
	.st50{clip-path:url(#SVGID_00000093156200893846623400000001195063985622658176_);fill:#FFFFFF;}
	.st51{fill:none;stroke:#FFFFFF;stroke-miterlimit:10;}
	.st52{fill:url(#SVGID_00000050640451787287118800000007062342272351596715_);}
	.st53{fill:url(#SVGID_00000015330921062463867180000000331371849715240104_);}
	.st54{fill:url(#SVGID_00000145771069404762813580000007937326745131495588_);}
	.st55{fill:url(#SVGID_00000148659991826100295800000009314430471099479951_);}
	.st56{fill:#D0121B;}
	.st57{fill:#C9CACA;}
	.st58{fill:#595757;}
	.st59{fill:#FFF100;}
	.st60{fill:#00B9EF;}
	.st61{fill:#EA5504;}
	.st62{fill:url(#SVGID_00000009589079384388820730000006674165550087336593_);}
	.st63{fill:url(#SVGID_00000132807504535877930420000003669183874760879232_);}
	.st64{fill:url(#SVGID_00000091711810245157235680000017822391135931143571_);}
	.st65{fill:url(#SVGID_00000011737034620989112360000011766986747870192552_);}
	.st66{fill:url(#SVGID_00000039122349539113534580000002063725046822516412_);}
	.st67{fill:url(#SVGID_00000103236492873604683170000004463126998084488323_);}
	.st68{opacity:0.75;fill:#666666;}
	.st69{opacity:0.5;clip-path:url(#SVGID_00000027597677144427557270000007719822568518700223_);fill:#231815;}
	
		.st70{clip-path:url(#SVGID_00000027597677144427557270000007719822568518700223_);fill:url(#SVGID_00000029759245514592686470000002500334557380290745_);}
	.st71{clip-path:url(#SVGID_00000027597677144427557270000007719822568518700223_);}
	.st72{opacity:0.85;clip-path:url(#SVGID_00000124127597992510263590000005369689239198745218_);fill:#C6741E;}
	.st73{clip-path:url(#SVGID_00000084488010641391160210000015789979535533850813_);}
	.st74{clip-path:url(#SVGID_00000114772090161265276400000003446243867438199713_);}
	.st75{opacity:0.85;fill:#B77B49;}
	.st76{clip-path:url(#SVGID_00000179612946727644033380000003307520423181443247_);}
	.st77{clip-path:url(#SVGID_00000124133334238756939810000007435827207123528629_);}
	.st78{clip-path:url(#SVGID_00000093140785930245518880000014935747729411012748_);}
	.st79{clip-path:url(#SVGID_00000180356142695441199530000007484586633602791821_);}
	.st80{clip-path:url(#SVGID_00000148637868022141232810000017104427661324205226_);}
	.st81{clip-path:url(#SVGID_00000133503888828826414330000008883814848580464026_);}
	.st82{clip-path:url(#SVGID_00000111185365261232538380000002415050377676868518_);}
	.st83{clip-path:url(#SVGID_00000046312082322802169010000000963389478645836450_);}
	.st84{clip-path:url(#SVGID_00000046321115070384019760000007932829549035311020_);}
	.st85{clip-path:url(#SVGID_00000079464845162617474420000006017188728310130092_);}
	.st86{clip-path:url(#SVGID_00000160880447359873782830000014632614460581886859_);}
	.st87{clip-path:url(#SVGID_00000109739428801379796720000008044474309290187143_);}
	.st88{clip-path:url(#SVGID_00000049938919911606374860000013507813748946767264_);}
	.st89{clip-path:url(#SVGID_00000099634598832991194480000015791728420828998016_);}
	.st90{clip-path:url(#SVGID_00000078025987910595856250000015602994297098897831_);}
	.st91{clip-path:url(#SVGID_00000168108329214594636170000001045675666461738369_);}
	.st92{clip-path:url(#SVGID_00000162346096985087983850000016219862326473544891_);}
	.st93{clip-path:url(#SVGID_00000183964200363375434790000005199492230233985688_);}
	.st94{clip-path:url(#SVGID_00000097475767945068052110000011542105384743352472_);}
	.st95{clip-path:url(#SVGID_00000025407997365716089060000000150798780811881091_);}
	.st96{clip-path:url(#SVGID_00000044857952412730788100000008922446527095393203_);}
	.st97{clip-path:url(#SVGID_00000150805133052259268300000016842001188689614239_);}
	.st98{clip-path:url(#SVGID_00000078734644328843466460000006041796979957321368_);}
	.st99{fill:none;stroke:#B77B49;stroke-miterlimit:10;}
	.st100{clip-path:url(#SVGID_00000140721196781783910760000006930428382568588168_);}
	.st101{clip-path:url(#SVGID_00000102525944376970448510000016773236061874793384_);}
	.st102{clip-path:url(#SVGID_00000021829896379891108350000007240546661311684789_);}
	.st103{clip-path:url(#SVGID_00000085944448512686326900000017250475029452864178_);}
	.st104{clip-path:url(#SVGID_00000035523489947511774160000011020333114007895977_);}
	.st105{fill:#0F2C35;}
	.st106{fill:#AF3F36;}
	.st107{fill:#B27848;}
	.st108{fill:#FFFFFF;stroke:#231815;stroke-miterlimit:10;}
	.st109{fill:#B18448;}
	.st110{fill:#C6741E;}
	.st111{fill:#A2A67E;}
	.st112{fill:#8B9697;}
	.st113{fill:#174354;}
	.st114{clip-path:url(#SVGID_00000003791618358890573460000014343106450761870255_);}
	.st115{clip-path:url(#SVGID_00000140003782037900676780000006532665699892487322_);fill:#595757;}
	.st116{clip-path:url(#SVGID_00000080885059970716617860000015916639727895352226_);}
	.st117{clip-path:url(#SVGID_00000037686632503028432800000001064092439385828485_);}
	.st118{clip-path:url(#SVGID_00000128471629791188618180000009016222170935254931_);}
	.st119{clip-path:url(#SVGID_00000135657366187560819680000003933743825069424777_);}
	.st120{clip-path:url(#SVGID_00000065048361030572236820000007478780701928684986_);}
	.st121{clip-path:url(#SVGID_00000015319997340048598040000016704335474264706463_);}
	.st122{clip-path:url(#SVGID_00000142857566319392414010000014010425100385180576_);}
	.st123{clip-path:url(#SVGID_00000041981197446584186390000004003334586766736302_);}
	.st124{clip-path:url(#SVGID_00000014598108322832336180000010662043874492288132_);}
	.st125{clip-path:url(#SVGID_00000021835596325898093100000014444864271108163260_);}
	.st126{clip-path:url(#SVGID_00000020383080763464016670000005574837093669848202_);}
	.st127{clip-path:url(#SVGID_00000096766751745756101410000005625162874692305322_);}
	.st128{clip-path:url(#SVGID_00000056401651522454183830000015020392024888986535_);}
	.st129{clip-path:url(#SVGID_00000132769700393480782700000005500324545377603230_);}
	.st130{clip-path:url(#SVGID_00000103957951291661066310000002702218341707549062_);}
	.st131{clip-path:url(#SVGID_00000050656027937056675840000010940572287806796417_);}
	.st132{clip-path:url(#SVGID_00000090273087597997200360000007689225398277757373_);}
	.st133{clip-path:url(#SVGID_00000049936116580047515580000014567986779011560328_);}
	
		.st134{clip-path:url(#SVGID_00000128484465620809740040000009746708055174178492_);fill:url(#SVGID_00000085225430556964117650000014103188670847906235_);}
	.st135{clip-path:url(#SVGID_00000124860696756833763470000016573181708959348641_);}
	.st136{clip-path:url(#SVGID_00000101824786788325558090000005654812743271619734_);fill:#D0121B;}
	.st137{clip-path:url(#SVGID_00000117657262163513411710000010584988636849232786_);}
	.st138{clip-path:url(#SVGID_00000078734101870510939280000015824353739279115928_);fill:#C9CACA;}
	.st139{clip-path:url(#SVGID_00000084487945286118569600000017209366114862766507_);}
	.st140{clip-path:url(#SVGID_00000068639979751669231110000010167658839850464181_);fill:#EA5504;}
	.st141{clip-path:url(#SVGID_00000002379252720570197520000005985450725648855197_);}
	.st142{clip-path:url(#SVGID_00000097492090492277309060000009719694414225250729_);fill:#FFF100;}
	.st143{clip-path:url(#SVGID_00000092427504885845955630000000427650981864925329_);}
	.st144{clip-path:url(#SVGID_00000049200776093894977990000006540710410756887465_);fill:#00B9EF;}
</style>
<g id="圖層_6" class="st0">
</g>
<g id="底屠">
</g>
<g id="物件">
	<g>
		<defs>
			<rect id="SVGID_00000093861051299419042130000009025263115443705279_" width="208.83" height="67.92"/>
		</defs>
		<clipPath id="SVGID_00000161607935541759234970000009938923275289589144_">
			<use xlink:href="#SVGID_00000093861051299419042130000009025263115443705279_"  style="overflow:visible;"/>
		</clipPath>
		<g style="clip-path:url(#SVGID_00000161607935541759234970000009938923275289589144_);">
			<g>
				<path class="st19" d="M73.61,17.02c-0.25-0.81-0.76-2.1-1.26-3.33v12.66h-2.88V16.21c-0.59,1.99-1.29,3.81-2.07,5.1
					c-0.25-0.84-0.9-2.02-1.32-2.74c1.4-2.18,2.69-6.19,3.3-9.55H66.7V5.99h2.77V0.22h2.88v5.77h2.16v3.02h-2.16V9.8
					c0.67,1.09,2.41,4.17,2.77,4.9L73.61,17.02z M84.65,21.5l0.17,2.69c-3.58,0.62-7.39,1.2-10.25,1.68l-0.76-2.86
					c1.57-0.2,3.61-0.48,5.82-0.78l-0.11-0.03c0.5-1.34,1.06-3.36,1.32-4.82l3,0.7c-0.45,1.29-0.95,2.63-1.4,3.75L84.65,21.5z
					 M78.01,5.32h-3.42V2.69h3.42V0.25h2.83v2.44h3.56v2.63h-3.56v1.6h3v2.6h-8.79v-2.6h2.97V5.32z M83.58,17.11h-8.34V10.5h8.34
					V17.11z M76.22,22.2c-0.11-1.04-0.5-2.74-0.92-4.03l2.55-0.64c0.45,1.26,0.92,2.88,1.04,3.92L76.22,22.2z M80.78,12.77h-2.83
					v2.07h2.83V12.77z M92.46,9.24h-1.57v13.64c0,1.51-0.25,2.35-1.12,2.88c-0.84,0.5-2.07,0.64-3.81,0.64
					c-0.11-0.84-0.56-2.21-0.95-3.08c1.04,0.06,2.02,0.06,2.35,0.06c0.36-0.03,0.48-0.14,0.48-0.5v-4.7l-2.38,0.84
					c-0.14-1.85-0.76-4.84-1.43-7.17l2.41-0.7c0.56,1.74,1.09,3.86,1.4,5.54V9.24h-3.42V6.27h3.42V0.31h3.05v5.96h1.57V9.24z"/>
				<path class="st19" d="M117.38,23.04c1.93,0,2.24-0.5,2.49-3.61c0.73,0.48,2.04,0.95,2.94,1.12c-0.5,4.28-1.48,5.38-5.26,5.38
					h-7.31c-4.4,0-5.66-0.9-5.66-4.12v-6.47h-2.04v1.18c0,3.05-0.76,7.11-4.12,9.77c-0.39-0.62-1.65-1.88-2.27-2.3
					c2.91-2.24,3.3-5.26,3.3-7.56v-1.09h-2.63v-3.08h13.02v3.08h-2.16v6.44c0,1.06,0.39,1.26,2.69,1.26H117.38z M98.81,6.89H97.5
					V1.43h24.02v5.46h-2.3v2.04h2.88v3h-2.88v6.64c0,1.46-0.25,2.24-1.26,2.72c-0.95,0.48-2.24,0.53-4.03,0.5
					c-0.11-0.81-0.59-2.04-1.01-2.86c1.15,0.03,2.32,0.03,2.69,0.03c0.36,0,0.48-0.11,0.48-0.45v-6.58h-6.36v-3h6.36V6.24h1.99V4.51
					h-17.3v2.27h8.01v3.05h-9.97V6.89z M112.79,12.68c0.98,1.29,1.9,3.02,2.27,4.23l-2.72,1.23c-0.31-1.23-1.2-3.08-2.13-4.4
					L112.79,12.68z"/>
				<path class="st19" d="M132.25,4.14h15.4c0.7,0,1.76,0,2.77-0.06c-0.06,0.84-0.06,1.88-0.06,2.72v13.72
					c0,1.09,0.06,3.78,0.06,3.89h-3.86c0-0.06,0.03-0.7,0.03-1.51h-13.5c0.03,0.78,0.03,1.43,0.03,1.51h-3.86
					c0-0.14,0.08-2.58,0.08-3.92V6.8c0-0.78,0-1.93-0.06-2.72C130.43,4.12,131.49,4.14,132.25,4.14z M133.09,19.32h13.52V7.7h-13.52
					V19.32z"/>
				<path class="st19" d="M164,5.38v5.29c3.3-0.81,7.2-2.04,9.69-3.11c1.01-0.39,1.96-0.84,3.05-1.51l1.51,3.56
					c-1.09,0.45-2.35,0.98-3.28,1.32c-2.83,1.12-7.34,2.52-10.98,3.42v5.18c0,1.2,0.56,1.51,1.82,1.76
					c0.84,0.11,1.99,0.17,3.25,0.17c2.91,0,7.45-0.36,9.74-0.98v4.09c-2.63,0.39-6.89,0.59-9.97,0.59c-1.82,0-3.5-0.11-4.7-0.31
					c-2.44-0.45-3.84-1.79-3.84-4.2V5.38c0-0.62-0.08-2.07-0.22-2.91h4.14C164.08,3.3,164,4.59,164,5.38z M178.53,5.1l-2.27,0.95
					c-0.56-1.15-1.43-2.8-2.18-3.89l2.21-0.9C176.99,2.3,178,4.06,178.53,5.1z M181.86,3.81l-2.21,0.95
					c-0.59-1.18-1.48-2.8-2.27-3.86l2.21-0.9C180.35,1.04,181.39,2.83,181.86,3.81z"/>
				<path class="st19" d="M190.51,11.14h15.04c1.32,0,2.55-0.11,3.28-0.17v4.4c-0.67-0.03-2.1-0.14-3.28-0.14h-15.04
					c-1.6,0-3.47,0.06-4.51,0.14v-4.4C187.01,11.06,189.06,11.14,190.51,11.14z"/>
				<path class="st19" d="M82.85,60.02c-1.58,0.85-3.56,1.28-5.93,1.28c-3.02,0-5.45-1-7.3-2.99c-1.85-1.99-2.77-4.56-2.77-7.72
					c0-3.31,1.01-6.06,3.04-8.25c2.03-2.18,4.66-3.28,7.9-3.28c2.04,0,3.72,0.3,5.05,0.89v2.55c-1.55-0.85-3.25-1.28-5.11-1.28
					c-2.55,0-4.59,0.86-6.12,2.58c-1.52,1.72-2.28,3.93-2.28,6.63c0,2.56,0.71,4.66,2.14,6.28c1.42,1.62,3.34,2.43,5.73,2.43
					c2.17,0,4.04-0.48,5.64-1.44V60.02z"/>
				<path class="st19" d="M94.82,47.96c-0.43-0.32-1.04-0.49-1.85-0.49c-1.08,0-1.97,0.52-2.67,1.55c-0.7,1.03-1.05,2.39-1.05,4.06
					v7.86h-2.32V45.59h2.32v3.18h0.07c0.35-1.09,0.89-1.94,1.61-2.54s1.52-0.9,2.39-0.9c0.66,0,1.16,0.07,1.5,0.21V47.96z"/>
				<path class="st19" d="M96.07,53.46c0-2.55,0.7-4.56,2.09-6.03c1.39-1.47,3.29-2.2,5.69-2.2c2.26,0,4.03,0.71,5.31,2.12
					c1.28,1.42,1.92,3.37,1.92,5.87c0,2.42-0.69,4.38-2.08,5.86c-1.39,1.48-3.23,2.22-5.51,2.22c-2.21,0-4-0.71-5.37-2.14
					C96.75,57.74,96.07,55.84,96.07,53.46z M98.43,53.36c0,1.81,0.47,3.26,1.42,4.35s2.21,1.62,3.8,1.62c1.61,0,2.86-0.53,3.74-1.58
					c0.88-1.05,1.33-2.54,1.33-4.44c0-1.95-0.44-3.46-1.31-4.52c-0.87-1.06-2.13-1.59-3.75-1.59c-1.59,0-2.86,0.55-3.8,1.64
					C98.9,49.94,98.43,51.44,98.43,53.36z"/>
				<path class="st19" d="M134.2,45.59l-4.61,15.35h-2.4l-3.22-11.12c-0.12-0.42-0.2-0.88-0.24-1.39h-0.06
					c-0.01,0.26-0.12,0.71-0.32,1.36l-3.48,11.15h-2.3l-4.66-15.35h2.43l3.25,11.65c0.1,0.37,0.17,0.82,0.21,1.36h0.11
					c0.04-0.43,0.13-0.89,0.28-1.39l3.6-11.62h2.11l3.23,11.67c0.08,0.31,0.16,0.77,0.22,1.36h0.12c0.01-0.38,0.09-0.83,0.25-1.36
					l3.19-11.67H134.2z"/>
				<path class="st19" d="M149.69,60.94h-2.32v-8.77c0-3.31-1.21-4.97-3.64-4.97c-1.27,0-2.31,0.47-3.12,1.42
					c-0.81,0.95-1.22,2.14-1.22,3.56v8.76h-2.32V45.59h2.32v2.57h0.07c1.15-1.95,2.83-2.93,5.04-2.93c1.68,0,2.97,0.54,3.86,1.62
					c0.89,1.08,1.33,2.65,1.33,4.71V60.94z"/>
				<path class="st19" d="M177.8,60.94h-2.36v-9.87h-11.27v9.87h-2.36v-21.5h2.36v9.5h11.27v-9.5h2.36V60.94z"/>
				<path class="st19" d="M183.52,46.68c1.51-0.97,3.23-1.46,5.18-1.46c3.56,0,5.34,1.89,5.34,5.68v10.04h-2.32v-2.42h-0.08
					c-1.06,1.85-2.64,2.78-4.72,2.78c-1.52,0-2.71-0.41-3.59-1.21s-1.31-1.88-1.31-3.21c0-2.84,1.68-4.5,5.05-4.98l4.64-0.67
					c0-2.67-1.06-4-3.19-4c-1.86,0-3.53,0.63-5,1.9V46.68z M187.95,53.65c-1.31,0.18-2.23,0.49-2.74,0.95
					c-0.51,0.46-0.77,1.16-0.77,2.12c0,0.77,0.27,1.39,0.83,1.87c0.55,0.48,1.27,0.72,2.16,0.72c1.23,0,2.25-0.44,3.07-1.32
					c0.81-0.88,1.22-1.98,1.22-3.29v-1.55L187.95,53.65z"/>
				<path class="st19" d="M198.74,60.94V38.21h2.3v22.72H198.74z"/>
				<path class="st19" d="M206.11,60.94V38.21h2.3v22.72H206.11z"/>
			</g>
		</g>
	</g>
</g>
<g id="瀏海">
</g>
<g id="圖層_3" class="st0">
</g>
<g id="圖層_4">
</g>
<g id="分">
</g>
</svg>
