<?xml version="1.0" encoding="utf-8"?>
<!-- Generator: Adobe Illustrator 26.2.1, SVG Export Plug-In . SVG Version: 6.00 Build 0)  -->
<svg version="1.1" id="圖層_1" xmlns="http://www.w3.org/2000/svg" xmlns:xlink="http://www.w3.org/1999/xlink" x="0px" y="0px"
	 viewBox="0 0 19.01 19.01" style="enable-background:new 0 0 19.01 19.01;" xml:space="preserve">
<style type="text/css">
	.st0{fill-rule:evenodd;clip-rule:evenodd;fill:#FFFFFF;}
</style>
<g>
	<path class="st0" d="M5.48,2.34c0.06-0.29-0.18-0.26-0.7,0.1C4.32,2.59,4.21,2.73,4.46,2.87C4.9,2.99,5.1,3.19,5.09,3.45
		c0.02,0.38,0.12,0.37,0.3-0.03c0-0.09,0.13-0.17,0.38-0.25c0.17-0.05,0.21-0.15,0.12-0.32C5.83,2.76,5.92,2.57,6.16,2.27
		c0.43-0.35,0.56-0.53,0.36-0.52C6.34,1.7,6.17,1.76,6.01,1.94C5.97,2.16,5.85,2.33,5.65,2.43C5.57,2.43,5.51,2.41,5.48,2.34
		 M14.68,4.78L14.68,4.78c0.39,0.66,0.69,0.96,0.92,0.9c0.1-0.11,0.24-0.12,0.41-0.02c0.15,0.08,0.37,0.07,0.65-0.01
		c0.32-0.04,0.38,0.12,0.2,0.49c-0.26,0.25-0.72,0.3-1.37,0.15c-0.26-0.12-0.45-0.12-0.55-0.01c-0.18,0.1-0.4,0.05-0.67-0.15
		c-0.2-0.03-0.29-0.14-0.27-0.33c0.17-0.27-0.05-0.36-0.66-0.27c-0.36,0.15-0.62,0.24-0.78,0.25c-0.02,0.01-0.03,0.01-0.05,0.02
		c-0.19-0.04-0.22-0.09-0.09-0.16c0.35-0.02,0.56-0.17,0.63-0.46c0.02-0.17,0.18-0.29,0.48-0.35c0.26-0.02,0.46-0.12,0.58-0.32
		C14.21,4.38,14.5,4.46,14.68,4.78z M0.8,6.96c0.95-3.34,3.79-5.89,7.3-6.43c-0.3,0.05-0.3,0.21-0.43,0.22
		C7.35,0.8,7.21,0.87,7.16,0.96C6.79,1.59,8.4,1.48,7.88,1.88c-0.18,0.08-0.3,0.18-0.34,0.31C7.51,2.32,7.46,2.4,7.38,2.41
		c-0.25,0.04-0.42,0-0.64-0.11C6.5,2.26,6.47,2.28,6.41,2.37C6.34,2.58,6.47,2.66,6.83,2.68C7.04,2.54,7.11,2.55,7.15,2.7
		c0.01,0.25,0.11,0.39,0.3,0.42C7.66,3.25,7.72,3.4,7.62,3.56c-0.1,0.13-0.09,0.29,0.03,0.46c0.06,0.21-0.05,0.26-0.33,0.29
		C7.09,4.29,7.01,4.27,7.07,4.12c0.28-0.21,0.34-0.33,0.18-0.35c-0.29,0.15-0.5,0.21-0.63,0.18C6.43,3.92,6.38,3.98,6.48,4.1
		C6.41,4.27,6.51,4.32,6.8,4.25c0.15,0.02,0.16,0.1,0.04,0.23c-0.12,0.06-0.2,0.1-0.25,0.13C6.36,4.78,6.18,4.84,6.06,4.79
		c-0.16-0.2-0.7,0.19-0.89,0.46C4.94,5.54,4.91,5.7,4.81,5.75C4.18,6.07,4.07,6.16,4.06,7.02C4.03,7.2,3.79,7.21,3.75,7.06
		C3.63,6.74,3.62,6.55,3.21,6.55C2.57,6.6,2.2,6.78,2.11,7.1C2.02,7.42,2.03,7.67,2.15,7.84C2.32,8.07,2.5,8,2.71,7.64
		c0.12-0.15,0.26-0.15,0.3,0c0.03,0.1-0.41,0.99,0.08,0.74c0.14-0.04,0.27-0.18,0.29-0.07c-0.07,0.31-0.1,0.62-0.03,0.81
		c0.24,0.25,0.49,0.18,0.7-0.06c0.28-0.6,0.83-0.33,1.25-0.21C5.81,9,7.17,9.89,7.18,10.28c0.23,0.48,2.1,0.26,1.56,1.34
		c-0.51,0.8,0.07,1.54-0.48,1.67c-0.39,0.1-0.49,0.26-0.48,0.48c0.06,0.17-0.14,0.37-0.24,0.46c-0.22,0.45-0.47,0.78-0.92,1.14
		c-0.29,0.25-0.36,0.52-0.4,0.81c-0.11,0.42,0.05,0.78,0.48,1.1C6.92,17.5,6.9,17.6,6.63,17.6c-0.85-0.15-1.36-0.57-1.52-1.27
		c-0.02-0.38-0.06-0.78-0.13-1.19c-0.12-0.35-0.15-0.77-0.11-1.27c0.01-0.68-0.13-1.06-0.42-1.16c-0.18-0.04-0.32-0.15-0.42-0.31
		c-0.11-0.27-0.34-0.74-0.68-1.43c-0.08-0.17-0.06-0.34,0.09-0.53c0.21-0.19,0.37-0.4,0.48-0.62c0.07-0.18-0.01-0.28-0.24-0.31
		C3.48,9.43,3.23,9.25,2.94,8.98C2.67,8.64,2.31,8.35,1.9,8.34C1.55,8.16,1.29,8.07,1.09,7.86C1.06,7.51,0.98,7.17,0.8,6.96z
		 M0.65,7.54c0.01-0.06,0.03-0.12,0.04-0.18C0.74,7.53,0.72,7.57,0.65,7.54z M14.18,1.76c2.29,1.41,3.82,3.44,4.15,6.24
		c-0.25,0.16-0.4,0.58-0.77,0.07C17.39,7.52,17,7.11,16.79,6.85c-0.31-0.22-0.45-0.22-0.42,0.02c0.44,0.59,0.68,1.06,0.73,1.43
		c0.14,0.39,0.34,0.63,0.62,0.73c0.14,0.02,0.38,0.05,0.73-0.12c0.01,0.21,0.02,0.35,0.02,0.53c0,0.18,0,0.29-0.01,0.43
		c-0.03,0.04-0.06,0.07-0.1,0.11c-0.42,0.29-0.69,0.54-0.79,0.75c-0.04,0.31-0.03,0.7,0.02,1.19c0.06,0.36-0.06,0.64-0.35,0.84
		c-0.33,0.22-0.54,0.54-0.64,0.97c-0.34,0.66-0.68,1.03-1.01,1.1c-0.65,0.25-0.92,0.22-0.81-0.09c-0.22-1.49-0.75-1.83-0.68-2.64
		c0-1.01-0.21-1.81-0.72-2.17c-0.19-0.13-0.55-0.16-1.2-0.05c-0.36,0.09-0.6,0.02-0.73-0.22c-0.29-0.45-0.53-0.95-0.73-1.49
		c-0.23-0.57-0.13-0.98,0.31-1.23c0.45-0.2,0.7-0.41,0.75-0.64c0.41-0.3,0.53-0.5,0.36-0.58C12,5.65,11.95,5.56,11.98,5.43
		c0.3-0.35-0.15-0.79,0.65-0.68c0.28,0.1,0.4-0.48-0.02-0.56c-0.22-0.11-0.29-0.12-0.22-0.22c0.12-0.26,0-0.33-0.36-0.19
		c-0.15,0-0.18-0.06-0.08-0.19c0.16-0.31,0.33-0.55,0.51-0.74c0.32-0.21,0.46-0.2,0.43,0.02c-0.08,0.16-0.09,0.28-0.02,0.35
		c0.13,0.12,0.16,0.21,0.11,0.27c-0.05,0.19-0.01,0.25,0.13,0.2c0.12-0.06,0.29-0.2,0.51-0.42c0.19-0.2,0.14-0.33-0.15-0.4
		c-0.19-0.13-0.2-0.26-0.04-0.4c0.35-0.15,0.57-0.34,0.66-0.58C14.09,1.86,14.12,1.81,14.18,1.76z M9.46,0.43
		c0.81,0,1.6,0.11,2.34,0.31C11.69,0.82,11.63,0.91,11.61,1c-0.19,0.45-0.17,0.52-0.5,0.63C10.29,1.9,10.09,1.6,9.23,2.56
		c-0.33,0.3-0.47,0.24-0.5-0.02c-0.28-0.22-0.31-0.51,0-1.06C8.8,1.18,8.61,1.02,8.15,1C7.98,0.88,7.97,0.78,8.14,0.7
		c0.28-0.04,0.37-0.1,0.28-0.18c-0.12-0.01-0.22-0.01-0.3,0C8.55,0.46,9,0.43,9.46,0.43z"/>
	<path class="st0" d="M9.5,0.8C4.7,0.8,0.8,4.7,0.8,9.5s3.9,8.71,8.71,8.71s8.71-3.9,8.71-8.71S14.31,0.8,9.5,0.8 M9.5,0
		c5.25,0,9.5,4.26,9.5,9.5s-4.26,9.5-9.5,9.5S0,14.75,0,9.5S4.26,0,9.5,0z"/>
</g>
</svg>
