<svg xmlns="http://www.w3.org/2000/svg" viewBox="0 0 22.65 33.13"><defs><style>.cls-1{fill:#fff;fill-rule:evenodd;}</style></defs><g id="圖層_2" data-name="圖層 2"><g id="圖層_9" data-name="圖層 9"><path class="cls-1" d="M7.39,24.76H9V14.09a2.37,2.37,0,0,1,.69-1.66h0a2.34,2.34,0,0,1,3.31,0,2.37,2.37,0,0,1,.69,1.66V24.76h1.59c0-3.09.46-3.59,3.71-7.48l0,0a9.84,9.84,0,0,0,1.66-2.88,9.45,9.45,0,0,0,.57-3.25,9.55,9.55,0,0,0-2.9-6.85,10.06,10.06,0,0,0-14,0,9.55,9.55,0,0,0-2.9,6.85A9.45,9.45,0,0,0,2,14.36a9.84,9.84,0,0,0,1.66,2.88l0,0c3.25,3.89,3.67,4.39,3.71,7.48Zm3,0h1.85V14.09a.92.92,0,0,0-.27-.66,1,1,0,0,0-.65-.27.92.92,0,0,0-.66.27h0a.92.92,0,0,0-.27.66V24.76Zm6.27.12a1.26,1.26,0,0,1,.4.28,1.31,1.31,0,0,1,.4.95v.46a1.32,1.32,0,0,1-.25.78,1.29,1.29,0,0,1,.25.77v.46a1.31,1.31,0,0,1-.4,1,1.22,1.22,0,0,1-.41.29v.71h0a2.59,2.59,0,0,1-2.6,2.6H8.59A2.59,2.59,0,0,1,6,30.53v-.72a1.07,1.07,0,0,1-.41-.28,1.31,1.31,0,0,1-.4-1v-.46a1.29,1.29,0,0,1,.25-.77,1.32,1.32,0,0,1-.25-.78v-.46a1.31,1.31,0,0,1,.4-.95A1.07,1.07,0,0,1,5.74,25L6,24.88c0-2.69-.41-3.14-3.38-6.7l0,0a11.06,11.06,0,0,1-1.9-3.3A10.8,10.8,0,0,1,0,11.11,11,11,0,0,1,3.32,3.25a11.48,11.48,0,0,1,16,0,11,11,0,0,1,3.32,7.86A10.8,10.8,0,0,1,22,14.84a11.06,11.06,0,0,1-1.9,3.3l0,0c-3,3.56-3.34,4-3.38,6.7Zm-1.42,5.05H7.4v.6a1.2,1.2,0,0,0,1.19,1.19h5.47a1.2,1.2,0,0,0,1.19-1.19h0v-.6Zm.87-2H6.53a.2.2,0,0,0-.2.2v.46a.2.2,0,0,0,.2.2h9.59a.2.2,0,0,0,.2-.2v-.46a.2.2,0,0,0-.2-.2Zm-9.59-2h9.59a.2.2,0,0,1,.2.2v.46a.19.19,0,0,1-.2.2H6.53a.2.2,0,0,1-.2-.2v-.46a.2.2,0,0,1,.2-.2Z"/></g></g></svg>