<?xml version="1.0" encoding="utf-8"?>
<!-- Generator: Adobe Illustrator 26.2.1, SVG Export Plug-In . SVG Version: 6.00 Build 0)  -->
<svg version="1.1" id="圖層_1" xmlns="http://www.w3.org/2000/svg" xmlns:xlink="http://www.w3.org/1999/xlink" x="0px" y="0px"
	 viewBox="0 0 210.99 31.03" style="enable-background:new 0 0 210.99 31.03;" xml:space="preserve">
<style type="text/css">
	.st0{display:none;}
	.st1{fill:#FFFFFF;}
</style>
<g id="圖層_6" class="st0">
</g>
<g id="底屠">
</g>
<g id="物件">
	<g>
		<path id="XMLID_00000179625113220814493880000011575896819330229391_" class="st1" d="M61.95,11.85c-2.98-1.88-6.35-1.8-9.81-1.57
			c-5.04,0.33-8.58-0.62-12.51-3.69c-8.25-6.44-17.01-8.78-26.8-4.21C5.11,5.98,0,6.7,0,6.7v2.55c0,0,4.08-0.1,7.7,0.29
			c7.28,0.79,15.97,5.6,20.19,8.2c6.84,4.21,12.9,12,21.22,13.16c10.38,1.45,15.54-9.35,25.52-9.74c2.4-0.09,6.17-0.09,6.17-0.09
			v-1.11C74.38,19.96,70.77,17.39,61.95,11.85z M61.28,21.32c-1.82,1.45-4.46,5.17-6.77,2.72c-1.29-1.37-1.66-3.92-2.48-5.68
			C49.33,12.47,44.3,11,44.29,11c2.38,0.69,4.44,1.15,6.34,3.14c1.46,1.53,2.52,3.84,4.47,4.59c2.13,0.82,5.7-1.77,7.93-1.45
			c2.03,0.29,2.4,2.08,4.47,2.25C65.16,19.33,63.24,19.76,61.28,21.32z"/>
		<g id="XMLID_00000016051202015883995540000000709731125933305734_">
			<g id="XMLID_00000103975176306403956580000002176646586225291708_">
				<g id="XMLID_00000015324100552047811020000002530001241705229460_">
					<polygon id="XMLID_00000041987926283005839120000006889691839918764942_" class="st1" points="109.7,18.69 110.12,18.69 
						110.48,19.9 110.1,20.24 					"/>
					<polygon id="XMLID_00000022550312856406171060000017953642576498612133_" class="st1" points="110.88,21.29 111.65,20.18 
						113.4,21.18 113.68,20.76 111.92,19.8 112.81,18.59 112.11,18.59 110.12,21.29 109.7,21.29 109.7,23.46 110.3,23.46 
						110.3,21.79 114.2,21.79 114.2,21.29 					"/>
					<polygon id="XMLID_00000083793842687994620430000012143518226920376761_" class="st1" points="114.08,18.69 113.65,18.69 
						113.22,19.95 113.62,20.22 					"/>
					<path id="XMLID_00000088815356246507079450000014502015359454691481_" class="st1" d="M114.2,24.48l-2.59-0.01V23.4h2.59v-0.49
						h-3.27l0.02,2.05h2.65v0.93h-3.46v2.61h0.61v-0.55h3.33h3.26v-2.06h-3.14L114.2,24.48z M116.78,26.37v1.1h-2.57h-3.45v-1.1
						H116.78z"/>
					<polygon id="XMLID_00000150817583184745616070000015146412593547801497_" class="st1" points="114.54,21.29 114.54,21.79 
						118.35,21.79 118.35,22.91 114.54,22.92 114.54,23.41 118.94,23.41 118.94,21.29 					"/>
					<polygon id="XMLID_00000048463223063887958880000005198316299696820659_" class="st1" points="114.54,24.96 118.35,24.96 
						118.35,28.5 118.94,28.5 118.94,24.48 114.54,24.48 					"/>
					<polygon id="XMLID_00000010991603994643058150000014382799744504669855_" class="st1" points="118.94,19.91 115.27,19.91 
						115.59,18.56 115.12,18.56 114.6,20.38 118.94,20.38 					"/>
				</g>
				<g id="XMLID_00000049912619967460551300000002110794213802387619_">
					<polygon id="XMLID_00000065049030643638593660000000643704866651167675_" class="st1" points="107.45,20.15 106.3,18.78 
						105.96,19.03 107.04,20.51 					"/>
					
						<rect id="XMLID_00000043422369522203508670000007540506911085428393_" x="99.11" y="19.55" class="st1" width="4.58" height="0.46"/>
					<path id="XMLID_00000059999504803201491130000017648285866438749370_" class="st1" d="M107.55,25.82
						c-0.4,1.2-0.8,1.95-1.17,1.85c-1.67-0.47-1.34-5.88-1.34-5.88h2.8v-0.5h-2.8v-2.73h-0.55v2.73h-6.04v0.5h3.07v5.68
						c-0.28,0.08-1.72,0.53-1.79-0.03v-4.75H99.1l0.01,4.34c0,0-0.11,1.28,0.99,1.28c0.89,0,4-1.09,4.8-1.33
						c0.02,0.04,0.6,1.64,1.62,1.47c0.62-0.11,1.04-1.01,1.37-2.27L107.55,25.82z M104.5,21.79c-0.01,0.6-0.01,1.78-0.01,1.78h-2.35
						l0.01-1.77L104.5,21.79z M102.15,27.31l-0.01-3.3h2.35c0.03,0.21,0.06,1.58,0.32,2.57L102.15,27.31z"/>
				</g>
				<g id="XMLID_00000075129900579348669870000002968036815574988420_">
					<polygon id="XMLID_00000130606166490882495840000017838593018014363282_" class="st1" points="89.45,20.61 87.33,23.9 
						87.43,24.39 88.24,23.49 88.23,28.5 88.8,28.5 88.79,22.89 89.95,20.63 					"/>
					<path id="XMLID_00000097482133397020149900000017640124720208700067_" class="st1" d="M93.92,19.55h-1.76l0.09-0.83l-0.48-0.16
						l-0.16,0.99h-1.62v0.47h1.49l-0.2,1.04h-1.3v0.47h4.76v-0.47H93.9v-1.51H93.92z M93.32,21.05h-1.43l0.18-1.04h1.25V21.05z"/>
					
						<rect id="XMLID_00000098210462224275517200000000821635454482770607_" x="94.76" y="19.55" class="st1" width="1.99" height="0.47"/>
					<path id="XMLID_00000087400813618718705630000007480504022785709748_" class="st1" d="M96.75,21.29h-1.79v0.5h0.87v5.45
						c0,1.28-1.11-0.22-1.11-0.22l-0.18,0.24c0.56,0.82,1.84,2.38,1.84-0.39v-5.08h0.36v-0.5H96.75z"/>
					<path id="XMLID_00000130626527244863125270000018100689384532503691_" class="st1" d="M92.54,25.43h1.79v-0.47h-1.79v-0.9h1.79
						v-1.75h-4.34v1.75h1.96v0.9H89.7l-0.4,2.16h2.66v1.38h0.57l0.01-1.38h1.79v-0.5h-1.79V25.43z M91.96,26.62h-2.03l0.25-1.19
						h1.78V26.62z M90.56,22.77h3.21v0.8h-3.21V22.77z"/>
					<polygon id="XMLID_00000155864046075398788980000012281665447035260556_" class="st1" points="89.47,18.53 88.79,18.51 
						87.11,20.63 87.11,21.21 88.38,21.21 88.7,20.77 87.77,20.77 					"/>
				</g>
				<path id="XMLID_00000083072743767762290140000008289153309328164793_" class="st1" d="M173.41,25.81
					c1.32-1.25,1.93-2.7,2.48-4.91h1.76v-0.51h-4.48v-1.84h-0.6v1.84h-4.33l0.06,0.51l7.02-0.01c-0.59,2.92-2.38,4.52-2.38,4.52
					s-1.44-1-2.42-4.1h-0.45c0.88,3.15,2.41,4.44,2.41,4.44c-0.11,0.22-2.48,1.76-3.76,2.17l0.28,0.56
					c1.46-0.61,2.86-1.43,3.92-2.31c1.18,1.01,2.6,1.81,4.11,2.29l0.31-0.51C175.74,27.42,174.11,26.42,173.41,25.81"/>
				<g id="XMLID_00000011722181522202765670000013337774828728892300_">
					<path id="XMLID_00000039835569428240531410000012720572014871224759_" class="st1" d="M182.11,18.71l-0.38-0.16
						c-0.02,0.17-2.18,5.12-2.18,5.12l0.23,0.31c0.06-0.08,0.49-0.55,0.96-1.68l-0.04,6.18h0.59v-7.09
						C181.55,20.96,182.11,18.71,182.11,18.71"/>
					<path id="XMLID_00000006667259996921195480000000436502065672757143_" class="st1" d="M188.36,20.6l-0.29-0.41
						c0,0-2.36,2.4-3.82,2.77l-0.21,0.81C186.52,22.72,187.21,21.96,188.36,20.6"/>
					<path id="XMLID_00000095320373575041878680000016611261120120205709_" class="st1" d="M188.35,26.05
						c-0.08,1.06-0.54,1.85-1.06,1.84c-2.38-0.03-2.93-0.08-2.98-0.08v-9.25h-0.61v8.5c0,1.38,0.4,1.4,1.17,1.4
						c0,0,2.8-0.04,2.96-0.04c0.34,0,0.93-0.69,0.93-2.24L188.35,26.05z"/>
				</g>
				<g id="XMLID_00000040571539146958214680000016870062842080041907_">
					<path id="XMLID_00000053540928642587945300000003281382118810693007_" class="st1" d="M208.81,26
						c-0.08,1.06-0.54,1.9-1.06,1.89c-2.38-0.03-2.93-0.08-2.98-0.08v-9.25h-0.61v8.5c0,1.33,0.4,1.4,1.17,1.4
						c0,0,2.8-0.04,2.96-0.04c0.34,0,0.93-0.69,0.93-2.24L208.81,26z"/>
					<path id="XMLID_00000152980811114727170560000010714562423911219108_" class="st1" d="M209.64,19.96l-0.38,0.12
						c0,0,0.92,4.6,1.09,7.1l0.64-0.15C210.61,23.21,209.64,19.96,209.64,19.96"/>
					<path id="XMLID_00000093153990750232776000000012084110188701580680_" class="st1" d="M206.86,19.35l-0.4,0.25
						c0,0,0.66,4.11,0.89,5.98l0.72-0.42C207.71,23.27,206.86,19.35,206.86,19.35"/>
					<polygon id="XMLID_00000139275846410512211310000008629642251731161023_" class="st1" points="201.49,27.19 202.13,27.27 
						203.03,21.52 202.55,21.45 					"/>
				</g>
				<g id="XMLID_00000140697980001330533520000015203830195433776519_">
					<path id="XMLID_00000057838162903604798870000006941684381517010342_" class="st1" d="M139.42,22.83
						C139.42,22.84,139.42,22.84,139.42,22.83L139.42,22.83L139.42,22.83z"/>
					<path id="XMLID_00000008148472269962094460000006239380891707777174_" class="st1" d="M135.48,19.87h8.31l-0.44,1.57l0.44,0.29
						c0,0,0.47-1.24,0.54-1.74v-0.6h-4.32v-0.82h-0.61v0.82l-4.48,0.01v2.2h0.58L135.48,19.87z"/>
					<path id="XMLID_00000059283714804964432530000004667948373571486615_" class="st1" d="M139.73,25.23l-0.16-0.28l-4.61,2.51
						l0.21,0.27C135.17,27.73,138.75,26.21,139.73,25.23"/>
					<path id="XMLID_00000063601237075459352480000016470153911838703249_" class="st1" d="M135.46,25.3l0.13,0.3
						c0,0,3.39-1.34,4.1-1.82l-0.12-0.4L135.46,25.3z"/>
					<path id="XMLID_00000170972537049640824590000017749935788905408692_" class="st1" d="M140.9,24.6
						c0.92-0.48,2.24-1.52,2.43-1.79l-0.19-0.45l-2.43,1.99c-0.21-1.11-0.47-1.83-1.14-2.83h3.2v-0.47h-6.25v0.47h2.43
						c0.06,0.05,0.23,0.26,0.28,0.33l-4.05,1.79l0.11,0.38c0,0,3.23-1.16,4.1-1.82l-0.01-0.03c0.83,1.61,1.38,5.29,0.3,5.6
						c-0.63,0.18-1.07,0.14-1.96-0.18l0.08,0.52c0.5,0.24,1.02,0.34,1.32,0.38c2.11,0.26,1.71-2.65,1.72-3.33
						c0.7,0.95,1.99,2.21,3.22,3l0.46-0.39C144.04,27.54,141.75,25.89,140.9,24.6"/>
				</g>
				<g id="XMLID_00000040548887510023436220000012138192735950395578_">
					<polygon id="XMLID_00000048483324357832988170000003934052811989942710_" class="st1" points="159.4,20.77 157.38,23.9 
						157.48,24.39 158.29,23.49 158.28,28.5 158.84,28.5 158.84,22.89 159.94,20.76 					"/>
					<polygon id="XMLID_00000163038758161671980560000014518990858746407561_" class="st1" points="159.52,18.53 158.84,18.51 
						157.15,20.63 157.15,21.21 158.43,21.21 158.75,20.77 157.82,20.77 					"/>
					<path id="XMLID_00000077296155185303526520000005706168050326389946_" class="st1" d="M163.85,21.49V22h1.42v5.41
						c0,0.34-0.03,0.41-0.29,0.43c-0.45-0.02-1.36-0.49-1.36-0.49l0.11,0.52c1.81,1.02,2.08,0.34,2.14-0.17V22h0.69v-0.51H163.85z"
						/>
					
						<rect id="XMLID_00000085223241096755401710000015922928550024658072_" x="164.16" y="19.17" class="st1" width="2.38" height="0.49"/>
					<polygon id="XMLID_00000103239617203633061900000014413569800156862092_" class="st1" points="163.69,20.07 163.2,18.69 
						162.77,18.85 163.22,20.17 					"/>
					<path id="XMLID_00000019648709219884998360000012305246160856308899_" class="st1" d="M164.57,26.13c0,0-0.46-0.17-1.01-0.74
						l-0.08-3.16h-0.58l0.09,3.34c0.78,0.81,1.53,0.93,1.53,0.93L164.57,26.13z"/>
					<path id="XMLID_00000128487256392217131920000005848816986206552984_" class="st1" d="M159.37,27.16l0.55,0.16
						c0.3-1.33,0.59-2.87,0.95-5.08h-0.49C160.29,23.25,159.37,27.16,159.37,27.16"/>
					<polygon id="XMLID_00000082349842411027528640000004241084873459721386_" class="st1" points="162.04,20.77 162.04,18.56 
						161.48,18.56 161.48,20.77 160.19,20.77 160.19,21.22 161.48,21.22 161.48,28.5 162.03,28.5 162.03,21.22 163.7,21.22 
						163.7,20.77 					"/>
				</g>
				<g id="XMLID_00000171687035241794312100000012181322628939827642_">
					<path id="XMLID_00000118354896128850053510000017734249217395304112_" class="st1" d="M155.65,23.79c0,0-1.17,1.04-1.13,0.57
						c0.02-0.3,0.21-3.38,0.21-3.41h-1.57v-0.52h-0.63v0.52h-1.3l-0.15,0.46h1.45c0,0.83-0.08,1.69-0.08,1.69l-0.77-0.78l-0.33,0.5
						l0.92,0.86c-0.18,0.5-0.78,0.93-1.03,1.14l0.28,0.26c0.12-0.01,0.86-0.62,1.09-1.06c0.03,0.03,0.71,0.83,0.71,0.83l0.17-0.37
						c-0.07-0.15-0.58-0.93-0.58-0.93c0.11-0.4,0.25-1.34,0.25-2.15h0.97c-0.06,0.99-0.11,1.79-0.17,2.64
						c-0.04,0.56,0.08,0.81,0.41,0.9c0.57,0.14,1.29-0.79,1.29-0.79S155.64,23.79,155.65,23.79"/>
					<polygon id="XMLID_00000145029564768730204370000016244955099515059597_" class="st1" points="148.07,25.55 148.09,26.01 
						153.73,26.01 153.71,25.55 					"/>
					<path id="XMLID_00000169555928248651830280000007694143003682744507_" class="st1" d="M155.54,26.59h-9.61v0.44h1.92
						l-0.66,0.94l0.17,0.51l6.66-0.44l0.08,0.44h0.76l-0.53-1.45h1.19L155.54,26.59z M147.98,27.96l0.65-0.92h5.18l0.15,0.67
						L147.98,27.96z"/>
					<path id="XMLID_00000016037056842273580740000002905141999070029990_" class="st1" d="M148.61,24.61v-0.54l1.05-0.19v-0.43
						l-1.05,0.19v-0.68h-0.62l-0.01,0.77l-1.7,0.32v0.45l1.7-0.33c0,0-0.05,1.08,0.76,0.91c0.79-0.17,1.92-0.54,1.92-0.54v-0.36
						L148.61,24.61z"/>
					<path id="XMLID_00000071541898240383718780000013596890177990541994_" class="st1" d="M149.9,22.36h1.21v-0.45h-2.4v-0.59h1.45
						v-0.45h-1.45l0.01-0.44h-0.63l-0.01,0.44h-1.5v0.45h1.5v0.6h-2.25l-0.01,0.45h1.29c-0.27,0.74-1.22,0.83-1.22,0.83l0.17,0.44
						c1.29-0.31,1.8-1.27,1.8-1.27h1.29c0,0-0.05,0.77,1.63,1.15l0.31-0.39C150.27,23.02,149.94,22.67,149.9,22.36"/>
					<polygon id="XMLID_00000011731023759461143710000016849389356341147786_" class="st1" points="146.3,19.19 148.72,19.19 
						148.72,18.57 149.33,18.57 149.33,19.19 150.5,19.19 150.5,19.68 149.33,19.68 149.33,20.17 148.72,20.17 148.72,19.68 
						146.3,19.68 					"/>
					<polygon id="XMLID_00000082335000637681512510000003129096562728805278_" class="st1" points="150.98,19.19 152.46,19.19 
						152.46,18.57 153.05,18.57 153.05,19.19 155.15,19.19 155.15,19.68 153.06,19.68 153.06,20.17 152.46,20.17 152.46,19.68 
						150.98,19.68 					"/>
				</g>
				<g id="XMLID_00000136374464375728408530000008851552020600896394_">
					<path id="XMLID_00000070114805777680833390000011761107411589568653_" class="st1" d="M125.43,22.39h2.71v2.34
						c-0.45,0.48-1.91-0.21-1.91-0.21l0.01-0.38l1.35,0.31l0.01-1.6h-1.59V25h-0.57v-2.61H125.43z"/>
					<polygon id="XMLID_00000133528904636080125850000015529426948751683738_" class="st1" points="128.57,25.51 125.3,26.3 
						125.48,26.8 128.71,26.03 					"/>
					<path id="XMLID_00000130649131053524218620000001305190471511274399_" class="st1" d="M123.83,18.92v8.8
						c0,0.41,0.2,0.56,0.53,0.56l8.85-0.01v-9.36L123.83,18.92z M132.67,27.78h-8.3l0.02-8.37h4.31l0.17,1.65h-3.71v0.47h3.77
						c0.11,1,0.52,2.84,0.89,3.87c-0.46,0.74-0.6,0.92-1.17,1.6l0.29,0.36c0.39-0.39,0.8-0.87,1.19-1.41
						c0.17,0.43,0.21,0.47,0.39,0.73c0.19,0.24,0.34,0.31,0.56,0.35c0.1,0.01,0.2-0.01,0.29-0.06c0.36-0.11,0.78-1.03,0.92-1.95
						h-0.42c-0.09,0.52-0.82,1.71-0.95,1.33l-0.45-0.98c0,0,0.62-0.71,1.54-3.16l-0.64-0.19c-0.05,0.19-0.22,1.04-1.14,2.79
						c-0.31-0.95-0.6-2.41-0.68-3.28h2.36v-0.47h-0.55l-0.1-1.16h-0.48l0.09,1.16h-1.4l-0.17-1.64h3.36v8.36H132.67z"/>
				</g>
				<path id="XMLID_00000168816249125727116300000016998576292762333068_" class="st1" d="M199.86,20.39h-4.35v-1.84h-0.62v1.84
					h-4.44v5.65h0.63v-0.66h3.81v3.11h0.62v-3.11h3.76v0.66h0.59L199.86,20.39L199.86,20.39z M194.91,24.89h-3.82V20.9h3.82V24.89z
					 M199.28,24.9h-3.77v-4h3.76C199.28,20.9,199.29,24.32,199.28,24.9"/>
			</g>
			<g id="XMLID_00000083090420616561270800000004926917288497171361_">
				<polygon id="XMLID_00000024722755880626302460000016162434812322992805_" class="st1" points="99.76,8.89 99.76,11.19 
					107.28,11.19 107.28,11.69 99.76,11.69 99.76,14.27 107.57,14.27 107.57,14.77 99.17,14.77 99.17,8.39 107.57,8.4 107.57,8.89 
									"/>
				<polygon id="XMLID_00000161630704280290638870000013484597383793020345_" class="st1" points="136.61,8.79 137.08,8.39 
					141.37,12.16 145.63,8.39 146.12,8.78 141.66,12.68 141.66,14.78 141.07,14.78 141.07,12.67 				"/>
				<polygon id="XMLID_00000021118696829001081170000002439444489687491719_" class="st1" points="149.99,8.89 150.63,8.39 
					157.74,14.09 157.74,8.39 158.33,8.39 158.33,14.33 157.77,14.78 150.57,9 150.57,14.78 149.99,14.78 				"/>
				<polygon id="XMLID_00000029749749110179934570000007065693861690226862_" class="st1" points="163.26,11.69 163.26,12.2 
					167.96,12.2 167.97,11.69 				"/>
				<polygon id="XMLID_00000021823903392359733150000005764632421937619096_" class="st1" points="167.75,14.27 160.5,14.27 
					160.5,8.89 166.61,8.88 166.82,8.39 159.91,8.39 159.91,14.77 167.74,14.77 				"/>
				
					<rect id="XMLID_00000079449772912851307560000006769122238322715818_" x="147.29" y="6.5" class="st1" width="0.59" height="0.67"/>
				
					<rect id="XMLID_00000079450212147328032200000000163357232137492624_" x="147.29" y="8.39" class="st1" width="0.59" height="6.38"/>
				
					<rect id="XMLID_00000088133742494702867640000004723693723569934209_" x="109.26" y="6.5" class="st1" width="0.59" height="0.67"/>
				
					<rect id="XMLID_00000129188131878164061770000009786563553245707175_" x="109.26" y="8.39" class="st1" width="0.59" height="6.38"/>
				<polygon id="XMLID_00000016759876457000124210000008473015767159526276_" class="st1" points="168.25,6.5 173.25,6.5 
					173.25,7.01 168.84,7.01 168.84,8.43 173.25,8.43 173.25,8.94 168.25,8.94 				"/>
				<polygon id="XMLID_00000072983141509816243510000017737393431192139704_" class="st1" points="168.26,14.77 167.67,14.77 
					167.67,10.12 173.25,10.12 173.25,10.62 168.26,10.62 				"/>
				<polygon id="XMLID_00000057859889315360771620000004021165046743024296_" class="st1" points="173.53,2.51 172.79,4.77 
					167.46,4.77 167.46,5.28 173.25,5.28 174.13,2.51 				"/>
				<polygon id="XMLID_00000023241841330362622140000015705585196519581061_" class="st1" points="173.25,13.8 170.05,13.8 
					170.05,12.37 173.25,12.37 173.25,11.87 169.46,11.87 169.46,14.3 173.25,14.3 				"/>
				<polygon id="XMLID_00000159446908977690368120000001333889355172859815_" class="st1" points="124.85,8.73 120.7,14.78 
					119.98,14.78 119.32,9.81 115.4,14.78 114.69,14.78 113.97,8.87 114.54,8.39 115.24,14.17 119.25,9.07 119.81,9.07 
					120.53,14.15 124.45,8.39 				"/>
				<polygon id="XMLID_00000145756600519319651910000011744832721558113414_" class="st1" points="97.99,8.73 93.84,14.78 
					93.11,14.78 92.46,9.81 88.54,14.77 87.83,14.77 87.11,8.87 87.68,8.39 88.38,14.17 92.39,9.06 92.95,9.06 93.67,14.15 
					97.59,8.39 				"/>
				<path id="XMLID_00000100345334966362387240000015089622268832787623_" class="st1" d="M133.66,8.39h-0.59v2.33
					c0.01,0.79,0,1.39,0,1.79c0,0.57-0.22,1.03-0.53,1.3c-0.28,0.25-0.58,0.42-1.09,0.44c-0.34,0.01-1.01,0.03-1.38,0.03
					c-0.36,0-1.08-0.01-1.44-0.03c-0.57-0.02-1.03-0.19-1.34-0.44c-0.35-0.28-0.52-0.67-0.52-1.24c0-0.4,0.01-1.86,0.01-1.86
					l-0.01-2.33h-0.59v2.12v0.17c0,0.72,0,1.17,0,1.49c0,0.46,0,0.93,0.15,1.26s0.36,0.59,0.62,0.79c0.5,0.37,1.19,0.55,1.81,0.55
					c0.27,0,0.54,0,0.81,0c0.44,0,0.89,0,1.33,0c0.4,0,0.81-0.02,1.2-0.13c0.31-0.09,0.58-0.23,0.82-0.43
					c0.23-0.19,0.41-0.46,0.55-0.79c0.13-0.33,0.2-0.75,0.2-1.22v-3.8H133.66z"/>
			</g>
		</g>
	</g>
</g>
<g id="瀏海">
</g>
<g id="圖層_3" class="st0">
</g>
<g id="圖層_4">
</g>
<g id="分">
</g>
</svg>
