<?xml version="1.0" encoding="utf-8"?>
<!-- Generator: Adobe Illustrator 26.2.1, SVG Export Plug-In . SVG Version: 6.00 Build 0)  -->
<svg version="1.1" xmlns="http://www.w3.org/2000/svg" xmlns:xlink="http://www.w3.org/1999/xlink" x="0px" y="0px"
	 viewBox="0 0 211.73 101.71" style="enable-background:new 0 0 211.73 101.71;" xml:space="preserve">
<style type="text/css">
	.st0{display:none;}
	.st1{opacity:0.5;fill:#231815;}
	.st2{opacity:0.5;fill:url(#SVGID_00000013179582342271257050000016302808378493449350_);}
	.st3{opacity:0.25;fill:#CCC8C7;}
	.st4{opacity:0.6;fill:url(#SVGID_00000146477204968314500580000006634840083243190414_);}
	.st5{opacity:0.6;fill:url(#SVGID_00000134223424182641362370000005063478479459758993_);}
	.st6{opacity:0.6;fill:url(#SVGID_00000005946404634322413520000016118656130420946877_);}
	.st7{opacity:0.6;fill:url(#SVGID_00000103964717779703409950000013437996792887003022_);}
	.st8{clip-path:url(#SVGID_00000155106274571908699350000018338739841443022512_);}
	.st9{clip-path:url(#SVGID_00000176025589632477801370000008538785184873872800_);}
	.st10{clip-path:url(#SVGID_00000181071421361665710530000017060738151469037226_);}
	.st11{clip-path:url(#SVGID_00000119810671779496301080000017630212063034370456_);}
	.st12{clip-path:url(#SVGID_00000182494243826619199790000004776755326948787113_);}
	.st13{clip-path:url(#SVGID_00000121980950481437612550000017918040858446102924_);}
	
		.st14{clip-path:url(#SVGID_00000008135642340978691330000016332883674317340592_);fill:url(#SVGID_00000054247170949640515510000011831398357629052297_);}
	.st15{opacity:0.85;fill:none;stroke:#B77B49;stroke-width:5;stroke-miterlimit:10;}
	
		.st16{clip-path:url(#SVGID_00000007398661308287693130000013079806952781371276_);fill:url(#SVGID_00000072252582549743496630000014497288303583243392_);}
	.st17{opacity:0.85;clip-path:url(#SVGID_00000044856793929791176680000011768293940866217385_);fill:#B93322;}
	.st18{opacity:0.85;clip-path:url(#SVGID_00000050652843878374475690000011430856874341519502_);fill:#B18448;}
	.st19{fill:#FFFFFF;}
	.st20{fill:none;stroke:#FFFFFF;stroke-width:2;stroke-linecap:round;stroke-linejoin:round;stroke-miterlimit:10;}
	.st21{fill:none;stroke:#FFFFFF;stroke-width:3;stroke-miterlimit:10;}
	.st22{fill:url(#SVGID_00000082337090435841255480000010966117163646433466_);}
	.st23{fill:none;stroke:#FFFFFF;stroke-width:0.7;stroke-miterlimit:10;}
	.st24{opacity:0.85;clip-path:url(#SVGID_00000181782255657665652370000012082553949619497650_);fill:#A2A67E;}
	.st25{fill:url(#SVGID_00000078045678841101089900000001668987773323593639_);}
	.st26{opacity:0.85;clip-path:url(#SVGID_00000109751893926888849710000017392491094349064346_);fill:#C6741E;}
	.st27{opacity:0.89;fill:#DEAD5E;}
	.st28{fill:none;stroke:#FFFFFF;stroke-width:2;stroke-miterlimit:10;}
	.st29{fill:url(#SVGID_00000061445402768272966060000010049982682490669477_);}
	.st30{fill:url(#SVGID_00000018937459869731139720000012157179558846702986_);}
	.st31{opacity:0.85;clip-path:url(#SVGID_00000124164100646248816730000006020175068674842283_);fill:#8B9697;}
	.st32{opacity:0.85;fill:#174354;}
	.st33{fill:url(#SVGID_00000035499905670475281940000008228730567152745113_);}
	.st34{opacity:0.85;clip-path:url(#SVGID_00000110451980472854273630000015332179295141079715_);fill:#174354;}
	.st35{fill:#9E9E9F;}
	.st36{fill:url(#SVGID_00000098213614349849596460000017366051755320284301_);}
	.st37{fill:url(#SVGID_00000062898154232013883960000005417186366655004083_);}
	.st38{fill:url(#SVGID_00000057149154405120265260000016596637654941227684_);}
	.st39{fill-rule:evenodd;clip-rule:evenodd;fill:#FFFFFF;}
	.st40{fill:url(#SVGID_00000142174696012676876890000018272846800222114204_);}
	.st41{fill:url(#SVGID_00000057845273517813268650000003642153260132759743_);}
	.st42{fill:url(#SVGID_00000178195639198865491400000007043164053144880786_);}
	.st43{fill:url(#SVGID_00000101796887615858977430000004607187440248126392_);}
	.st44{fill:#434343;}
	.st45{fill:url(#SVGID_00000011030561721903503660000016762587920870547597_);}
	.st46{opacity:0.6;}
	.st47{clip-path:url(#SVGID_00000096755761744675449150000002695885975781205428_);fill:#FFFFFF;}
	.st48{clip-path:url(#SVGID_00000010308159549451653030000018187781489903682966_);fill:#FFFFFF;}
	.st49{fill:url(#SVGID_00000155857019952458925220000016275373556277578652_);}
	.st50{clip-path:url(#SVGID_00000084529663948356941490000016388559417501025412_);fill:#FFFFFF;}
	.st51{fill:none;stroke:#FFFFFF;stroke-miterlimit:10;}
	.st52{fill:url(#SVGID_00000011717510830309109090000014558551010307965883_);}
	.st53{fill:url(#SVGID_00000130614400377659166610000004697825427690727316_);}
	.st54{fill:url(#SVGID_00000052794002413313830280000000364363579456811191_);}
	.st55{fill:url(#SVGID_00000109737254805438045770000003574798757802120078_);}
	.st56{fill:#D0121B;}
	.st57{fill:#C9CACA;}
	.st58{fill:#595757;}
	.st59{fill:#FFF100;}
	.st60{fill:#00B9EF;}
	.st61{fill:#EA5504;}
	.st62{fill:url(#SVGID_00000083082714025209190960000007763232637196642464_);}
	.st63{fill:url(#SVGID_00000168816101376736636540000004248085557249716124_);}
	.st64{fill:url(#SVGID_00000068640516277199729870000007466633845933151875_);}
	.st65{fill:url(#SVGID_00000024706623401030418020000014560934500716779431_);}
	.st66{fill:url(#SVGID_00000171696187097658982570000001582048922758573962_);}
	.st67{fill:url(#SVGID_00000172435236093538349330000005969249280069462658_);}
	.st68{opacity:0.75;fill:#666666;}
	.st69{opacity:0.5;clip-path:url(#SVGID_00000115474451436292114480000011792293066829851304_);fill:#231815;}
	
		.st70{clip-path:url(#SVGID_00000115474451436292114480000011792293066829851304_);fill:url(#SVGID_00000034784127945800459090000005227441657170111629_);}
	.st71{clip-path:url(#SVGID_00000115474451436292114480000011792293066829851304_);}
	.st72{opacity:0.85;clip-path:url(#SVGID_00000181798099262964456460000010147689026462313374_);fill:#C6741E;}
	.st73{clip-path:url(#SVGID_00000077312950041743517170000017067479292661578911_);}
	.st74{clip-path:url(#SVGID_00000164485156602325762650000017207087990576844465_);}
	.st75{opacity:0.85;fill:#B77B49;}
	.st76{clip-path:url(#SVGID_00000170998233160461647340000004389982596274745225_);}
	.st77{clip-path:url(#SVGID_00000109742106667280332210000009571229965429848736_);}
	.st78{clip-path:url(#SVGID_00000158747334166628606140000014908982003191551887_);}
	.st79{clip-path:url(#SVGID_00000000926428544410307300000003053181153838266793_);}
	.st80{clip-path:url(#SVGID_00000008850774313540215070000017629681941401912993_);}
	.st81{clip-path:url(#SVGID_00000081626768805495610160000015456239190369232051_);}
	.st82{clip-path:url(#SVGID_00000097470017839128860360000001956934912379928492_);}
	.st83{clip-path:url(#SVGID_00000001649448759320894040000005628110227161569942_);}
	.st84{clip-path:url(#SVGID_00000023274370090072467770000002097449285743966645_);}
	.st85{clip-path:url(#SVGID_00000104708152129268490530000003560671942482732218_);}
	.st86{clip-path:url(#SVGID_00000003098822354962136970000003210241678611086725_);}
	.st87{clip-path:url(#SVGID_00000049928728192915233720000016018027145809455235_);}
	.st88{clip-path:url(#SVGID_00000141433446288459665840000003653754104845590971_);}
	.st89{clip-path:url(#SVGID_00000036956266697546567940000009040923925575913908_);}
	.st90{clip-path:url(#SVGID_00000119823042257415904180000007029098693371931547_);}
	.st91{clip-path:url(#SVGID_00000071546590165692049550000011152177106839319181_);}
	.st92{clip-path:url(#SVGID_00000137134052008262358940000004349540480714827956_);}
	.st93{clip-path:url(#SVGID_00000080896580964252231770000004437402173489453700_);}
	.st94{clip-path:url(#SVGID_00000181766679642895525320000015685413522708414890_);}
	.st95{clip-path:url(#SVGID_00000134932374832922491150000017557035876956626313_);}
	.st96{clip-path:url(#SVGID_00000037668907232233714900000011259938432402049927_);}
	.st97{clip-path:url(#SVGID_00000016046053771454724990000012845551684672487602_);}
	.st98{clip-path:url(#SVGID_00000127034193731519084380000011125674788200773262_);}
	.st99{fill:none;stroke:#B77B49;stroke-miterlimit:10;}
	.st100{clip-path:url(#SVGID_00000016051706035749209110000009639997271111934891_);}
	.st101{clip-path:url(#SVGID_00000054983745699375533740000008522881548832371889_);}
	.st102{clip-path:url(#SVGID_00000108281390829521888710000000559021720522097589_);}
	.st103{clip-path:url(#SVGID_00000093151645588898109490000014086370803329296787_);}
	.st104{clip-path:url(#SVGID_00000101783844422738041250000010057684832210251398_);}
	.st105{fill:#0F2C35;}
	.st106{fill:#AF3F36;}
	.st107{fill:#B27848;}
	.st108{fill:#FFFFFF;stroke:#231815;stroke-miterlimit:10;}
	.st109{fill:#B18448;}
	.st110{fill:#C6741E;}
	.st111{fill:#A2A67E;}
	.st112{fill:#8B9697;}
	.st113{fill:#174354;}
	.st114{clip-path:url(#SVGID_00000067213234759407827960000004807123341132965278_);}
	.st115{clip-path:url(#SVGID_00000178918956812279365630000013066209039980848011_);fill:#595757;}
	.st116{clip-path:url(#SVGID_00000055690942969773227590000010863072330564540349_);}
	.st117{clip-path:url(#SVGID_00000170977158752401281560000007675389788728439739_);}
	.st118{clip-path:url(#SVGID_00000060738771609387435500000016502032635576712091_);}
	.st119{clip-path:url(#SVGID_00000109741243585823573770000003786957129205888702_);}
	.st120{clip-path:url(#SVGID_00000092443698013522633040000005263064691241161648_);}
	.st121{clip-path:url(#SVGID_00000083070273101473320270000007126383575437996167_);}
	.st122{clip-path:url(#SVGID_00000173126208850884661680000017469805526777021092_);}
	.st123{clip-path:url(#SVGID_00000000195597665060881790000015710530051920133269_);}
	.st124{clip-path:url(#SVGID_00000055702769482886587990000004214715004146951605_);}
	.st125{clip-path:url(#SVGID_00000075851226099100220840000009819609487953424519_);}
	.st126{clip-path:url(#SVGID_00000145019396560710692160000007817817775499630497_);}
	.st127{clip-path:url(#SVGID_00000146480933981161297420000013699006571608272031_);}
	.st128{clip-path:url(#SVGID_00000034797823947906292900000006791169155093552568_);}
	.st129{clip-path:url(#SVGID_00000098938454646728947390000007002140430993280395_);}
	.st130{clip-path:url(#SVGID_00000169555128382827532610000002236472695242858654_);}
	.st131{clip-path:url(#SVGID_00000042706133092250376800000014890521340758283701_);}
	.st132{clip-path:url(#SVGID_00000049906670881918357460000016982802953457712259_);}
	.st133{clip-path:url(#SVGID_00000041263579010344384420000014903254051929578637_);}
	
		.st134{clip-path:url(#SVGID_00000148653571561693303650000000217993765672245135_);fill:url(#SVGID_00000053505841510028688690000016750764251073326255_);}
	.st135{clip-path:url(#SVGID_00000026882118713970863310000004756498031139116729_);}
	.st136{clip-path:url(#SVGID_00000108303676991927034170000013382659507361017768_);fill:#D0121B;}
	.st137{clip-path:url(#SVGID_00000170260945865560449160000018348325011832141246_);}
	.st138{clip-path:url(#SVGID_00000143604217735504094260000015157267479171071163_);fill:#C9CACA;}
	.st139{clip-path:url(#SVGID_00000073687227236355524680000009961530638602920588_);}
	.st140{clip-path:url(#SVGID_00000008140410798786134990000008276886786566146726_);fill:#EA5504;}
	.st141{clip-path:url(#SVGID_00000092419923396234952790000013220200213898662810_);}
	.st142{clip-path:url(#SVGID_00000146481909448528245950000007174058703854534569_);fill:#FFF100;}
	.st143{clip-path:url(#SVGID_00000000911434641894913470000018296893260936606629_);}
	.st144{clip-path:url(#SVGID_00000063629162454595553370000011742919738324212916_);fill:#00B9EF;}
</style>
<g id="圖層_6" class="st0">
</g>
<g id="底屠">
</g>
<g id="物件">
	<g>
		<path class="st19" d="M142.88,20.25c-5.1-3.2-10.83-3.07-16.76-2.69c-8.62,0.58-14.66-1.06-21.38-6.3c-14.1-11-29.1-15-45.84-7.19
			c-13.19,6.15-21.96,7.38-21.96,7.38v4.37c0,0,7.02-0.18,13.19,0.49c12.44,1.34,27.31,9.57,34.53,14
			c11.69,7.2,22.06,20.51,36.28,22.49c17.74,2.47,26.54-15.97,43.59-16.64C168.65,36,175.06,36,175.06,36v-1.89
			C164.64,34.11,157.96,29.73,142.88,20.25 M141.77,36.44c-3.12,2.48-7.63,8.84-11.57,4.65c-2.21-2.34-2.85-6.7-4.23-9.71
			c-4.63-10.06-13.23-12.58-13.23-12.58c4.06,1.19,7.59,1.97,10.84,5.36c2.5,2.62,4.3,6.56,7.64,7.84
			c3.64,1.39,9.75-3.04,13.55-2.48c3.48,0.51,4.11,3.56,7.63,3.84C148.39,33.04,145.11,33.78,141.77,36.44"/>
		<polygon class="st19" points="53.11,63.94 53.11,67.87 65.96,67.87 65.96,68.72 53.11,68.72 53.11,73.13 66.46,73.13 66.46,73.99 
			52.11,73.99 52.11,63.08 66.47,63.09 66.47,63.94 		"/>
		<polygon class="st19" points="116.11,63.75 116.91,63.08 124.23,69.52 131.51,63.08 132.36,63.74 124.72,70.41 124.72,74 
			123.72,74.01 123.72,70.39 		"/>
		<polygon class="st19" points="138.96,63.94 140.07,63.06 152.21,72.82 152.21,63.08 153.22,63.08 153.22,73.24 152.26,74 
			139.97,64.12 139.97,74 138.96,74 		"/>
		<polygon class="st19" points="161.65,68.72 161.65,69.59 169.69,69.59 169.7,68.72 		"/>
		<polygon class="st19" points="169.32,73.14 156.93,73.14 156.93,63.93 167.38,63.91 167.74,63.08 155.93,63.08 155.93,73.99 
			169.3,73.99 		"/>
		<polygon class="st19" points="134.36,59.84 134.36,60.99 135.36,60.98 135.36,59.84 		"/>
		<rect x="134.36" y="63.08" class="st19" width="1" height="10.92"/>
		<polygon class="st19" points="69.36,59.84 69.36,60.99 70.36,60.98 70.36,59.84 		"/>
		<rect x="69.36" y="63.08" class="st19" width="1" height="10.92"/>
		<polygon class="st19" points="170.19,59.85 178.73,59.85 178.73,60.71 171.19,60.71 171.19,63.15 178.73,63.15 178.73,64.01 
			170.19,64.01 		"/>
		<polygon class="st19" points="170.19,73.99 169.19,73.99 169.19,66.03 178.73,66.03 178.73,66.88 170.19,66.89 		"/>
		<polygon class="st19" points="179.21,53.03 177.93,56.9 168.83,56.9 168.83,57.76 178.73,57.76 180.23,53.03 		"/>
		<polygon class="st19" points="178.73,72.33 173.26,72.33 173.26,69.89 178.73,69.89 178.73,69.02 172.25,69.02 172.25,73.19 
			178.73,73.19 		"/>
		<polygon class="st19" points="95.99,63.67 88.9,74 87.67,74 86.55,65.51 79.84,73.99 78.64,73.99 77.4,63.9 78.38,63.08 
			79.57,72.96 86.44,64.23 87.39,64.23 88.62,72.93 95.31,63.08 		"/>
		<polygon class="st19" points="50.09,63.66 42.99,74 41.76,74 40.64,65.51 33.93,73.99 32.73,73.99 31.49,63.9 32.47,63.08 
			33.66,72.96 40.53,64.23 41.48,64.23 42.72,72.93 49.4,63.08 		"/>
		<path class="st19" d="M111.06,63.08h-1.01v3.97c0.02,1.35,0,2.38,0,3.06c0,0.97-0.38,1.75-0.91,2.23c-0.47,0.42-1,0.71-1.86,0.74
			c-0.59,0.02-1.74,0.04-2.36,0.04c-0.63,0-1.84-0.02-2.46-0.04c-0.98-0.03-1.76-0.32-2.29-0.74c-0.6-0.48-0.89-1.14-0.89-2.11
			c0-0.67,0.01-3.17,0.01-3.17l-0.01-3.97h-1v3.62V67c0,1.23,0,2,0,2.54c0,0.79,0.01,1.59,0.26,2.15c0.25,0.56,0.61,1.01,1.06,1.34
			c0.86,0.64,2.03,0.94,3.09,0.94c0.46,0,0.92,0,1.39,0c0.76,0,1.51,0.01,2.27,0c0.68,0,1.39-0.04,2.05-0.22
			c0.53-0.15,1-0.4,1.39-0.73c0.4-0.34,0.71-0.78,0.93-1.34c0.22-0.56,0.34-1.28,0.34-2.08V63.08z"/>
		<polygon class="st19" points="38.62,84.91 39.31,87.56 39.94,86.98 39.33,84.91 		"/>
		<polygon class="st19" points="40.63,89.35 41.96,87.46 44.94,89.17 45.42,88.45 42.41,86.81 43.93,84.74 42.74,84.74 39.33,89.35 
			38.62,89.35 38.62,93.06 39.64,93.06 39.64,90.21 46.31,90.21 46.31,89.35 		"/>
		<polygon class="st19" points="45.37,84.91 44.63,87.07 45.32,87.53 46.1,84.91 		"/>
		<path class="st19" d="M46.31,94.81l-4.43-0.01v-1.83h4.42v-0.85h-5.58l0.03,3.51l4.53-0.01v1.59h-5.91v4.46h1.04v-0.93l5.69,0
			l5.58,0l0-3.53h-5.37V94.81z M50.71,98.04v1.88l-4.4,0l-5.89,0v-1.87L50.71,98.04z"/>
		<polygon class="st19" points="46.89,89.35 46.89,90.21 53.4,90.21 53.4,92.13 46.89,92.14 46.89,92.97 54.42,92.97 54.42,89.35 		
			"/>
		<polygon class="st19" points="46.89,95.63 53.4,95.63 53.4,101.67 54.42,101.67 54.41,94.82 46.89,94.82 		"/>
		<polygon class="st19" points="47.88,84.69 46.99,87.79 54.42,87.79 54.42,87 48.14,87 48.69,84.69 		"/>
		<polygon class="st19" points="32.23,85.48 34.07,88.02 34.77,87.41 32.81,85.07 		"/>
		<rect x="20.51" y="86.39" class="st19" width="7.82" height="0.79"/>
		<path class="st19" d="M34.94,97.09c-0.68,2.06-1.36,3.34-1.99,3.17c-2.86-0.81-2.29-10.05-2.29-10.05h4.78v-0.86h-4.78v-4.67
			h-0.94v4.67l-10.32,0.01v0.85h5.24v9.7c-0.48,0.13-2.95,0.91-3.07-0.05l0-8.11h-1.06l0.02,7.42c0,0-0.18,2.18,1.7,2.18
			c1.53,0,6.83-1.87,8.21-2.28c0.02,0.07,1.03,2.8,2.76,2.51c1.06-0.18,1.78-1.73,2.34-3.89L34.94,97.09z M29.73,90.2
			c-0.02,1.02-0.01,3.03-0.01,3.03H25.7l0.01-3.03L29.73,90.2z M25.71,99.65l-0.01-5.64h4.02c0.06,0.35,0.11,2.7,0.55,4.38
			L25.71,99.65z"/>
		<polygon class="st19" points="4.01,88.19 0.38,93.82 0.56,94.66 1.94,93.12 1.92,101.67 2.89,101.67 2.88,92.09 4.86,88.23 		"/>
		<path class="st19" d="M11.65,86.38H8.63l0.16-1.41l-0.82-0.28L7.7,86.38H4.94v0.8h2.55l-0.34,1.78l-2.21-0.01v0.79h8.14v-0.79
			h-1.44V86.38z M10.62,88.95l-2.44,0.01l0.31-1.78h2.13V88.95z"/>
		<rect x="13.08" y="86.38" class="st19" width="3.4" height="0.79"/>
		<path class="st19" d="M16.48,89.35h-3.05v0.86h1.49v9.31c0,2.18-1.9-0.38-1.9-0.38l-0.31,0.41c0.96,1.39,3.15,4.06,3.15-0.66
			l0.01-8.68h0.61V89.35z"/>
		<path class="st19" d="M9.29,96.42h3.07v-0.8H9.29v-1.53h3.07v-3H4.94v3h3.35l0,1.53H4.44l-0.68,3.69h4.54l0,2.36h0.98l0.01-2.36
			h3.07v-0.86H9.29V96.42z M8.29,98.46H4.82l0.42-2.04h3.05V98.46z M5.9,91.89h5.49v1.38H5.9V91.89z"/>
		<polygon class="st19" points="4.04,84.63 2.89,84.6 0,88.22 0,89.23 2.18,89.23 2.72,88.47 1.14,88.47 		"/>
		<path class="st19" d="M147.52,97.09c2.26-2.14,3.29-4.62,4.24-8.39h3.01v-0.87h-7.65v-3.14h-1.03v3.14h-7.4l0.1,0.88l12-0.01
			c-1.01,4.99-4.07,7.73-4.07,7.73s-2.45-1.72-4.13-7.01h-0.76c1.5,5.38,4.13,7.6,4.13,7.6c-0.2,0.37-4.25,3-6.43,3.71l0.48,0.96
			c2.49-1.03,4.88-2.44,6.69-3.95c2.02,1.73,4.45,3.09,7.03,3.91l0.53-0.87C151.5,99.83,148.71,98.12,147.52,97.09"/>
		<path class="st19" d="M162.39,84.95l-0.65-0.27c-0.03,0.3-3.72,8.75-3.72,8.75l0.4,0.52c0.1-0.13,0.83-0.94,1.63-2.88l-0.07,10.56
			h1V89.51C161.43,88.78,162.39,84.95,162.39,84.95"/>
		<path class="st19" d="M173.07,88.17l-0.49-0.7c0,0-4.04,4.1-6.53,4.73l-0.36,1.38C169.91,91.8,171.09,90.49,173.07,88.17"/>
		<path class="st19" d="M173.03,97.49c-0.13,1.81-0.92,3.16-1.8,3.15c-4.07-0.05-5.02-0.13-5.1-0.13l0-15.81h-1.04l0,14.52
			c0,2.36,0.68,2.4,1.99,2.4c0,0,4.79-0.06,5.06-0.06c0.57,0,1.59-1.19,1.59-3.83L173.03,97.49z"/>
		<path class="st19" d="M208.01,97.41c-0.13,1.81-0.92,3.24-1.8,3.23c-4.06-0.05-5.01-0.13-5.1-0.14V84.7h-1.05v14.53
			c0,2.28,0.67,2.4,1.99,2.4c0,0,4.79-0.06,5.06-0.06c0.58,0,1.6-1.18,1.6-3.83L208.01,97.41z"/>
		<path class="st19" d="M209.43,87.09l-0.65,0.21c0,0,1.58,7.86,1.86,12.14l1.09-0.26C211.09,92.64,209.43,87.09,209.43,87.09"/>
		<path class="st19" d="M204.68,86.04L204,86.47c0,0,1.13,7.03,1.52,10.23l1.23-0.72C206.14,92.74,204.68,86.04,204.68,86.04"/>
		<polygon class="st19" points="195.5,99.44 196.6,99.58 198.13,89.75 197.31,89.63 		"/>
		<path class="st19" d="M89.41,91.99c0,0.01,0.01,0.01,0.01,0.01v0L89.41,91.99z"/>
		<path class="st19" d="M82.68,86.93h14.21l-0.75,2.68l0.75,0.49c0,0,0.8-2.12,0.92-2.98v-1.02h-7.38v-1.4h-1.05v1.4l-7.66,0.01
			v3.76h0.98L82.68,86.93z"/>
		<path class="st19" d="M89.95,96.09l-0.28-0.48l-7.88,4.29l0.35,0.46C82.14,100.36,88.27,97.77,89.95,96.09"/>
		<path class="st19" d="M82.65,96.2l0.22,0.5c0,0,5.79-2.28,7-3.11l-0.2-0.68L82.65,96.2z"/>
		<path class="st19" d="M91.94,95c1.57-0.82,3.82-2.61,4.15-3.06l-0.33-0.77l-4.16,3.4c-0.36-1.9-0.81-3.12-1.95-4.83l5.47,0v-0.8
			H84.44v0.8l4.16,0c0.1,0.09,0.39,0.46,0.49,0.57l-6.92,3.07l0.19,0.65c0,0,5.52-1.99,7-3.11l-0.02-0.06
			c1.42,2.75,2.37,9.05,0.52,9.57c-1.08,0.3-1.82,0.23-3.35-0.31l0.15,0.89c0.85,0.41,1.75,0.59,2.25,0.65
			c3.61,0.45,2.92-4.54,2.94-5.69c1.2,1.61,3.4,3.77,5.5,5.13l0.79-0.67C97.31,100.04,93.4,97.21,91.94,95"/>
		<polygon class="st19" points="123.57,88.47 120.11,93.82 120.29,94.66 121.66,93.12 121.65,101.68 122.61,101.68 122.61,92.09 
			124.48,88.46 		"/>
		<polygon class="st19" points="123.77,84.63 122.62,84.6 119.73,88.22 119.73,89.22 121.91,89.23 122.45,88.47 120.86,88.47 		"/>
		<path class="st19" d="M131.17,89.69v0.87h2.42v9.25c0,0.58-0.06,0.71-0.49,0.73c-0.77-0.03-2.33-0.83-2.33-0.83l0.19,0.89
			c3.09,1.75,3.56,0.59,3.65-0.29l-0.01-9.74h1.19l0-0.87H131.17z"/>
		<rect x="131.7" y="85.74" class="st19" width="4.07" height="0.83"/>
		<polygon class="st19" points="129.33,85.18 130.09,87.43 130.9,87.26 130.06,84.92 		"/>
		<path class="st19" d="M132.41,97.63c0,0-0.78-0.29-1.73-1.26l-0.15-5.4h-0.99l0.16,5.71c1.34,1.39,2.61,1.59,2.61,1.59
			L132.41,97.63z"/>
		<path class="st19" d="M123.52,99.39l0.94,0.28c0.52-2.26,1-4.9,1.63-8.69h-0.83C125.09,92.71,123.52,99.39,123.52,99.39"/>
		<polygon class="st19" points="128.07,88.47 128.08,84.69 127.11,84.69 127.12,88.46 124.92,88.46 124.92,89.24 127.12,89.24 
			127.12,101.68 128.07,101.68 128.07,89.24 130.92,89.24 130.92,88.47 		"/>
		<path class="st19" d="M117.15,93.62c0,0-1.99,1.77-1.93,0.99c0.04-0.51,0.35-5.79,0.35-5.84h-2.68l0-0.89h-1.07v0.89h-2.21
			l-0.26,0.78h2.48c0,1.42-0.14,2.9-0.14,2.9l-1.32-1.33l-0.57,0.85l1.58,1.47c-0.31,0.86-1.33,1.6-1.76,1.95l0.47,0.44
			c0.2-0.02,1.48-1.06,1.86-1.8c0.06,0.06,1.22,1.42,1.22,1.42l0.29-0.64c-0.11-0.26-0.99-1.58-0.99-1.58
			c0.2-0.69,0.42-2.29,0.42-3.67h1.66c-0.09,1.7-0.18,3.06-0.29,4.52c-0.07,0.95,0.13,1.39,0.71,1.54c0.97,0.24,2.2-1.36,2.2-1.36
			S117.14,93.62,117.15,93.62"/>
		<polygon class="st19" points="104.2,96.63 104.24,97.42 113.87,97.42 113.83,96.63 		"/>
		<path class="st19" d="M105.16,99.18h8.85l0.25,1.15l-10.22,0.43L105.16,99.18z M100.55,98.42v0.76h3.28l-1.12,1.61l0.29,0.87
			l11.38-0.75l0.14,0.75h1.31l-0.9-2.48h2.03l0-0.76L100.55,98.42z"/>
		<path class="st19" d="M105.13,95.03V94.1l1.8-0.32v-0.73l-1.8,0.32v-1.17h-1.07l-0.01,1.32l-2.91,0.54v0.77l2.91-0.56
			c0,0-0.09,1.85,1.29,1.55c1.35-0.29,3.27-0.92,3.27-0.92v-0.62L105.13,95.03z"/>
		<path class="st19" d="M107.32,91.19h2.06l0-0.77l-4.1,0V89.4l2.48,0v-0.76l-2.49-0.01l0.01-0.74h-1.08l-0.01,0.74l-2.56,0.01v0.76
			l2.57,0v1.02h-3.84l-0.01,0.77h2.2c-0.46,1.27-2.08,1.42-2.08,1.42l0.3,0.74c2.2-0.54,3.08-2.16,3.08-2.16h2.2
			c0,0-0.08,1.32,2.78,1.97l0.53-0.66C107.97,92.31,107.39,91.71,107.32,91.19"/>
		<polygon class="st19" points="105.32,84.7 105.32,85.77 101.18,85.77 101.18,86.61 105.32,86.61 105.32,87.43 106.35,87.43 
			106.35,86.61 108.36,86.61 108.36,85.77 106.35,85.77 106.35,84.7 		"/>
		<polygon class="st19" points="111.7,84.7 111.7,85.77 109.17,85.77 109.17,86.61 111.7,86.61 111.7,87.43 112.72,87.43 
			112.72,86.61 116.3,86.61 116.3,85.77 112.72,85.77 112.72,84.7 		"/>
		<path class="st19" d="M65.51,91.23h4.63l0,4c-0.77,0.82-3.27-0.35-3.27-0.35l0.01-0.65l2.31,0.54l0.02-2.73l-2.72,0.01v3.68h-0.97
			V91.23z"/>
		<polygon class="st19" points="65.29,97.91 65.58,98.79 71.11,97.46 70.87,96.57 		"/>
		<path class="st19" d="M62.77,85.3l0,15.04c0,0.7,0.34,0.96,0.91,0.96l15.13-0.01V85.29L62.77,85.3z M77.88,100.45H63.7l0.03-14.31
			l7.37-0.01l0.28,2.82h-6.34v0.8h6.44c0.19,1.71,0.89,4.86,1.52,6.61c-0.78,1.26-1.03,1.57-2,2.73l0.5,0.62
			c0.67-0.68,1.36-1.49,2.03-2.41c0.3,0.74,0.36,0.8,0.67,1.26c0.33,0.41,0.59,0.53,0.96,0.6c0.17,0.02,0.34-0.02,0.5-0.1
			c0.62-0.19,1.32-1.77,1.56-3.32H76.5c-0.16,0.89-1.41,2.91-1.62,2.27l-0.77-1.68c0,0,1.06-1.22,2.63-5.4l-1.1-0.32
			c-0.09,0.33-0.37,1.78-1.95,4.76c-0.53-1.62-1.03-4.12-1.16-5.62h4.04l0.01-0.8h-0.94l-0.17-1.98h-0.82l0.16,1.98h-2.38
			l-0.29-2.81l5.75-0.01V100.45z"/>
		<path class="st19" d="M192.73,87.82h-7.43v-3.14h-1.06v3.14h-7.58v9.66h1.07v-1.12h6.51v5.32h1.06v-5.32h6.43v1.12h1V87.82z
			 M184.26,95.52h-6.53v-6.82h6.53V95.52z M191.74,95.52h-6.44v-6.83h6.43C191.73,88.69,191.74,94.53,191.74,95.52"/>
	</g>
</g>
<g id="瀏海">
</g>
<g id="圖層_3" class="st0">
</g>
<g id="圖層_4">
</g>
<g id="分">
</g>
</svg>
