<?xml version="1.0" encoding="utf-8"?>
<!-- Generator: Adobe Illustrator 26.2.1, SVG Export Plug-In . SVG Version: 6.00 Build 0)  -->
<svg version="1.1" xmlns="http://www.w3.org/2000/svg" xmlns:xlink="http://www.w3.org/1999/xlink" x="0px" y="0px"
	 viewBox="0 0 213.99 67.92" style="enable-background:new 0 0 213.99 67.92;" xml:space="preserve">
<style type="text/css">
	.st0{display:none;}
	.st1{opacity:0.5;fill:#231815;}
	.st2{opacity:0.5;fill:url(#SVGID_00000110435600393596542260000007384434295774325148_);}
	.st3{opacity:0.25;fill:#CCC8C7;}
	.st4{opacity:0.6;fill:url(#SVGID_00000180337722584603218230000015900501662399655831_);}
	.st5{opacity:0.6;fill:url(#SVGID_00000094608859275866800460000010351256891075980436_);}
	.st6{opacity:0.6;fill:url(#SVGID_00000005224992345283345390000013011219062732430740_);}
	.st7{opacity:0.6;fill:url(#SVGID_00000046329744907335960550000005681322020730606245_);}
	.st8{clip-path:url(#SVGID_00000021819148587568756520000016353511205493813416_);}
	.st9{clip-path:url(#SVGID_00000126300555185178300090000003453168976536160173_);}
	.st10{clip-path:url(#SVGID_00000061466549644030162720000012232124693636761497_);}
	.st11{clip-path:url(#SVGID_00000174576080125637642560000009682290361810946448_);}
	.st12{clip-path:url(#SVGID_00000008835203431616947740000011683026318448654980_);}
	.st13{clip-path:url(#SVGID_00000181800089119009753500000008265087992935915662_);}
	
		.st14{clip-path:url(#SVGID_00000155868983117429390490000001177700964842334361_);fill:url(#SVGID_00000074417785304368861390000007180565992756079766_);}
	.st15{opacity:0.85;fill:none;stroke:#B77B49;stroke-width:5;stroke-miterlimit:10;}
	
		.st16{clip-path:url(#SVGID_00000063611034786826399420000002617525941672412079_);fill:url(#SVGID_00000029747641702430735840000013839590461949005965_);}
	.st17{opacity:0.85;clip-path:url(#SVGID_00000114783067180388338470000002853581605824550059_);fill:#B93322;}
	.st18{opacity:0.85;clip-path:url(#SVGID_00000046328962121324369570000008513715499325698976_);fill:#B18448;}
	.st19{fill:#FFFFFF;}
	.st20{fill:none;stroke:#FFFFFF;stroke-width:2;stroke-linecap:round;stroke-linejoin:round;stroke-miterlimit:10;}
	.st21{fill:none;stroke:#FFFFFF;stroke-width:3;stroke-miterlimit:10;}
	.st22{fill:url(#SVGID_00000018956825072648555740000014964722556062339763_);}
	.st23{fill:none;stroke:#FFFFFF;stroke-width:0.7;stroke-miterlimit:10;}
	.st24{opacity:0.85;clip-path:url(#SVGID_00000054249281826748680370000010833262917628409738_);fill:#A2A67E;}
	.st25{fill:url(#SVGID_00000075843562012720376920000017805180319052698243_);}
	.st26{opacity:0.85;clip-path:url(#SVGID_00000004525618637312328500000014860076725834539939_);fill:#C6741E;}
	.st27{opacity:0.89;fill:#DEAD5E;}
	.st28{fill:none;stroke:#FFFFFF;stroke-width:2;stroke-miterlimit:10;}
	.st29{fill:url(#SVGID_00000122723014756215632450000006660639785837546146_);}
	.st30{fill:url(#SVGID_00000158722574533212290980000016303465704040953754_);}
	.st31{opacity:0.85;clip-path:url(#SVGID_00000024694626914024986930000002931559188510213785_);fill:#8B9697;}
	.st32{opacity:0.85;fill:#174354;}
	.st33{fill:url(#SVGID_00000004526383693733124730000003550843399562052527_);}
	.st34{opacity:0.85;clip-path:url(#SVGID_00000060752308363836305470000001594929061707074186_);fill:#174354;}
	.st35{fill:#9E9E9F;}
	.st36{fill:url(#SVGID_00000052081978020786529020000009454197150592063935_);}
	.st37{fill:url(#SVGID_00000091706222307791491070000003182020397470939826_);}
	.st38{fill:url(#SVGID_00000172398137617076324360000002358592968979402404_);}
	.st39{fill-rule:evenodd;clip-rule:evenodd;fill:#FFFFFF;}
	.st40{fill:url(#SVGID_00000105414645220282226710000002747021797133942179_);}
	.st41{fill:url(#SVGID_00000170272900311665234210000013683256571630626694_);}
	.st42{fill:url(#SVGID_00000150796300702243765850000006809592480390122672_);}
	.st43{fill:url(#SVGID_00000008854896135762371930000005533687094388203681_);}
	.st44{fill:#434343;}
	.st45{fill:url(#SVGID_00000034071737410750258830000008508378491679260035_);}
	.st46{opacity:0.6;}
	.st47{clip-path:url(#SVGID_00000139266235439829740110000017896754084941804173_);fill:#FFFFFF;}
	.st48{clip-path:url(#SVGID_00000037664482072181493860000005749840065733769904_);fill:#FFFFFF;}
	.st49{fill:url(#SVGID_00000127745214242397247240000006292584262307444363_);}
	.st50{clip-path:url(#SVGID_00000055701300903735287200000017615933097343399564_);fill:#FFFFFF;}
	.st51{fill:none;stroke:#FFFFFF;stroke-miterlimit:10;}
	.st52{fill:url(#SVGID_00000006693052061205566900000012215210587003270548_);}
	.st53{fill:url(#SVGID_00000044170193495928679630000011819312384148866951_);}
	.st54{fill:url(#SVGID_00000077312316519083318660000006981844153284127413_);}
	.st55{fill:url(#SVGID_00000104671451758323568860000012391585393595191214_);}
	.st56{fill:#D0121B;}
	.st57{fill:#C9CACA;}
	.st58{fill:#595757;}
	.st59{fill:#FFF100;}
	.st60{fill:#00B9EF;}
	.st61{fill:#EA5504;}
	.st62{fill:url(#SVGID_00000128457673301342441970000014504022924023205249_);}
	.st63{fill:url(#SVGID_00000067213348763403312820000008838482790160177081_);}
	.st64{fill:url(#SVGID_00000077306748471765418170000003141133474203737475_);}
	.st65{fill:url(#SVGID_00000064318297863870624790000016540715480058421424_);}
	.st66{fill:url(#SVGID_00000067200146862661988050000007282843403148797583_);}
	.st67{fill:url(#SVGID_00000120559197540905733860000007017953097947950490_);}
	.st68{opacity:0.75;fill:#666666;}
	.st69{opacity:0.5;clip-path:url(#SVGID_00000025438310469444303510000014042800855298398095_);fill:#231815;}
	
		.st70{clip-path:url(#SVGID_00000025438310469444303510000014042800855298398095_);fill:url(#SVGID_00000013872334907545021010000008440798029768176317_);}
	.st71{clip-path:url(#SVGID_00000025438310469444303510000014042800855298398095_);}
	.st72{opacity:0.85;clip-path:url(#SVGID_00000176745620445784062050000004939818919291079828_);fill:#C6741E;}
	.st73{clip-path:url(#SVGID_00000018929972848339851800000007038255706700695737_);}
	.st74{clip-path:url(#SVGID_00000081628060493221762900000017030222747784998026_);}
	.st75{opacity:0.85;fill:#B77B49;}
	.st76{clip-path:url(#SVGID_00000145037822399037318070000003809329087297686174_);}
	.st77{clip-path:url(#SVGID_00000053503962231816802610000012197030613743928757_);}
	.st78{clip-path:url(#SVGID_00000020400273943802956290000003975812972598840720_);}
	.st79{clip-path:url(#SVGID_00000070803871661609746990000013987684334678860194_);}
	.st80{clip-path:url(#SVGID_00000160155649539358536090000002250560129107233950_);}
	.st81{clip-path:url(#SVGID_00000003098845709057624710000008553639967909272718_);}
	.st82{clip-path:url(#SVGID_00000042730930003558697060000011162056516285893271_);}
	.st83{clip-path:url(#SVGID_00000106130266914405363390000008212145907407298729_);}
	.st84{clip-path:url(#SVGID_00000114796421625402573120000017655940037722614173_);}
	.st85{clip-path:url(#SVGID_00000135649326041898695410000006813816588984271805_);}
	.st86{clip-path:url(#SVGID_00000069394815694153737810000016114632911446872980_);}
	.st87{clip-path:url(#SVGID_00000178184711013088658360000013438970422207502473_);}
	.st88{clip-path:url(#SVGID_00000023970200722925744890000010767350037415245227_);}
	.st89{clip-path:url(#SVGID_00000085226097317258793430000002483678488808050615_);}
	.st90{clip-path:url(#SVGID_00000174569490358412711100000012470154880322317973_);}
	.st91{clip-path:url(#SVGID_00000094600793512840455650000016863756690716576645_);}
	.st92{clip-path:url(#SVGID_00000147926042902668496230000009752033657821307541_);}
	.st93{clip-path:url(#SVGID_00000148647835082626945080000013743746114550447503_);}
	.st94{clip-path:url(#SVGID_00000049207355018027128110000018317224708178446731_);}
	.st95{clip-path:url(#SVGID_00000034774966766120807420000015740945490506517179_);}
	.st96{clip-path:url(#SVGID_00000163768036186347517340000018414042100149470894_);}
	.st97{clip-path:url(#SVGID_00000124135571189241125430000016846661237515260553_);}
	.st98{clip-path:url(#SVGID_00000098926974676520374170000010201107655904315014_);}
	.st99{fill:none;stroke:#B77B49;stroke-miterlimit:10;}
	.st100{clip-path:url(#SVGID_00000022553074840074759430000001607159643045572240_);}
	.st101{clip-path:url(#SVGID_00000180328649434590527200000013725985295216675007_);}
	.st102{clip-path:url(#SVGID_00000111896591193823325480000014693315842922240413_);}
	.st103{clip-path:url(#SVGID_00000111873065437263221050000001706340413417295009_);}
	.st104{clip-path:url(#SVGID_00000163782032891725056530000012276144025355525550_);}
	.st105{fill:#0F2C35;}
	.st106{fill:#AF3F36;}
	.st107{fill:#B27848;}
	.st108{fill:#FFFFFF;stroke:#231815;stroke-miterlimit:10;}
	.st109{fill:#B18448;}
	.st110{fill:#C6741E;}
	.st111{fill:#A2A67E;}
	.st112{fill:#8B9697;}
	.st113{fill:#174354;}
	.st114{clip-path:url(#SVGID_00000020375137114156175550000017670234869212711846_);}
	.st115{clip-path:url(#SVGID_00000183944274240831484670000002208521598892623490_);fill:#595757;}
	.st116{clip-path:url(#SVGID_00000052068591144219101290000007162523441072664749_);}
	.st117{clip-path:url(#SVGID_00000093863721015357962370000015119663139798751390_);}
	.st118{clip-path:url(#SVGID_00000042716957341719631900000014268577943059479945_);}
	.st119{clip-path:url(#SVGID_00000083053065314750654850000007446077683361277330_);}
	.st120{clip-path:url(#SVGID_00000153707025012643886720000015272602925957474480_);}
	.st121{clip-path:url(#SVGID_00000008149903428658864500000001156429480132663444_);}
	.st122{clip-path:url(#SVGID_00000109003091314863425470000013576090869455925908_);}
	.st123{clip-path:url(#SVGID_00000034060681385792426870000004098483769350672523_);}
	.st124{clip-path:url(#SVGID_00000047025772027669953480000015466702539524602507_);}
	.st125{clip-path:url(#SVGID_00000147192199524839443660000007522283227618315928_);}
	.st126{clip-path:url(#SVGID_00000010999567352959581880000002519507140755851654_);}
	.st127{clip-path:url(#SVGID_00000154390011685248045640000013985741770086615992_);}
	.st128{clip-path:url(#SVGID_00000178188404276801772070000015728456507418519436_);}
	.st129{clip-path:url(#SVGID_00000038373550521680348280000007296393559773424276_);}
	.st130{clip-path:url(#SVGID_00000115476309055016109110000013674048484943146128_);}
	.st131{clip-path:url(#SVGID_00000031201901423314231110000016321711537403860399_);}
	.st132{clip-path:url(#SVGID_00000023980455976978547100000015232702676799518888_);}
	.st133{clip-path:url(#SVGID_00000102541857571058399970000002843399784901378486_);}
	
		.st134{clip-path:url(#SVGID_00000044873555169963273880000014165302693678603420_);fill:url(#SVGID_00000078734256552776094120000014211183090018957964_);}
	.st135{clip-path:url(#SVGID_00000019668013370841976040000004611397949812150658_);}
	.st136{clip-path:url(#SVGID_00000060003752415732464800000012456873507376286596_);fill:#D0121B;}
	.st137{clip-path:url(#SVGID_00000131327548310797219720000001157955119197344422_);}
	.st138{clip-path:url(#SVGID_00000173864741299650037460000004198526771191171504_);fill:#C9CACA;}
	.st139{clip-path:url(#SVGID_00000139264995601474836530000000210888432989133729_);}
	.st140{clip-path:url(#SVGID_00000114791250445948840920000001221057758046471864_);fill:#EA5504;}
	.st141{clip-path:url(#SVGID_00000158707081432393837870000000065949368004065939_);}
	.st142{clip-path:url(#SVGID_00000158016484211002109410000010222523586616509082_);fill:#FFF100;}
	.st143{clip-path:url(#SVGID_00000022559015379867309250000017105093857708478625_);}
	.st144{clip-path:url(#SVGID_00000043459731075277004710000016984130337339556530_);fill:#00B9EF;}
</style>
<g id="圖層_6" class="st0">
</g>
<g id="底屠">
</g>
<g id="物件">
	<g>
		<defs>
			<rect id="SVGID_00000057853436088371583020000011725229366440473021_" width="213.99" height="67.92"/>
		</defs>
		<clipPath id="SVGID_00000020374982120951359170000015502763326381022648_">
			<use xlink:href="#SVGID_00000057853436088371583020000011725229366440473021_"  style="overflow:visible;"/>
		</clipPath>
		<g style="clip-path:url(#SVGID_00000020374982120951359170000015502763326381022648_);">
			<g>
				<path class="st19" d="M73.31,3.28c0,0.62,0.03,1.29,0.03,2.02h3.5c0.92,0,2.24-0.11,2.91-0.22v3.72
					c-0.9-0.03-1.96-0.08-2.72-0.08h-3.61c0.08,4.09,0.2,8.76,0.25,12.54c0.03,1.79-1.01,2.83-3.14,2.83
					c-1.71,0-3.28-0.06-4.87-0.17l-0.31-3.64c1.26,0.22,2.77,0.34,3.72,0.34c0.7,0,0.98-0.36,0.98-1.18c0-1.88,0-4.68-0.06-7.56
					c-2.46,3.22-7,7.11-11.42,9.46l-2.58-2.91c5.46-2.58,10.08-6.52,12.32-9.72h-7.64c-1.01,0-2.21,0.06-3.19,0.11V5.1
					c0.81,0.11,2.16,0.2,3.11,0.2h9.27c-0.03-0.73-0.06-1.4-0.08-2.02c-0.08-1.2-0.17-2.1-0.28-2.83h3.98
					C73.37,1.32,73.31,2.41,73.31,3.28z"/>
				<path class="st19" d="M84.26,12.77c1.26-1.29,3.44-4.03,5.38-6.33c1.65-1.96,3.3-2.27,5.49-0.22c1.88,1.76,4.03,4,5.71,5.82
					c1.88,1.99,4.73,5.1,6.89,7.39l-3.08,3.3c-1.88-2.32-4.26-5.21-5.91-7.14c-1.62-1.93-4.12-4.65-5.12-5.68
					c-0.9-0.9-1.48-0.84-2.3,0.17c-1.09,1.4-3.08,4.17-4.2,5.68c-0.64,0.9-1.32,1.88-1.82,2.6l-3.36-3.47
					C82.78,14.22,83.39,13.61,84.26,12.77z M102.97,2.1c2.02,0,3.64,1.62,3.64,3.64c0,2.02-1.62,3.61-3.64,3.61
					c-2.02,0-3.61-1.6-3.61-3.61C99.35,3.72,100.95,2.1,102.97,2.1z M102.97,7.5c0.98,0,1.79-0.78,1.79-1.76
					c0-0.98-0.81-1.79-1.79-1.79c-0.98,0-1.76,0.81-1.76,1.79C101.2,6.72,101.99,7.5,102.97,7.5z"/>
				<path class="st19" d="M131.95,10.7c-0.84,2.72-2.04,5.43-4.14,7.76c-2.83,3.14-6.41,5.04-10,6.05l-2.77-3.16
					c4.2-0.87,7.56-2.72,9.69-4.9c1.51-1.54,2.38-3.28,2.88-4.84h-13.52c-0.67,0-2.07,0.03-3.25,0.14V8.09
					c1.18,0.08,2.38,0.17,3.25,0.17h13.86c0.9,0,1.65-0.11,2.04-0.28l2.49,1.54C132.28,9.88,132.06,10.39,131.95,10.7z M116.32,1.54
					h10.78c0.87,0,2.24-0.03,3.02-0.14v3.61c-0.76-0.06-2.07-0.08-3.08-0.08h-10.72c-0.9,0-2.1,0.03-2.91,0.08V1.4
					C114.19,1.51,115.37,1.54,116.32,1.54z"/>
				<path class="st19" d="M141.89,3l4.09,0.84c-0.22,0.81-0.56,2.18-0.67,2.8c-0.39,1.99-1.4,5.82-2.38,8.43
					c-1.01,2.72-2.66,5.91-4.12,8.01l-3.92-1.65c1.74-2.3,3.39-5.32,4.34-7.78C140.49,10.53,141.55,6.55,141.89,3z M149,3.84
					l3.72-1.2c1.15,2.18,3.08,6.5,4.14,9.18c0.98,2.55,2.46,7,3.25,9.77l-4.14,1.34c-0.78-3.3-1.79-6.86-2.91-9.88
					C151.99,10.11,150.17,5.99,149,3.84z"/>
				<path class="st19" d="M176.33,2.58v2.16h4.87c1.18,0,1.85-0.14,2.32-0.31l2.44,1.48c-0.22,0.62-0.45,1.68-0.56,2.24
					c-0.48,2.69-1.23,5.38-2.6,7.92c-2.24,4.14-6.44,7.11-11.42,8.4l-2.91-3.36c1.26-0.22,2.8-0.64,3.95-1.09
					c2.32-0.87,4.79-2.52,6.36-4.79c1.43-2.04,2.16-4.7,2.49-7.2h-13.89v4.09c0,0.64,0.03,1.51,0.08,2.07h-3.86
					c0.08-0.7,0.14-1.6,0.14-2.35V7c0-0.62-0.03-1.74-0.14-2.41c0.95,0.11,1.79,0.14,2.86,0.14h5.99V2.58
					c0-0.78-0.03-1.37-0.22-2.58h4.31C176.38,1.2,176.33,1.79,176.33,2.58z"/>
				<path class="st19" d="M208.81,5.63c-0.95,2.18-2.52,5.18-4.4,7.7c2.77,2.41,6.16,5.99,7.81,8.01l-3.19,2.77
					c-1.82-2.52-4.42-5.38-7.06-7.92c-2.97,3.14-6.69,6.05-10.53,7.87l-2.88-3.02c4.51-1.68,8.85-5.1,11.48-8.04
					c1.85-2.1,3.56-4.87,4.17-6.86h-9.49c-1.18,0-2.72,0.17-3.3,0.2V2.35c0.76,0.11,2.46,0.2,3.3,0.2h9.88
					c1.2,0,2.32-0.17,2.88-0.36l2.3,1.71C209.56,4.2,209.06,5.07,208.81,5.63z"/>
				<path class="st19" d="M39.13,49.38c0-3.45,0.94-6.21,2.81-8.27s4.41-3.1,7.6-3.1c2.96,0,5.35,1.01,7.16,3.03s2.71,4.62,2.71,7.8
					c0,3.43-0.91,6.19-2.74,8.27c-1.83,2.08-4.32,3.12-7.49,3.12c-3.03,0-5.46-1.01-7.29-3.04C40.05,55.17,39.13,52.56,39.13,49.38z
					 M41.61,49.16c0,2.58,0.68,4.72,2.05,6.41c1.37,1.69,3.2,2.53,5.5,2.53c2.45,0,4.36-0.8,5.73-2.39c1.37-1.6,2.05-3.76,2.05-6.5
					c0-2.83-0.66-5.04-1.98-6.63s-3.19-2.39-5.6-2.39c-2.35,0-4.23,0.85-5.64,2.55C42.32,44.42,41.61,46.57,41.61,49.16z"/>
				<path class="st19" d="M65.67,57.63v9.32h-2.32V44.52h2.32v2.72h0.07c1.21-2.05,2.99-3.08,5.32-3.08c1.95,0,3.49,0.68,4.62,2.05
					c1.13,1.37,1.69,3.21,1.69,5.55c0,2.55-0.63,4.61-1.9,6.16c-1.26,1.55-2.97,2.33-5.13,2.33c-2,0-3.54-0.87-4.61-2.61H65.67z
					 M65.67,53.66c0,1.29,0.43,2.38,1.29,3.27c0.86,0.89,1.92,1.34,3.18,1.34c1.51,0,2.7-0.58,3.56-1.75s1.3-2.78,1.3-4.83
					c0-1.73-0.41-3.09-1.22-4.07c-0.81-0.99-1.9-1.48-3.25-1.48c-1.41,0-2.57,0.5-3.49,1.49c-0.92,1-1.37,2.27-1.37,3.81V53.66z"/>
				<path class="st19" d="M93.57,52.77H82.69c0.05,1.77,0.51,3.12,1.4,4.07c0.89,0.94,2.11,1.42,3.65,1.42
					c1.73,0,3.33-0.58,4.79-1.74v2.22c-1.34,1-3.12,1.5-5.33,1.5c-2.14,0-3.82-0.7-5.06-2.1s-1.85-3.36-1.85-5.9
					c0-2.33,0.67-4.26,2.01-5.79c1.34-1.53,3.01-2.29,5.02-2.29c1.97,0,3.51,0.65,4.61,1.94c1.1,1.3,1.65,3.1,1.65,5.41V52.77z
					 M91.19,50.73c-0.01-1.44-0.36-2.57-1.04-3.37s-1.64-1.2-2.87-1.2c-1.12,0-2.1,0.4-2.95,1.21c-0.85,0.8-1.38,1.92-1.6,3.36
					H91.19z"/>
				<path class="st19" d="M105.23,46.9c-0.43-0.32-1.04-0.49-1.85-0.49c-1.08,0-1.97,0.52-2.67,1.55c-0.7,1.03-1.05,2.39-1.05,4.06
					v7.86h-2.32V44.52h2.32v3.18h0.07c0.35-1.09,0.89-1.94,1.61-2.54s1.52-0.9,2.39-0.9c0.66,0,1.16,0.07,1.5,0.21V46.9z"/>
				<path class="st19" d="M108.29,45.62c1.51-0.97,3.23-1.46,5.18-1.46c3.56,0,5.34,1.89,5.34,5.68v10.04h-2.32v-2.42h-0.08
					c-1.06,1.85-2.64,2.78-4.72,2.78c-1.52,0-2.71-0.41-3.59-1.21c-0.87-0.81-1.31-1.88-1.31-3.21c0-2.84,1.68-4.5,5.05-4.98
					l4.64-0.67c0-2.67-1.06-4-3.19-4c-1.86,0-3.53,0.63-5,1.9V45.62z M112.72,52.59c-1.31,0.18-2.23,0.49-2.74,0.95
					c-0.51,0.46-0.77,1.16-0.77,2.12c0,0.77,0.27,1.39,0.83,1.87c0.55,0.48,1.27,0.72,2.16,0.72c1.23,0,2.25-0.44,3.07-1.32
					c0.81-0.88,1.22-1.98,1.22-3.29v-1.55L112.72,52.59z"/>
				<path class="st19" d="M146.92,59.88h-2.36v-9.87h-11.27v9.87h-2.36v-21.5h2.36v9.5h11.27v-9.5h2.36V59.88z"/>
				<path class="st19" d="M151.24,52.39c0-2.55,0.7-4.56,2.09-6.03c1.39-1.47,3.29-2.2,5.69-2.2c2.26,0,4.03,0.71,5.31,2.12
					c1.28,1.42,1.92,3.37,1.92,5.87c0,2.42-0.69,4.38-2.08,5.86c-1.39,1.48-3.23,2.22-5.51,2.22c-2.21,0-4-0.71-5.37-2.14
					C151.92,56.67,151.24,54.77,151.24,52.39z M153.6,52.3c0,1.81,0.47,3.26,1.42,4.35c0.95,1.08,2.21,1.62,3.8,1.62
					c1.61,0,2.86-0.53,3.74-1.58c0.88-1.05,1.33-2.54,1.33-4.44c0-1.95-0.44-3.46-1.31-4.52c-0.88-1.06-2.13-1.59-3.75-1.59
					c-1.59,0-2.86,0.55-3.8,1.64C154.07,48.87,153.6,50.38,153.6,52.3z"/>
				<path class="st19" d="M182.5,59.88h-2.32v-2.43h-0.06c-1.01,1.86-2.59,2.79-4.73,2.79c-3.67,0-5.5-2.18-5.5-6.54v-9.18h2.29
					v8.79c0,3.3,1.26,4.96,3.78,4.96c1.24,0,2.25-0.46,3.04-1.37c0.79-0.92,1.18-2.09,1.18-3.53v-8.84h2.32V59.88z"/>
				<path class="st19" d="M186.56,56.75c1.34,0.99,2.81,1.49,4.41,1.49c2.18,0,3.28-0.74,3.28-2.21c0-0.65-0.24-1.17-0.71-1.58
					s-1.41-0.88-2.81-1.4c-1.67-0.66-2.77-1.32-3.32-1.99c-0.55-0.67-0.82-1.49-0.82-2.48c0-1.31,0.56-2.38,1.69-3.19
					c1.12-0.81,2.51-1.22,4.14-1.22c1.31,0,2.49,0.23,3.53,0.69v2.42c-1.13-0.74-2.43-1.11-3.9-1.11c-0.91,0-1.65,0.2-2.21,0.61
					c-0.57,0.41-0.85,0.94-0.85,1.61c0,0.67,0.2,1.17,0.59,1.53c0.39,0.35,1.28,0.81,2.66,1.38c1.75,0.67,2.92,1.34,3.52,2.02
					c0.6,0.68,0.9,1.52,0.9,2.51c0,1.37-0.56,2.45-1.69,3.24s-2.57,1.19-4.32,1.19c-1.58,0-2.94-0.31-4.07-0.93V56.75z"/>
				<path class="st19" d="M212.72,52.77h-10.88c0.05,1.77,0.51,3.12,1.4,4.07c0.89,0.94,2.11,1.42,3.65,1.42
					c1.73,0,3.33-0.58,4.79-1.74v2.22c-1.34,1-3.12,1.5-5.33,1.5c-2.14,0-3.82-0.7-5.06-2.1s-1.85-3.36-1.85-5.9
					c0-2.33,0.67-4.26,2.01-5.79c1.34-1.53,3.01-2.29,5.02-2.29c1.97,0,3.51,0.65,4.61,1.94c1.1,1.3,1.65,3.1,1.65,5.41V52.77z
					 M210.34,50.73c-0.01-1.44-0.36-2.57-1.04-3.37s-1.64-1.2-2.87-1.2c-1.12,0-2.1,0.4-2.95,1.21c-0.85,0.8-1.38,1.92-1.6,3.36
					H210.34z"/>
			</g>
		</g>
	</g>
</g>
<g id="瀏海">
</g>
<g id="圖層_3" class="st0">
</g>
<g id="圖層_4">
</g>
<g id="分">
</g>
</svg>
