<?xml version="1.0" encoding="utf-8"?>
<!-- Generator: Adobe Illustrator 26.2.1, SVG Export Plug-In . SVG Version: 6.00 Build 0)  -->
<svg version="1.1" xmlns="http://www.w3.org/2000/svg" xmlns:xlink="http://www.w3.org/1999/xlink" x="0px" y="0px"
	 viewBox="0 0 213.99 68.12" style="enable-background:new 0 0 213.99 68.12;" xml:space="preserve">
<style type="text/css">
	.st0{display:none;}
	.st1{opacity:0.5;fill:#231815;}
	.st2{opacity:0.5;fill:url(#SVGID_00000031183585235871235050000006766962876773423806_);}
	.st3{opacity:0.25;fill:#CCC8C7;}
	.st4{opacity:0.6;fill:url(#SVGID_00000043421378125509176080000011236428362823920008_);}
	.st5{opacity:0.6;fill:url(#SVGID_00000084493418699746564780000015757942750837861043_);}
	.st6{opacity:0.6;fill:url(#SVGID_00000176751521978887772930000014425329047521953975_);}
	.st7{opacity:0.6;fill:url(#SVGID_00000006684443559238897500000013971320252441074321_);}
	.st8{clip-path:url(#SVGID_00000181072629862736808550000016581750077455882627_);}
	.st9{clip-path:url(#SVGID_00000089575814495992989700000013418873044297394327_);}
	.st10{clip-path:url(#SVGID_00000134210721909366833680000002667093540202732731_);}
	.st11{clip-path:url(#SVGID_00000124126397020261831360000001158978521733917331_);}
	.st12{clip-path:url(#SVGID_00000042711900190289216240000014224921624259704448_);}
	.st13{clip-path:url(#SVGID_00000181790819572735158450000006691633911144156075_);}
	
		.st14{clip-path:url(#SVGID_00000119098491844410774550000006031595922446089889_);fill:url(#SVGID_00000102509921793269537820000013715755429327620234_);}
	.st15{opacity:0.85;fill:none;stroke:#B77B49;stroke-width:5;stroke-miterlimit:10;}
	
		.st16{clip-path:url(#SVGID_00000049912658553213961820000017727835656656482473_);fill:url(#SVGID_00000086679554396936965240000014593274403032632204_);}
	.st17{opacity:0.85;clip-path:url(#SVGID_00000139286151506629146410000003245510059463647131_);fill:#B93322;}
	.st18{opacity:0.85;clip-path:url(#SVGID_00000086688898767235441320000007563298735299146644_);fill:#B18448;}
	.st19{fill:#FFFFFF;}
	.st20{fill:none;stroke:#FFFFFF;stroke-width:2;stroke-linecap:round;stroke-linejoin:round;stroke-miterlimit:10;}
	.st21{fill:none;stroke:#FFFFFF;stroke-width:3;stroke-miterlimit:10;}
	.st22{fill:url(#SVGID_00000164477857044372274320000006080837242517454236_);}
	.st23{fill:none;stroke:#FFFFFF;stroke-width:0.7;stroke-miterlimit:10;}
	.st24{opacity:0.85;clip-path:url(#SVGID_00000145755579645586361840000006641026316569669025_);fill:#A2A67E;}
	.st25{fill:url(#SVGID_00000005982095910998710040000010272703153141288335_);}
	.st26{opacity:0.85;clip-path:url(#SVGID_00000129902792962541024280000014515249029998536344_);fill:#C6741E;}
	.st27{opacity:0.89;fill:#DEAD5E;}
	.st28{fill:none;stroke:#FFFFFF;stroke-width:2;stroke-miterlimit:10;}
	.st29{fill:url(#SVGID_00000065788156421545116150000001947946998354111120_);}
	.st30{fill:url(#SVGID_00000120525485768173499190000008924073435849395117_);}
	.st31{opacity:0.85;clip-path:url(#SVGID_00000030481634974721728500000009355642017430573445_);fill:#8B9697;}
	.st32{opacity:0.85;fill:#174354;}
	.st33{fill:url(#SVGID_00000047046058524004970050000014894238289111558321_);}
	.st34{opacity:0.85;clip-path:url(#SVGID_00000136375411944788280340000000382461494321293970_);fill:#174354;}
	.st35{fill:#9E9E9F;}
	.st36{fill:url(#SVGID_00000035513513948004070550000013547650776953358999_);}
	.st37{fill:url(#SVGID_00000121279982302033639700000004982812960987651206_);}
	.st38{fill:url(#SVGID_00000041287799682357619320000014318208856337341352_);}
	.st39{fill-rule:evenodd;clip-rule:evenodd;fill:#FFFFFF;}
	.st40{fill:url(#SVGID_00000153686792169731543440000014550601285587455115_);}
	.st41{fill:url(#SVGID_00000109723199894240239750000005752970972617195942_);}
	.st42{fill:url(#SVGID_00000012457160922287650520000005161857471773075611_);}
	.st43{fill:url(#SVGID_00000138558985318687117280000014701687894989998269_);}
	.st44{fill:#434343;}
	.st45{fill:url(#SVGID_00000017502583536411905590000012154011969763571367_);}
	.st46{opacity:0.6;}
	.st47{clip-path:url(#SVGID_00000078745635790299930860000016706048698260562872_);fill:#FFFFFF;}
	.st48{clip-path:url(#SVGID_00000098935879485167909380000011535293996586762114_);fill:#FFFFFF;}
	.st49{fill:url(#SVGID_00000082364066604849814200000005400214454189225641_);}
	.st50{clip-path:url(#SVGID_00000036948497254342607540000009690765882545978034_);fill:#FFFFFF;}
	.st51{fill:none;stroke:#FFFFFF;stroke-miterlimit:10;}
	.st52{fill:url(#SVGID_00000120520584315971924890000015576404257393660839_);}
	.st53{fill:url(#SVGID_00000136409424135641301170000007512578333755301279_);}
	.st54{fill:url(#SVGID_00000136393465938279776200000005139248444668652719_);}
	.st55{fill:url(#SVGID_00000052090941056113078190000005066971604233471386_);}
	.st56{fill:#D0121B;}
	.st57{fill:#C9CACA;}
	.st58{fill:#595757;}
	.st59{fill:#FFF100;}
	.st60{fill:#00B9EF;}
	.st61{fill:#EA5504;}
	.st62{fill:url(#SVGID_00000161590976592338850450000000394263571925657777_);}
	.st63{fill:url(#SVGID_00000030470715433449956450000015760581733394442906_);}
	.st64{fill:url(#SVGID_00000160893964508418212500000009393280231968188801_);}
	.st65{fill:url(#SVGID_00000017497337190224669070000013104296295619776643_);}
	.st66{fill:url(#SVGID_00000173873720792600626950000000270119486687141819_);}
	.st67{fill:url(#SVGID_00000057848805318970250060000011206831785161655487_);}
	.st68{opacity:0.75;fill:#666666;}
	.st69{opacity:0.5;clip-path:url(#SVGID_00000065053594210755711910000016904711352190280118_);fill:#231815;}
	
		.st70{clip-path:url(#SVGID_00000065053594210755711910000016904711352190280118_);fill:url(#SVGID_00000079455668589989239530000009353885420744118658_);}
	.st71{clip-path:url(#SVGID_00000065053594210755711910000016904711352190280118_);}
	.st72{opacity:0.85;clip-path:url(#SVGID_00000116920725863995109470000004851342744440024480_);fill:#C6741E;}
	.st73{clip-path:url(#SVGID_00000054948317471117505440000004672703549413088693_);}
	.st74{clip-path:url(#SVGID_00000115501276710495750000000006994825809325589401_);}
	.st75{opacity:0.85;fill:#B77B49;}
	.st76{clip-path:url(#SVGID_00000075131537033295435370000003399628829331880876_);}
	.st77{clip-path:url(#SVGID_00000119118506152252619100000003756151866458446478_);}
	.st78{clip-path:url(#SVGID_00000080918953998251889150000007912056633536770726_);}
	.st79{clip-path:url(#SVGID_00000076595322700000506620000009531484454319707066_);}
	.st80{clip-path:url(#SVGID_00000006678173003255000830000015129426829845129626_);}
	.st81{clip-path:url(#SVGID_00000062881043456174469440000011424716093941940386_);}
	.st82{clip-path:url(#SVGID_00000147197994590024287960000013121251171159242644_);}
	.st83{clip-path:url(#SVGID_00000158735827483957109100000008288272222748199321_);}
	.st84{clip-path:url(#SVGID_00000173853158216169569650000000431163047500964525_);}
	.st85{clip-path:url(#SVGID_00000026873483847976051850000009230557017369960841_);}
	.st86{clip-path:url(#SVGID_00000039124317870517284770000017926728827978745224_);}
	.st87{clip-path:url(#SVGID_00000014622715196817208230000002193754233039946171_);}
	.st88{clip-path:url(#SVGID_00000072963162826250435060000007342051451597661356_);}
	.st89{clip-path:url(#SVGID_00000124870938316031695120000014416047833257831833_);}
	.st90{clip-path:url(#SVGID_00000111154945412096469030000003522240269240151707_);}
	.st91{clip-path:url(#SVGID_00000174566587164223889920000000034592268463766460_);}
	.st92{clip-path:url(#SVGID_00000041290494019722615270000004615611505561405846_);}
	.st93{clip-path:url(#SVGID_00000114037450999195652040000015853022407785970108_);}
	.st94{clip-path:url(#SVGID_00000110454054521519483490000014580947333977603513_);}
	.st95{clip-path:url(#SVGID_00000005235592195606402450000010553772768242401437_);}
	.st96{clip-path:url(#SVGID_00000163791385176525073950000006650332658769088697_);}
	.st97{clip-path:url(#SVGID_00000176747970165543535690000011823834555273162895_);}
	.st98{clip-path:url(#SVGID_00000124142220120309213450000002516556550512730551_);}
	.st99{fill:none;stroke:#B77B49;stroke-miterlimit:10;}
	.st100{clip-path:url(#SVGID_00000106135368616828475490000001897989369912210345_);}
	.st101{clip-path:url(#SVGID_00000044163815469892418670000003984430817992929940_);}
	.st102{clip-path:url(#SVGID_00000060731906655847648740000004335879602182346681_);}
	.st103{clip-path:url(#SVGID_00000134234413249993346560000010120366953844887208_);}
	.st104{clip-path:url(#SVGID_00000145060432758766661440000002233347489297877438_);}
	.st105{fill:#0F2C35;}
	.st106{fill:#AF3F36;}
	.st107{fill:#B27848;}
	.st108{fill:#FFFFFF;stroke:#231815;stroke-miterlimit:10;}
	.st109{fill:#B18448;}
	.st110{fill:#C6741E;}
	.st111{fill:#A2A67E;}
	.st112{fill:#8B9697;}
	.st113{fill:#174354;}
	.st114{clip-path:url(#SVGID_00000048497221206129929870000001491677066690641835_);}
	.st115{clip-path:url(#SVGID_00000063591836861703056290000011913930598867699851_);fill:#595757;}
	.st116{clip-path:url(#SVGID_00000056391955397495658030000011150096195304667048_);}
	.st117{clip-path:url(#SVGID_00000119113249491461834030000004738288196939555746_);}
	.st118{clip-path:url(#SVGID_00000139984630486912987280000004880813790542418831_);}
	.st119{clip-path:url(#SVGID_00000080195274755414163610000014336304898847392152_);}
	.st120{clip-path:url(#SVGID_00000121978241387930861130000012217061830158931104_);}
	.st121{clip-path:url(#SVGID_00000085244949378669690580000010183333290708781726_);}
	.st122{clip-path:url(#SVGID_00000048496462817572531480000016891778053685033394_);}
	.st123{clip-path:url(#SVGID_00000046333325163428152130000010409972635664628372_);}
	.st124{clip-path:url(#SVGID_00000086678563989864947370000003795302563509858185_);}
	.st125{clip-path:url(#SVGID_00000120524107823376603240000004362833616130968464_);}
	.st126{clip-path:url(#SVGID_00000083049559893374502330000008025561998041721217_);}
	.st127{clip-path:url(#SVGID_00000011748147671836615400000013921214751856246427_);}
	.st128{clip-path:url(#SVGID_00000005962179345369963470000006344131230644863121_);}
	.st129{clip-path:url(#SVGID_00000043427006028937925290000018183180112957356209_);}
	.st130{clip-path:url(#SVGID_00000176041017580044705110000006235593520804080317_);}
	.st131{clip-path:url(#SVGID_00000056410900279415634180000014068027366445027210_);}
	.st132{clip-path:url(#SVGID_00000111871283441625743560000003000851553579269548_);}
	.st133{clip-path:url(#SVGID_00000176038264527714802840000002313202792259142548_);}
	
		.st134{clip-path:url(#SVGID_00000145746219747378439830000005703693685679174831_);fill:url(#SVGID_00000061456320906852943600000002678658705213910414_);}
	.st135{clip-path:url(#SVGID_00000012440219192262512170000012839847345224834210_);}
	.st136{clip-path:url(#SVGID_00000127041855169714089030000005902854693698956723_);fill:#D0121B;}
	.st137{clip-path:url(#SVGID_00000144297059699045759520000014014906967924172991_);}
	.st138{clip-path:url(#SVGID_00000173876486402484063530000009414582773611521444_);fill:#C9CACA;}
	.st139{clip-path:url(#SVGID_00000052066180535779880920000016713560706769903270_);}
	.st140{clip-path:url(#SVGID_00000108274944740655018760000002812441501815289272_);fill:#EA5504;}
	.st141{clip-path:url(#SVGID_00000172416168460718668970000000495018240804804485_);}
	.st142{clip-path:url(#SVGID_00000129179635416408074910000017191563913877775274_);fill:#FFF100;}
	.st143{clip-path:url(#SVGID_00000029047176682124698840000015174775733380470169_);}
	.st144{clip-path:url(#SVGID_00000097481141586131801520000005576048885074410155_);fill:#00B9EF;}
</style>
<g id="圖層_6" class="st0">
</g>
<g id="底屠">
</g>
<g id="物件">
	<g>
		<defs>
			<rect id="SVGID_00000059310814208557366200000000686133214547804060_" width="213.99" height="67.92"/>
		</defs>
		<clipPath id="SVGID_00000169531829817149677350000010572469553741712047_">
			<use xlink:href="#SVGID_00000059310814208557366200000000686133214547804060_"  style="overflow:visible;"/>
		</clipPath>
		<g style="clip-path:url(#SVGID_00000169531829817149677350000010572469553741712047_);">
			<g>
				<path class="st19" d="M81.01,0c1.82,0,3.33,1.51,3.33,3.36c0,1.82-1.51,3.33-3.33,3.33c-0.11,0-0.25,0-0.36-0.03
					c-0.08,0.31-0.14,0.59-0.22,0.84c-0.64,2.74-1.85,7.08-4.2,10.19c-2.52,3.36-6.27,6.13-11.26,7.76l-3.05-3.36
					c5.54-1.29,8.71-3.72,10.98-6.58c1.85-2.32,2.91-5.49,3.28-7.9H63.15c-1.29,0-2.63,0.06-3.33,0.11V3.78
					C60.63,3.89,62.23,4,63.15,4h12.96c0.39,0,1.01-0.03,1.6-0.11c-0.03-0.17-0.06-0.34-0.06-0.53C77.65,1.51,79.17,0,81.01,0z
					 M81.01,4.96c0.87,0,1.6-0.73,1.6-1.6c0-0.9-0.73-1.62-1.6-1.62c-0.9,0-1.62,0.73-1.62,1.62C79.39,4.23,80.12,4.96,81.01,4.96z"
					/>
				<path class="st19" d="M88.38,20.94V5.77c0-1.06-0.14-2.38-0.31-3.19h4.4c-0.17,1.09-0.28,2.1-0.28,3.19v14.56
					c4.56-1.32,10.81-4.9,14.39-9.27l1.99,3.16c-3.84,4.59-9.63,7.92-16.24,10.08c-0.39,0.14-1.01,0.34-1.65,0.76l-2.66-2.3
					C88.35,22.06,88.38,21.59,88.38,20.94z"/>
				<path class="st19" d="M122.79,7.98c2.88-1.79,6.08-4.59,7.9-6.8l3.02,2.88c-2.13,2.1-4.82,4.28-7.53,6.08v11.31
					c0,1.23,0.06,2.97,0.25,3.67H122c0.11-0.67,0.2-2.44,0.2-3.67v-8.96c-2.88,1.51-6.44,3.02-9.88,4.03l-1.76-3.53
					C115.57,11.7,119.68,9.88,122.79,7.98z"/>
				<path class="st19" d="M141.89,4l4.09,0.84c-0.22,0.81-0.56,2.18-0.67,2.8c-0.39,1.99-1.4,5.82-2.38,8.43
					c-1.01,2.72-2.66,5.91-4.12,8.01l-3.92-1.65c1.74-2.3,3.39-5.32,4.34-7.78C140.49,11.54,141.55,7.56,141.89,4z M149,4.84
					l3.72-1.2c1.15,2.18,3.08,6.5,4.14,9.18c0.98,2.55,2.46,7,3.25,9.77l-4.14,1.34c-0.78-3.3-1.79-6.86-2.91-9.88
					C151.99,11.12,150.17,7,149,4.84z"/>
				<path class="st19" d="M176.33,3.58v2.16h4.87c1.18,0,1.85-0.14,2.32-0.31l2.44,1.48c-0.22,0.62-0.45,1.68-0.56,2.24
					c-0.48,2.69-1.23,5.38-2.6,7.92c-2.24,4.14-6.44,7.11-11.42,8.4l-2.91-3.36c1.26-0.22,2.8-0.64,3.95-1.09
					c2.32-0.87,4.79-2.52,6.36-4.79c1.43-2.04,2.16-4.7,2.49-7.2h-13.89v4.09c0,0.64,0.03,1.51,0.08,2.07h-3.86
					c0.08-0.7,0.14-1.6,0.14-2.35V8.01c0-0.62-0.03-1.74-0.14-2.41c0.95,0.11,1.79,0.14,2.86,0.14h5.99V3.58
					c0-0.78-0.03-1.37-0.22-2.58h4.31C176.38,2.21,176.33,2.8,176.33,3.58z"/>
				<path class="st19" d="M208.81,6.64c-0.95,2.18-2.52,5.18-4.4,7.7c2.77,2.41,6.16,5.99,7.81,8.01l-3.19,2.77
					c-1.82-2.52-4.42-5.38-7.06-7.92c-2.97,3.14-6.69,6.05-10.53,7.87l-2.88-3.02c4.51-1.68,8.85-5.1,11.48-8.04
					c1.85-2.1,3.56-4.87,4.17-6.86h-9.49c-1.18,0-2.72,0.17-3.3,0.2V3.36c0.76,0.11,2.46,0.2,3.3,0.2h9.88
					c1.2,0,2.32-0.17,2.88-0.36l2.3,1.71C209.56,5.21,209.06,6.08,208.81,6.64z"/>
				<path class="st19" d="M82.9,52.72v8.16h-2.36v-21.5h5.8c2.25,0,4.01,0.56,5.28,1.68c1.27,1.12,1.9,2.69,1.9,4.72
					c0,2.11-0.75,3.81-2.24,5.11s-3.33,1.91-5.51,1.83H82.9z M82.9,41.56v8.95h2.69c1.77,0,3.12-0.4,4.05-1.2
					c0.93-0.8,1.39-1.94,1.39-3.42c0-2.89-1.7-4.33-5.11-4.33H82.9z"/>
				<path class="st19" d="M97.31,60.88V38.16h2.3v22.72H97.31z"/>
				<path class="st19" d="M105.03,46.63c1.51-0.97,3.23-1.46,5.18-1.46c3.56,0,5.34,1.89,5.34,5.68v10.04h-2.32v-2.42h-0.08
					c-1.06,1.85-2.64,2.78-4.72,2.78c-1.52,0-2.71-0.41-3.59-1.21c-0.87-0.81-1.31-1.88-1.31-3.21c0-2.84,1.68-4.5,5.05-4.98
					l4.64-0.67c0-2.67-1.06-4-3.19-4c-1.86,0-3.53,0.63-5,1.9V46.63z M109.45,53.6c-1.31,0.18-2.23,0.49-2.74,0.95
					c-0.51,0.46-0.77,1.16-0.77,2.12c0,0.77,0.27,1.39,0.83,1.87c0.55,0.48,1.27,0.72,2.16,0.72c1.23,0,2.25-0.44,3.07-1.32
					c0.81-0.88,1.22-1.98,1.22-3.29V53.1L109.45,53.6z"/>
				<path class="st19" d="M132.29,45.53l-7.11,17.89c-1.24,3.13-2.98,4.69-5.22,4.69c-0.57,0-1.07-0.06-1.51-0.18v-2.11
					c0.52,0.17,0.99,0.25,1.42,0.25c1.25,0,2.18-0.75,2.8-2.25l1.25-2.97l-5.98-15.33h2.57l4.23,11.98c0.06,0.17,0.16,0.53,0.32,1.1
					h0.08c0.04-0.19,0.13-0.55,0.29-1.07l4.46-12.01H132.29z"/>
				<path class="st19" d="M147.59,60.88h-2.3v-8.86c0-3.26-1.22-4.89-3.65-4.89c-1.23,0-2.26,0.47-3.1,1.42
					c-0.83,0.94-1.25,2.16-1.25,3.64v8.69h-2.32V38.16h2.32v9.94h0.07c1.17-1.95,2.86-2.93,5.05-2.93c3.45,0,5.18,2.09,5.18,6.26
					V60.88z"/>
				<path class="st19" d="M151.24,53.4c0-2.55,0.7-4.56,2.09-6.03c1.39-1.47,3.29-2.2,5.69-2.2c2.26,0,4.03,0.71,5.31,2.12
					c1.28,1.42,1.92,3.37,1.92,5.87c0,2.42-0.69,4.38-2.08,5.86c-1.39,1.48-3.23,2.22-5.51,2.22c-2.21,0-4-0.71-5.37-2.14
					C151.92,57.68,151.24,55.78,151.24,53.4z M153.6,53.3c0,1.81,0.47,3.26,1.42,4.35c0.95,1.08,2.21,1.62,3.8,1.62
					c1.61,0,2.86-0.53,3.74-1.58c0.88-1.05,1.33-2.54,1.33-4.44c0-1.95-0.44-3.46-1.31-4.52c-0.88-1.06-2.13-1.59-3.75-1.59
					c-1.59,0-2.86,0.55-3.8,1.64C154.07,49.88,153.6,51.39,153.6,53.3z"/>
				<path class="st19" d="M182.5,60.88h-2.32v-2.43h-0.06c-1.01,1.86-2.59,2.79-4.73,2.79c-3.67,0-5.5-2.18-5.5-6.54v-9.18h2.29
					v8.79c0,3.3,1.26,4.96,3.78,4.96c1.24,0,2.25-0.46,3.04-1.37c0.79-0.92,1.18-2.09,1.18-3.53v-8.84h2.32V60.88z"/>
				<path class="st19" d="M186.56,57.76c1.34,0.99,2.81,1.49,4.41,1.49c2.18,0,3.28-0.74,3.28-2.21c0-0.65-0.24-1.17-0.71-1.58
					s-1.41-0.88-2.81-1.4c-1.67-0.66-2.77-1.32-3.32-1.99c-0.55-0.67-0.82-1.49-0.82-2.48c0-1.31,0.56-2.38,1.69-3.19
					c1.12-0.81,2.51-1.22,4.14-1.22c1.31,0,2.49,0.23,3.53,0.69v2.42c-1.13-0.74-2.43-1.11-3.9-1.11c-0.91,0-1.65,0.2-2.21,0.61
					c-0.57,0.41-0.85,0.94-0.85,1.61c0,0.67,0.2,1.17,0.59,1.53c0.39,0.35,1.28,0.81,2.66,1.38c1.75,0.67,2.92,1.34,3.52,2.02
					c0.6,0.68,0.9,1.52,0.9,2.51c0,1.37-0.56,2.45-1.69,3.24s-2.57,1.19-4.32,1.19c-1.58,0-2.94-0.31-4.07-0.93V57.76z"/>
				<path class="st19" d="M212.72,53.78h-10.88c0.05,1.77,0.51,3.12,1.4,4.07c0.89,0.94,2.1,1.42,3.65,1.42
					c1.73,0,3.33-0.58,4.79-1.74v2.22c-1.34,1-3.12,1.5-5.33,1.5c-2.14,0-3.83-0.7-5.06-2.1s-1.85-3.36-1.85-5.9
					c0-2.33,0.67-4.26,2.01-5.79c1.34-1.53,3.01-2.29,5.02-2.29c1.97,0,3.51,0.65,4.61,1.94c1.1,1.3,1.65,3.1,1.65,5.41V53.78z
					 M210.34,51.74c-0.01-1.44-0.36-2.57-1.04-3.37c-0.68-0.8-1.64-1.2-2.87-1.2c-1.12,0-2.1,0.4-2.95,1.21s-1.38,1.92-1.6,3.36
					H210.34z"/>
			</g>
		</g>
	</g>
</g>
<g id="瀏海">
</g>
<g id="圖層_3" class="st0">
</g>
<g id="圖層_4">
</g>
<g id="分">
</g>
</svg>
