<?xml version="1.0" encoding="utf-8"?>
<!-- Generator: Adobe Illustrator 26.2.1, SVG Export Plug-In . SVG Version: 6.00 Build 0)  -->
<svg version="1.1" xmlns="http://www.w3.org/2000/svg" xmlns:xlink="http://www.w3.org/1999/xlink" x="0px" y="0px"
	 viewBox="0 0 213.99 67.92" style="enable-background:new 0 0 213.99 67.92;" xml:space="preserve">
<style type="text/css">
	.st0{display:none;}
	.st1{opacity:0.5;fill:#231815;}
	.st2{opacity:0.5;fill:url(#SVGID_00000136409513453093383690000001859687496022412182_);}
	.st3{opacity:0.25;fill:#CCC8C7;}
	.st4{opacity:0.6;fill:url(#SVGID_00000080902420437255072050000000853117839214096797_);}
	.st5{opacity:0.6;fill:url(#SVGID_00000153685860265870330120000008305683784163726750_);}
	.st6{opacity:0.6;fill:url(#SVGID_00000124140662123030920760000002494624882119025588_);}
	.st7{opacity:0.6;fill:url(#SVGID_00000052802793923711615930000014982794756793457597_);}
	.st8{clip-path:url(#SVGID_00000027606843597135068670000011842335278127440521_);}
	.st9{clip-path:url(#SVGID_00000070835620968818410300000006432960758370186925_);}
	.st10{clip-path:url(#SVGID_00000020398820006290899200000009726042608502781356_);}
	.st11{clip-path:url(#SVGID_00000031913553723563339960000015855946960386844062_);}
	.st12{clip-path:url(#SVGID_00000075880630494266346740000005865743047531501229_);}
	.st13{clip-path:url(#SVGID_00000108293754946434711260000017348807532669345154_);}
	
		.st14{clip-path:url(#SVGID_00000134212274635427351090000003878281089171248319_);fill:url(#SVGID_00000021831950938447555810000018033883078998415278_);}
	.st15{opacity:0.85;fill:none;stroke:#B77B49;stroke-width:5;stroke-miterlimit:10;}
	
		.st16{clip-path:url(#SVGID_00000157991433615087530130000006401563719311379118_);fill:url(#SVGID_00000183930259895711082410000011134304829677728406_);}
	.st17{opacity:0.85;clip-path:url(#SVGID_00000183240253095595746910000014359641375965586093_);fill:#B93322;}
	.st18{opacity:0.85;clip-path:url(#SVGID_00000114056895341366521040000004432009087919818681_);fill:#B18448;}
	.st19{fill:#FFFFFF;}
	.st20{fill:none;stroke:#FFFFFF;stroke-width:2;stroke-linecap:round;stroke-linejoin:round;stroke-miterlimit:10;}
	.st21{fill:none;stroke:#FFFFFF;stroke-width:3;stroke-miterlimit:10;}
	.st22{fill:url(#SVGID_00000110469626068594583350000005833058529539856305_);}
	.st23{fill:none;stroke:#FFFFFF;stroke-width:0.7;stroke-miterlimit:10;}
	.st24{opacity:0.85;clip-path:url(#SVGID_00000107561006998301078790000017330969990423842451_);fill:#A2A67E;}
	.st25{fill:url(#SVGID_00000063614955430677012590000013476980856263301509_);}
	.st26{opacity:0.85;clip-path:url(#SVGID_00000152986707344157514080000018368529293208501151_);fill:#C6741E;}
	.st27{opacity:0.89;fill:#DEAD5E;}
	.st28{fill:none;stroke:#FFFFFF;stroke-width:2;stroke-miterlimit:10;}
	.st29{fill:url(#SVGID_00000168803311249219108580000012320637833441515691_);}
	.st30{fill:url(#SVGID_00000016042090981391770490000005639644371183203464_);}
	.st31{opacity:0.85;clip-path:url(#SVGID_00000166636519952787429670000012255333214545536439_);fill:#8B9697;}
	.st32{opacity:0.85;fill:#174354;}
	.st33{fill:url(#SVGID_00000044175319729052167180000004333272609904190087_);}
	.st34{opacity:0.85;clip-path:url(#SVGID_00000021797671130468494230000006274820435716320142_);fill:#174354;}
	.st35{fill:#9E9E9F;}
	.st36{fill:url(#SVGID_00000080889408098644720250000017428136573094367916_);}
	.st37{fill:url(#SVGID_00000101082278433730889760000001153326853231427211_);}
	.st38{fill:url(#SVGID_00000016791140429891845900000000559808890535900053_);}
	.st39{fill-rule:evenodd;clip-rule:evenodd;fill:#FFFFFF;}
	.st40{fill:url(#SVGID_00000180365465710572241890000010107453648052651161_);}
	.st41{fill:url(#SVGID_00000091695678342332502130000010953933694031152824_);}
	.st42{fill:url(#SVGID_00000119810157325529885420000004784447824501661846_);}
	.st43{fill:url(#SVGID_00000163783661074691837080000002312540723028542629_);}
	.st44{fill:#434343;}
	.st45{fill:url(#SVGID_00000065032434035964592490000010945666484722389129_);}
	.st46{opacity:0.6;}
	.st47{clip-path:url(#SVGID_00000070832763997011215020000007091703650653295778_);fill:#FFFFFF;}
	.st48{clip-path:url(#SVGID_00000054241973780795829040000006474973792551728293_);fill:#FFFFFF;}
	.st49{fill:url(#SVGID_00000092458517968431423740000003031695001371284127_);}
	.st50{clip-path:url(#SVGID_00000043459669444588857670000009803620238629376441_);fill:#FFFFFF;}
	.st51{fill:none;stroke:#FFFFFF;stroke-miterlimit:10;}
	.st52{fill:url(#SVGID_00000142865640586036359130000006650304443569450409_);}
	.st53{fill:url(#SVGID_00000175295285419603630720000006069401771186120837_);}
	.st54{fill:url(#SVGID_00000069359234110144953710000014394843373079130244_);}
	.st55{fill:url(#SVGID_00000040557781024255062000000014160709170473838000_);}
	.st56{fill:#D0121B;}
	.st57{fill:#C9CACA;}
	.st58{fill:#595757;}
	.st59{fill:#FFF100;}
	.st60{fill:#00B9EF;}
	.st61{fill:#EA5504;}
	.st62{fill:url(#SVGID_00000129925984256267959330000005838973995050886574_);}
	.st63{fill:url(#SVGID_00000134934602693520872760000006564702125131417768_);}
	.st64{fill:url(#SVGID_00000010270665461308464100000007968068041576626600_);}
	.st65{fill:url(#SVGID_00000060008715784515086340000005892091464113175446_);}
	.st66{fill:url(#SVGID_00000067216668011159824980000010756018836517934514_);}
	.st67{fill:url(#SVGID_00000005225920012523824200000002373823157027205559_);}
	.st68{opacity:0.75;fill:#666666;}
	.st69{opacity:0.5;clip-path:url(#SVGID_00000168816060211662423590000009795976848646771344_);fill:#231815;}
	
		.st70{clip-path:url(#SVGID_00000168816060211662423590000009795976848646771344_);fill:url(#SVGID_00000082345864428931345270000000625752560392755106_);}
	.st71{clip-path:url(#SVGID_00000168816060211662423590000009795976848646771344_);}
	.st72{opacity:0.85;clip-path:url(#SVGID_00000067205793113105171200000008532273693487526328_);fill:#C6741E;}
	.st73{clip-path:url(#SVGID_00000095310372920283674800000013567912602205507997_);}
	.st74{clip-path:url(#SVGID_00000141414136079548517460000017991504631023716794_);}
	.st75{opacity:0.85;fill:#B77B49;}
	.st76{clip-path:url(#SVGID_00000102546626739727404190000016738972485126002855_);}
	.st77{clip-path:url(#SVGID_00000072262969555600880510000014053055044051010992_);}
	.st78{clip-path:url(#SVGID_00000156563195347077204810000003596347801044743326_);}
	.st79{clip-path:url(#SVGID_00000095314530203988780890000008778276664863495325_);}
	.st80{clip-path:url(#SVGID_00000068673149373959089000000006639093120897811878_);}
	.st81{clip-path:url(#SVGID_00000034811758352858622860000015005743485751492273_);}
	.st82{clip-path:url(#SVGID_00000062171006394129505670000002646716731529017510_);}
	.st83{clip-path:url(#SVGID_00000049201323829212531390000016838626152210577591_);}
	.st84{clip-path:url(#SVGID_00000061437066234680493690000015527681613954774951_);}
	.st85{clip-path:url(#SVGID_00000047765235559892900120000009404504733225732751_);}
	.st86{clip-path:url(#SVGID_00000031201263439136871240000015653420751310329986_);}
	.st87{clip-path:url(#SVGID_00000155868467432961787980000004718215452949221276_);}
	.st88{clip-path:url(#SVGID_00000142855961385263406020000004292821360216315547_);}
	.st89{clip-path:url(#SVGID_00000016766219504131570020000008567585513221897373_);}
	.st90{clip-path:url(#SVGID_00000089566174189713533900000014539554333327223210_);}
	.st91{clip-path:url(#SVGID_00000025410557654259473950000011942764972447612844_);}
	.st92{clip-path:url(#SVGID_00000055685876002830826450000006265674793632401299_);}
	.st93{clip-path:url(#SVGID_00000100377271299361662440000004082803774208828844_);}
	.st94{clip-path:url(#SVGID_00000119801562293702439050000006497054659974692528_);}
	.st95{clip-path:url(#SVGID_00000070097240182928151290000002905826731116676758_);}
	.st96{clip-path:url(#SVGID_00000044136360621377021160000005547699852618257284_);}
	.st97{clip-path:url(#SVGID_00000003824495267959850900000009829773668859894938_);}
	.st98{clip-path:url(#SVGID_00000153683945633115316480000017564835141271421574_);}
	.st99{fill:none;stroke:#B77B49;stroke-miterlimit:10;}
	.st100{clip-path:url(#SVGID_00000116214739805936844850000017613961763732603322_);}
	.st101{clip-path:url(#SVGID_00000155119681211846860270000012969843929328941201_);}
	.st102{clip-path:url(#SVGID_00000067935353227621875440000018173774866930731695_);}
	.st103{clip-path:url(#SVGID_00000038398879509044459330000000643385244856780213_);}
	.st104{clip-path:url(#SVGID_00000110466917977069692660000004765608589825107354_);}
	.st105{fill:#0F2C35;}
	.st106{fill:#AF3F36;}
	.st107{fill:#B27848;}
	.st108{fill:#FFFFFF;stroke:#231815;stroke-miterlimit:10;}
	.st109{fill:#B18448;}
	.st110{fill:#C6741E;}
	.st111{fill:#A2A67E;}
	.st112{fill:#8B9697;}
	.st113{fill:#174354;}
	.st114{clip-path:url(#SVGID_00000034088918011523072830000006850494822606962350_);}
	.st115{clip-path:url(#SVGID_00000083800675189681625000000017096306927639705012_);fill:#595757;}
	.st116{clip-path:url(#SVGID_00000142885175382399314830000004658673717448505760_);}
	.st117{clip-path:url(#SVGID_00000067237953677240479950000012317196988126161028_);}
	.st118{clip-path:url(#SVGID_00000119112932695918023980000000719634628403709593_);}
	.st119{clip-path:url(#SVGID_00000021804155358785871890000008665678622228233358_);}
	.st120{clip-path:url(#SVGID_00000043453206451747704010000018161480351660393639_);}
	.st121{clip-path:url(#SVGID_00000092436204503668558350000003200813390542257827_);}
	.st122{clip-path:url(#SVGID_00000132047178957245021050000016501115451366270612_);}
	.st123{clip-path:url(#SVGID_00000052807916409484903700000004909155705624835242_);}
	.st124{clip-path:url(#SVGID_00000011726882816307267180000018216774333145587846_);}
	.st125{clip-path:url(#SVGID_00000149350483227231385070000001004475694813870733_);}
	.st126{clip-path:url(#SVGID_00000129901694474760427870000009522820631000720556_);}
	.st127{clip-path:url(#SVGID_00000094611407737723397150000008920350100786928279_);}
	.st128{clip-path:url(#SVGID_00000139998418738435115040000008697756611193660033_);}
	.st129{clip-path:url(#SVGID_00000118388106335734260270000009906593010168188597_);}
	.st130{clip-path:url(#SVGID_00000020390456147779260810000012187305434532333992_);}
	.st131{clip-path:url(#SVGID_00000157286949140913624370000014439479879903884733_);}
	.st132{clip-path:url(#SVGID_00000085941626454063950010000015726491287484300696_);}
	.st133{clip-path:url(#SVGID_00000009573011574377242210000011999922195645925003_);}
	
		.st134{clip-path:url(#SVGID_00000139982610641925884590000008323371269617333376_);fill:url(#SVGID_00000157995892229394890880000010712585495794586034_);}
	.st135{clip-path:url(#SVGID_00000103238336096371811030000015918024989066359443_);}
	.st136{clip-path:url(#SVGID_00000002356493177402759000000004655709609464348072_);fill:#D0121B;}
	.st137{clip-path:url(#SVGID_00000181069418653910489480000005474784924526306724_);}
	.st138{clip-path:url(#SVGID_00000094607471424270816620000013248846540654431674_);fill:#C9CACA;}
	.st139{clip-path:url(#SVGID_00000060030680803085720750000002588403102304762031_);}
	.st140{clip-path:url(#SVGID_00000078015279307727048780000012408768844479439012_);fill:#EA5504;}
	.st141{clip-path:url(#SVGID_00000113353430110512842580000005423652895263169971_);}
	.st142{clip-path:url(#SVGID_00000181808697006862220870000008867346074140995743_);fill:#FFF100;}
	.st143{clip-path:url(#SVGID_00000084529243513163406960000000855577220087269521_);}
	.st144{clip-path:url(#SVGID_00000163795044469032417490000007563420797552774802_);fill:#00B9EF;}
</style>
<g id="圖層_6" class="st0">
</g>
<g id="底屠">
</g>
<g id="物件">
	<g>
		<defs>
			<rect id="SVGID_00000094618537749596234530000005269406320898081157_" width="213.99" height="67.92"/>
		</defs>
		<clipPath id="SVGID_00000075127762594396466690000003731649053389393541_">
			<use xlink:href="#SVGID_00000094618537749596234530000005269406320898081157_"  style="overflow:visible;"/>
		</clipPath>
		<g style="clip-path:url(#SVGID_00000075127762594396466690000003731649053389393541_);">
			<g>
				<path class="st19" d="M11.66,4.09v9.46c0,0.7,0.03,1.79,0.08,2.44H7.68c0.03-0.53,0.14-1.62,0.14-2.46V4.09
					c0-0.53-0.03-1.51-0.11-2.16h4.03C11.69,2.58,11.66,3.19,11.66,4.09z M24.62,4.51v5.54c0,6.02-1.18,8.62-3.25,10.92
					c-1.85,2.02-4.76,3.39-6.8,4.03l-2.91-3.08c2.77-0.64,5.04-1.71,6.72-3.53c1.93-2.1,2.3-4.2,2.3-8.57V4.51
					c0-1.12-0.06-2.02-0.17-2.8h4.23C24.68,2.49,24.62,3.39,24.62,4.51z"/>
				<path class="st19" d="M40.27,25.2l-3-2.83c5.4-1.88,7.78-4.28,7.78-11.17v-1.06h-6.64v3.81c0,1.23,0.08,2.38,0.11,2.94h-3.92
					c0.08-0.56,0.17-1.68,0.17-2.94v-3.81h-2.38c-1.4,0-2.41,0.06-3.02,0.11V6.44c0.48,0.08,1.62,0.25,3.02,0.25h2.38V3.92
					c0-0.81-0.08-1.68-0.17-2.52h3.98c-0.08,0.53-0.17,1.43-0.17,2.52v2.77h6.64V3.75c0-1.12-0.08-2.04-0.17-2.6h4
					c-0.08,0.56-0.2,1.48-0.2,2.6v2.94h2.07c1.48,0,2.32-0.06,3.08-0.2v3.72c-0.62-0.06-1.6-0.08-3.08-0.08H48.7v0.92
					C48.7,18,47.02,22.23,40.27,25.2z"/>
				<path class="st19" d="M67.91,7.53c2.88-1.79,6.08-4.59,7.9-6.8l3.02,2.88c-2.13,2.1-4.82,4.28-7.53,6.08V21
					c0,1.23,0.06,2.97,0.25,3.67h-4.42c0.11-0.67,0.2-2.44,0.2-3.67v-8.96c-2.88,1.51-6.44,3.02-9.88,4.03l-1.76-3.53
					C60.69,11.26,64.8,9.44,67.91,7.53z"/>
				<path class="st19" d="M92.16,4.12h5.68c0.87,0,1.82-0.11,2.44-0.31l2.86,1.76c-0.31,0.53-0.67,1.29-0.92,1.99
					c-0.76,2.27-2.16,5.26-4.14,8.06c1.2,0.87,2.3,1.68,3.11,2.35l-2.66,3.16c-0.76-0.7-1.79-1.57-2.94-2.49
					c-2.46,2.6-5.66,4.98-10.02,6.64l-3.25-2.83c4.84-1.48,7.95-3.75,10.28-6.08c-1.82-1.34-3.67-2.6-5.1-3.5l2.49-2.55
					c1.48,0.84,3.25,1.99,5.01,3.16c1.46-2.02,2.66-4.45,3.08-6.19h-8.01c-1.96,2.6-4.56,5.29-7.39,7.25l-3.02-2.32
					c4.9-3.05,7.5-6.89,8.9-9.32c0.45-0.67,1.04-1.96,1.29-2.91l4.06,1.26C93.19,2.24,92.49,3.5,92.16,4.12z"/>
				<path class="st19" d="M109.8,15.71c0.78-2.41,0.81-7.7,0.81-11.09c0-1.12-0.08-1.88-0.25-2.58h4.12
					c-0.03,0.14-0.2,1.37-0.2,2.55c0,3.3-0.08,9.21-0.84,12.04c-0.84,3.16-2.6,5.91-4.98,8.04l-3.42-2.27
					C107.5,20.66,109.01,18.09,109.8,15.71z M118.23,20.75V4.42c0-1.26-0.2-2.32-0.22-2.41h4.17c-0.03,0.08-0.2,1.18-0.2,2.44V19.1
					c2.27-0.98,5.04-3.19,6.92-5.91l2.16,3.08c-2.32,3.02-6.36,6.05-9.49,7.64c-0.62,0.34-0.95,0.62-1.2,0.84L118,22.82
					C118.11,22.29,118.23,21.5,118.23,20.75z"/>
				<path class="st19" d="M136.12,20.86l-3.05-2.07c1.88-1.76,4.12-4.84,5.26-7.22l3.19,1.48
					C140.23,15.54,137.63,19.21,136.12,20.86z M147.85,3.44v2.24h6.5c0.81,0,2.02-0.08,2.77-0.2v3.67
					c-0.87-0.06-1.96-0.08-2.74-0.08h-6.52v13.02c0,1.62-0.95,2.63-2.94,2.63c-1.48,0-3.14-0.06-4.54-0.25L140.01,21
					c1.2,0.22,2.44,0.34,3.14,0.34c0.73,0,0.98-0.28,1.01-1.01c0.03-1.04,0.03-9.91,0.03-11.23V9.07h-7.11
					c-0.84,0-1.9,0.03-2.69,0.11v-3.7c0.84,0.08,1.82,0.2,2.69,0.2h7.11V3.44c0-0.73-0.14-1.96-0.22-2.44h4.14
					C148.02,1.4,147.85,2.74,147.85,3.44z M158.32,18.84l-3.28,1.79c-1.2-2.38-3.19-5.77-4.56-7.5l3.05-1.65
					C154.96,13.27,157.2,16.8,158.32,18.84z"/>
				<path class="st19" d="M166.25,10.64h15.04c1.32,0,2.55-0.11,3.28-0.17v4.4c-0.67-0.03-2.1-0.14-3.28-0.14h-15.04
					c-1.6,0-3.47,0.06-4.51,0.14v-4.4C162.75,10.56,164.79,10.64,166.25,10.64z"/>
				<path class="st19" d="M192.17,15.71c0.78-2.41,0.81-7.7,0.81-11.09c0-1.12-0.08-1.88-0.25-2.58h4.12
					c-0.03,0.14-0.2,1.37-0.2,2.55c0,3.3-0.08,9.21-0.84,12.04c-0.84,3.16-2.6,5.91-4.98,8.04l-3.42-2.27
					C189.88,20.66,191.39,18.09,192.17,15.71z M200.6,20.75V4.42c0-1.26-0.2-2.32-0.22-2.41h4.17c-0.03,0.08-0.2,1.18-0.2,2.44V19.1
					c2.27-0.98,5.04-3.19,6.92-5.91l2.16,3.08c-2.32,3.02-6.36,6.05-9.49,7.64c-0.62,0.34-0.95,0.62-1.2,0.84l-2.35-1.93
					C200.49,22.29,200.6,21.5,200.6,20.75z"/>
				<path class="st19" d="M84.79,60.44h-2.83l-3.61-6.05c-0.77-1.3-1.47-2.14-2.1-2.55c-0.63-0.4-1.37-0.6-2.21-0.6h-2.12v9.2h-2.36
					v-21.5h6.33c1.97,0,3.54,0.51,4.71,1.52c1.17,1.01,1.75,2.41,1.75,4.2c0,2.97-1.59,4.9-4.76,5.79v0.06
					c0.59,0.26,1.08,0.6,1.46,1.01c0.38,0.42,0.96,1.24,1.73,2.47L84.79,60.44z M71.92,41.12v7.91h3.51c1.31,0,2.37-0.38,3.19-1.15
					c0.82-0.76,1.24-1.78,1.24-3.05c0-1.17-0.38-2.08-1.12-2.73c-0.75-0.66-1.84-0.99-3.28-0.99H71.92z"/>
				<path class="st19" d="M98.86,53.33H87.98c0.05,1.77,0.51,3.12,1.4,4.07c0.89,0.94,2.11,1.42,3.65,1.42
					c1.73,0,3.33-0.58,4.79-1.74v2.22c-1.34,1-3.12,1.5-5.33,1.5c-2.14,0-3.82-0.7-5.06-2.1s-1.85-3.36-1.85-5.9
					c0-2.33,0.67-4.26,2.01-5.79c1.34-1.53,3.01-2.29,5.02-2.29c1.97,0,3.51,0.65,4.61,1.94c1.1,1.3,1.65,3.1,1.65,5.41V53.33z
					 M96.47,51.29c-0.01-1.44-0.36-2.57-1.04-3.37s-1.64-1.2-2.87-1.2c-1.12,0-2.1,0.4-2.95,1.21c-0.85,0.8-1.38,1.92-1.6,3.36
					H96.47z"/>
				<path class="st19" d="M113.04,59.71c-1.19,0.72-2.58,1.08-4.17,1.08c-2.17,0-3.93-0.71-5.27-2.13
					c-1.34-1.42-2.01-3.27-2.01-5.55c0-2.55,0.72-4.58,2.17-6.11c1.44-1.53,3.36-2.29,5.76-2.29c1.32,0,2.5,0.25,3.54,0.75v2.43
					c-1.15-0.81-2.37-1.21-3.68-1.21c-1.57,0-2.87,0.57-3.89,1.7s-1.53,2.64-1.53,4.52c0,1.83,0.48,3.28,1.43,4.33
					c0.95,1.06,2.24,1.58,3.85,1.58c1.36,0,2.63-0.45,3.8-1.35V59.71z"/>
				<path class="st19" d="M116.48,39.56c0-0.43,0.15-0.8,0.44-1.1c0.29-0.3,0.65-0.45,1.06-0.45c0.44,0,0.8,0.15,1.1,0.46
					s0.45,0.67,0.45,1.1c0,0.41-0.15,0.76-0.45,1.07c-0.3,0.3-0.67,0.46-1.1,0.46c-0.43,0-0.79-0.15-1.08-0.44
					C116.62,40.34,116.48,39.98,116.48,39.56z M116.8,60.44V45.08h2.3v15.35H116.8z"/>
				<path class="st19" d="M131.14,60.28c-0.57,0.32-1.31,0.49-2.24,0.49c-2.64,0-3.96-1.49-3.96-4.46v-9.23h-2.67v-2h2.67v-3.78
					l2.3-0.75v4.53h3.89v2h-3.89v8.82c0,1.05,0.18,1.79,0.53,2.23c0.35,0.44,0.94,0.67,1.76,0.67c0.64,0,1.17-0.17,1.6-0.51V60.28z"
					/>
				<path class="st19" d="M134.83,46.18c1.51-0.97,3.23-1.46,5.18-1.46c3.56,0,5.34,1.89,5.34,5.68v10.04h-2.32v-2.42h-0.08
					c-1.06,1.85-2.64,2.78-4.72,2.78c-1.52,0-2.71-0.41-3.59-1.21c-0.88-0.81-1.31-1.88-1.31-3.21c0-2.84,1.68-4.5,5.05-4.98
					l4.64-0.67c0-2.67-1.06-4-3.19-4c-1.86,0-3.53,0.63-5,1.9V46.18z M139.26,53.15c-1.31,0.18-2.23,0.49-2.74,0.95
					s-0.77,1.16-0.77,2.12c0,0.77,0.28,1.39,0.83,1.87c0.55,0.48,1.27,0.72,2.16,0.72c1.23,0,2.25-0.44,3.07-1.32
					c0.81-0.88,1.22-1.98,1.22-3.29v-1.55L139.26,53.15z"/>
				<path class="st19" d="M150.05,60.44V37.71h2.3v22.72H150.05z"/>
				<path class="st19" d="M180.84,60.44h-2.36v-9.87H167.2v9.87h-2.36v-21.5h2.36v9.5h11.27v-9.5h2.36V60.44z"/>
				<path class="st19" d="M186.56,46.18c1.51-0.97,3.23-1.46,5.18-1.46c3.56,0,5.34,1.89,5.34,5.68v10.04h-2.32v-2.42h-0.08
					c-1.06,1.85-2.64,2.78-4.72,2.78c-1.52,0-2.71-0.41-3.59-1.21c-0.88-0.81-1.31-1.88-1.31-3.21c0-2.84,1.68-4.5,5.05-4.98
					l4.64-0.67c0-2.67-1.06-4-3.19-4c-1.86,0-3.53,0.63-5,1.9V46.18z M190.98,53.15c-1.31,0.18-2.23,0.49-2.74,0.95
					s-0.77,1.16-0.77,2.12c0,0.77,0.28,1.39,0.83,1.87c0.55,0.48,1.27,0.72,2.16,0.72c1.23,0,2.25-0.44,3.07-1.32
					c0.81-0.88,1.22-1.98,1.22-3.29v-1.55L190.98,53.15z"/>
				<path class="st19" d="M201.77,60.44V37.71h2.3v22.72H201.77z"/>
				<path class="st19" d="M209.14,60.44V37.71h2.3v22.72H209.14z"/>
			</g>
		</g>
	</g>
</g>
<g id="瀏海">
</g>
<g id="圖層_3" class="st0">
</g>
<g id="圖層_4">
</g>
<g id="分">
</g>
</svg>
