<?xml version="1.0" encoding="utf-8"?>
<!-- Generator: Adobe Illustrator 26.5.0, SVG Export Plug-In . SVG Version: 6.00 Build 0)  -->
<svg version="1.1" xmlns="http://www.w3.org/2000/svg" xmlns:xlink="http://www.w3.org/1999/xlink" x="0px" y="0px"
	 viewBox="0 0 69.3 62.57" style="enable-background:new 0 0 69.3 62.57;" xml:space="preserve">
<style type="text/css">
	.st0{fill:#E0E0E0;}
	.st1{fill:#FFFFFF;}
	.st2{fill:none;stroke:#D4D4D4;stroke-miterlimit:10;}
	.st3{fill:#BDBDBD;}
	.st4{fill:#757575;}
	.st5{fill:none;stroke:#F0F0F0;stroke-miterlimit:10;}
	.st6{fill:#BBBBBB;}
	.st7{fill:none;stroke:#FFFFFF;stroke-miterlimit:10;}
	.st8{display:none;}
	.st9{display:inline;}
	.st10{opacity:0.85;fill:none;stroke:#B77B49;stroke-width:5;stroke-miterlimit:10;}
	.st11{fill:#333333;}
	.st12{clip-path:url(#SVGID_00000075884771568935901760000005570007392390257581_);}
	.st13{clip-path:url(#SVGID_00000159443878693781715980000013481774956350462851_);}
	.st14{clip-path:url(#SVGID_00000078046451918064483230000013490175038119206810_);}
	.st15{clip-path:url(#SVGID_00000132058021569580914330000009045954576392633237_);}
	.st16{clip-path:url(#SVGID_00000058554275716465148380000012904035068498197643_);}
	.st17{clip-path:url(#SVGID_00000005970608283365612730000014289410657258523529_);}
	.st18{fill:#414042;}
	.st19{fill:#606060;}
	.st20{fill:#595757;}
	.st21{fill:none;stroke:#595757;stroke-width:1.5;stroke-linecap:round;stroke-linejoin:round;stroke-miterlimit:10;}
	.st22{fill:#C9CACA;}
	.st23{fill:none;stroke:#C9CACA;stroke-width:1.5;stroke-linecap:round;stroke-linejoin:round;stroke-miterlimit:10;}
	.st24{fill:#EA5504;}
	.st25{fill:none;stroke:#EA5504;stroke-width:1.5;stroke-linecap:round;stroke-linejoin:round;stroke-miterlimit:10;}
	.st26{fill:#00B9EF;}
	.st27{fill:none;stroke:#00B9EF;stroke-width:1.5;stroke-linecap:round;stroke-linejoin:round;stroke-miterlimit:10;}
	.st28{fill:#FFF100;}
	.st29{fill:none;stroke:#FFF100;stroke-width:1.5;stroke-linecap:round;stroke-linejoin:round;stroke-miterlimit:10;}
	.st30{fill:#D0121B;}
	.st31{fill:none;stroke:#D0121B;stroke-width:1.5;stroke-linecap:round;stroke-linejoin:round;stroke-miterlimit:10;}
	.st32{fill:#C9CACA;stroke:#7F7F7F;stroke-width:0.6;stroke-miterlimit:10;}
	.st33{fill:#7F7F7F;}
	.st34{opacity:0.15;}
	.st35{clip-path:url(#SVGID_00000154420562056245853800000003476667887742797455_);}
	.st36{clip-path:url(#SVGID_00000158015874628620504850000012305134282609634724_);}
	.st37{clip-path:url(#SVGID_00000089572899818825464680000006033133241058509953_);}
	.st38{clip-path:url(#SVGID_00000083061948342283745420000011404803586342027955_);}
	.st39{clip-path:url(#SVGID_00000004546477636293442340000014354349194545487288_);}
	.st40{clip-path:url(#SVGID_00000130630599822010918770000008300430109585878433_);}
	.st41{fill:#C8C8C8;}
	.st42{clip-path:url(#SVGID_00000047058302430791301840000001714927994535704249_);}
	.st43{fill:none;stroke:#787878;stroke-width:0.5;stroke-miterlimit:10;}
	.st44{fill:#121D17;}
	.st45{fill:#878787;}
	.st46{display:inline;fill:#606060;}
	.st47{display:inline;fill:#525252;}
	.st48{fill:none;stroke:#0083F1;stroke-width:5;stroke-linecap:round;stroke-linejoin:round;}
	.st49{fill:none;stroke:#0083F1;stroke-width:5;stroke-linecap:round;stroke-linejoin:round;stroke-dasharray:1.0041,20.0813;}
	.st50{fill:#0083F1;}
</style>
<g id="圖層_1">
</g>
<g id="_x30_3" class="st8">
</g>
<g id="圖層_6">
	<g>
		<g>
			<g>
				<path class="st1" d="M43.24,7.34h8.07c0.79,0,1.8,0.3,2.45,0.66l2.17-2.1c-1.3-0.94-2.89-1.5-4.61-1.5h-8.07V7.34z"/>
				<path class="st1" d="M56.34,32.01v22.45c0,2.53-2.5,5.16-5.03,5.16H7.89c-2.53,0-4.82-2.41-4.82-4.94v-42.4
					c0-2.53,2.28-4.94,4.82-4.94h9.92V4.39H7.89C3.54,4.39,0,7.93,0,12.28v42.4c0,4.35,3.54,7.89,7.89,7.89h43.42
					c4.35,0,7.89-3.54,7.89-7.89V29.02L56.34,32.01z"/>
				<rect x="25.27" y="4.39" class="st1" width="10.51" height="2.95"/>
			</g>
			<path class="st1" d="M21.55,9.38L21.55,9.38c-1.02,0-1.85-0.83-1.85-1.85V1.85C19.7,0.83,20.53,0,21.55,0h0
				c1.02,0,1.85,0.83,1.85,1.85v5.69C23.39,8.55,22.56,9.38,21.55,9.38z"/>
			<path class="st1" d="M39.51,9.38L39.51,9.38c-1.02,0-1.85-0.83-1.85-1.85V1.85C37.67,0.83,38.5,0,39.51,0h0
				c1.02,0,1.85,0.83,1.85,1.85v5.69C41.36,8.55,40.53,9.38,39.51,9.38z"/>
			<rect x="11.67" y="23.5" class="st1" width="21.02" height="3.86"/>
			<rect x="11.67" y="33.48" class="st1" width="12.19" height="3.86"/>
			<g>
				<path class="st1" d="M68.49,12.43l-5.58-5.79c-0.57-0.59-1.33-0.89-2.09-0.89c-0.73,0-1.45,0.27-2.01,0.81l-3.54,3.41l9.64,9.95
					l3.51-3.38C69.57,15.43,69.6,13.59,68.49,12.43z"/>
				<path class="st1" d="M53.39,11.79L28.93,35.35c-0.2,0.19-0.35,0.43-0.43,0.7l-3.87,12.53c-0.1,0.31,0.15,0.61,0.45,0.61
					c0.04,0,0.08-0.01,0.13-0.02l12.62-3.45c0.26-0.07,0.51-0.21,0.71-0.4l24.49-23.59L53.39,11.79z M30.62,46.15l-2.78-2.83
					l1.68-5.45l6.74,6.75L30.62,46.15z M52.81,17.14L33.93,35.42c-0.4,0.38-1.03,0.37-1.42-0.02c-0.38-0.4-0.37-1.03,0.02-1.42
					L51.41,15.7c0.4-0.38,1.03-0.37,1.42,0.02C53.21,16.12,53.2,16.76,52.81,17.14z"/>
			</g>
		</g>
	</g>
</g>
<g id="圖層_5">
</g>
<g id="note" class="st8">
</g>
<g id="指示線">
</g>
</svg>
